<svg width="200" height="200" viewBox="0 0 200 200" fill="none" xmlns="http://www.w3.org/2000/svg">
<path d="M100.599 17.196C103.119 17.196 104.575 15.67 104.575 13.934C104.575 12.464 103.805 11.596 102.517 11.078L101.215 10.56C100.291 10.196 99.6329 9.972 99.6329 9.398C99.6329 8.838 100.109 8.53 100.879 8.53C101.691 8.53 102.335 8.81 103.021 9.328L104.267 7.76C103.357 6.85 102.083 6.388 100.879 6.388C98.6669 6.388 97.0989 7.788 97.0989 9.538C97.0989 11.05 98.1209 11.96 99.2129 12.394L100.543 12.954C101.439 13.332 102.013 13.528 102.013 14.13C102.013 14.69 101.579 15.04 100.655 15.04C99.8289 15.04 98.8629 14.606 98.1209 13.976L96.7069 15.698C97.7849 16.692 99.2409 17.196 100.599 17.196Z" fill="#D9D5CE"/>
<path d="M115.682 18.6925C117.019 18.935 118.254 18.6328 119.305 17.7847L118.29 16.0069C117.713 16.4429 116.977 16.7362 116.164 16.5887C114.717 16.3262 113.996 14.9716 114.366 12.9329C114.728 10.9355 116.031 9.94831 117.354 10.1883C118.084 10.3208 118.561 10.7489 118.986 11.3097L120.566 9.97435C119.993 9.13056 119.031 8.3157 117.695 8.07322C115.091 7.60076 112.45 9.14184 111.83 12.558C111.2 16.0293 113.079 18.2201 115.682 18.6925Z" fill="#D9D5CE"/>
<path d="M130.901 13.9425L131.949 14.3362C133.063 14.7545 133.54 15.2774 133.196 16.195C132.852 17.1126 132.08 17.3761 130.966 16.9578L129.917 16.5641L130.901 13.9425ZM133.48 23.9283L132.755 19.2445C133.941 19.1515 134.953 18.485 135.489 17.0562C136.375 14.6968 134.91 13.3393 132.826 12.5569L129.248 11.2134L125.589 20.9657L127.936 21.8466L129.224 18.4123L130.351 18.8356L130.858 22.944L133.48 23.9283Z" fill="#D9D5CE"/>
<path d="M142.378 28.8983C144.818 30.3564 147.524 29.5928 149.276 26.66C151.02 23.7392 150.359 21.0772 147.92 19.6191C145.481 18.1609 142.832 18.8284 141.08 21.7612C139.329 24.694 139.939 27.4401 142.378 28.8983ZM143.484 27.0472C142.306 26.3433 142.238 24.8185 143.279 23.0757C144.313 21.3449 145.644 20.7542 146.822 21.4581C147.999 22.162 148.122 23.6218 147.089 25.3527C146.048 27.0955 144.662 27.7512 143.484 27.0472Z" fill="#D9D5CE"/>
<path d="M152.729 35.9224L157.662 40.2343L159.043 38.6525L155.997 35.9898L161.467 29.7261L159.58 28.0769L152.729 35.9224Z" fill="#D9D5CE"/>
<path d="M163.292 46.3704L167.376 51.4938L169.018 50.1841L166.496 47.0203L172.996 41.834L171.434 39.8744L163.292 46.3704Z" fill="#D9D5CE"/>
<path d="M178.763 74.8881C179.542 77.2849 181.443 78.1979 183.093 77.6613C184.491 77.2068 185.079 76.2061 185.174 74.821L185.264 73.4225C185.325 72.4312 185.335 71.7361 185.881 71.5587C186.413 71.3856 186.853 71.7431 187.091 72.4754C187.342 73.2477 187.275 73.9468 186.994 74.7594L188.87 75.4597C189.454 74.3129 189.5 72.9584 189.128 71.8132C188.445 69.7094 186.629 68.6509 184.965 69.1919C183.527 69.6593 182.977 70.9126 182.902 72.0854L182.78 73.5235C182.697 74.4925 182.688 75.099 182.116 75.2851C181.583 75.4583 181.116 75.1537 180.831 74.2749C180.576 73.4893 180.69 72.4363 181.06 71.5359L178.986 70.7234C178.373 72.0559 178.344 73.5965 178.763 74.8881Z" fill="#D9D5CE"/>
<path d="M182 89.7023C182.182 91.048 182.852 92.1299 183.983 92.8667L185.36 91.352C184.767 90.9379 184.261 90.3284 184.15 89.5098C183.953 88.0531 185.018 86.9481 187.071 86.6698C189.083 86.3972 190.424 87.3315 190.605 88.6634C190.704 89.3986 190.445 89.9848 190.042 90.5621L191.8 91.6518C192.426 90.8465 192.904 89.6798 192.722 88.3341C192.367 85.712 190.085 83.676 186.644 84.1423C183.148 84.616 181.645 87.0802 182 89.7023Z" fill="#D9D5CE"/>
<path d="M191.223 102.712L191.173 103.831C191.119 105.02 190.77 105.635 189.791 105.591C188.812 105.547 188.322 104.894 188.376 103.706L188.426 102.587L191.223 102.712ZM182.524 108.25L186.754 106.113C187.209 107.213 188.156 107.97 189.681 108.039C192.198 108.152 193.036 106.339 193.136 104.116L193.307 100.297L182.902 99.83L182.79 102.333L186.454 102.498L186.4 103.701L182.65 105.452L182.524 108.25Z" fill="#D9D5CE"/>
<path d="M180.55 118.253C179.918 121.024 181.481 123.363 184.811 124.123C188.128 124.88 190.455 123.43 191.087 120.659C191.719 117.888 190.265 115.575 186.935 114.814C183.605 114.054 181.182 115.482 180.55 118.253ZM182.652 118.733C182.957 117.396 184.386 116.86 186.365 117.312C188.33 117.761 189.304 118.845 188.999 120.182C188.693 121.52 187.343 122.088 185.378 121.639C183.399 121.187 182.347 120.071 182.652 118.733Z" fill="#D9D5CE"/>
<path d="M177.073 130.272L174.499 136.298L176.43 137.123L178.019 133.403L185.666 136.672L186.65 134.368L177.073 130.272Z" fill="#D9D5CE"/>
<path d="M170.408 143.552L166.8 149.021L168.552 150.178L170.78 146.801L177.72 151.384L179.1 149.292L170.408 143.552Z" fill="#D9D5CE"/>
<path d="M148.082 167.089C146.043 168.57 145.762 170.661 146.782 172.066C147.646 173.255 148.779 173.505 150.125 173.167L151.483 172.82C152.444 172.571 153.108 172.366 153.445 172.83C153.774 173.283 153.57 173.812 152.947 174.265C152.291 174.743 151.605 174.895 150.746 174.879L150.659 176.88C151.93 177.081 153.232 176.706 154.206 175.998C155.995 174.698 156.441 172.643 155.413 171.227C154.524 170.004 153.163 169.868 152.025 170.159L150.62 170.488C149.673 170.709 149.093 170.888 148.74 170.401C148.41 169.948 148.556 169.409 149.303 168.866C149.971 168.38 151.008 168.163 151.978 168.237L152.11 166.012C150.654 165.842 149.18 166.29 148.082 167.089Z" fill="#D9D5CE"/>
<path d="M134.999 174.748C133.776 175.338 132.953 176.309 132.602 177.613L134.468 178.454C134.678 177.762 135.102 177.092 135.846 176.734C137.17 176.096 138.55 176.767 139.449 178.634C140.329 180.463 139.855 182.028 138.644 182.612C137.976 182.934 137.338 182.868 136.665 182.664L136.172 184.673C137.131 185.019 138.388 185.113 139.611 184.523C141.995 183.375 143.226 180.575 141.72 177.447C140.19 174.268 137.383 173.6 134.999 174.748Z" fill="#D9D5CE"/>
<path d="M125.48 187.542L124.401 187.84C123.254 188.157 122.561 188.014 122.3 187.069C122.039 186.124 122.509 185.457 123.656 185.141L124.736 184.843L125.48 187.542ZM117.527 180.98L120.865 184.343C119.96 185.115 119.533 186.25 119.938 187.721C120.609 190.151 122.591 190.387 124.737 189.795L128.421 188.778L125.651 178.737L123.235 179.404L124.211 182.94L123.05 183.26L120.226 180.235L117.527 180.98Z" fill="#D9D5CE"/>
<path d="M107.408 182.193C104.577 182.448 102.836 184.657 103.142 188.059C103.447 191.448 105.546 193.212 108.376 192.958C111.207 192.703 112.958 190.605 112.652 187.203C112.346 183.801 110.238 181.938 107.408 182.193ZM107.601 184.34C108.967 184.217 109.918 185.411 110.1 187.433C110.281 189.441 109.551 190.701 108.184 190.824C106.818 190.947 105.861 189.839 105.68 187.831C105.498 185.809 106.234 184.463 107.601 184.34Z" fill="#D9D5CE"/>
<path d="M94.9073 182.599L88.3817 182.011L88.1935 184.102L92.2232 184.465L91.4781 192.748L93.974 192.973L94.9073 182.599Z" fill="#D9D5CE"/>
<path d="M80.2223 180.359L73.9066 178.615L73.3482 180.639L77.2483 181.716L75.0368 189.733L77.4524 190.4L80.2223 180.359Z" fill="#D9D5CE"/>
<path d="M50.9489 166.384C48.9105 164.903 46.8361 165.281 45.816 166.686C44.9522 167.875 45.065 169.031 45.8024 170.207L46.5512 171.392C47.0848 172.229 47.4854 172.798 47.1481 173.262C46.819 173.715 46.253 173.684 45.6302 173.232C44.9733 172.754 44.6169 172.149 44.3664 171.327L42.4372 171.863C42.6385 173.134 43.3976 174.257 44.3715 174.965C46.1608 176.265 48.2518 176.055 49.2801 174.639C50.1686 173.415 49.8766 172.078 49.2483 171.085L48.5016 169.85C47.9989 169.017 47.6498 168.521 48.0035 168.034C48.3326 167.581 48.8893 167.553 49.6367 168.096C50.3049 168.582 50.8312 169.501 51.0612 170.447L53.2169 169.885C52.929 168.447 52.0474 167.183 50.9489 166.384Z" fill="#D9D5CE"/>
<path d="M39.6263 156.302C38.6881 155.32 37.5109 154.838 36.163 154.907L35.9391 156.942C36.6621 156.928 37.4299 157.124 38.0006 157.721C39.0162 158.784 38.8039 160.304 37.3066 161.737C35.8396 163.14 34.2054 163.172 33.2768 162.201C32.7642 161.664 32.6298 161.037 32.6159 160.334L30.5533 160.486C30.5205 161.505 30.8197 162.73 31.758 163.712C33.5861 165.625 36.6284 165.931 39.1374 163.531C41.6869 161.092 41.4544 158.215 39.6263 156.302Z" fill="#D9D5CE"/>
<path d="M24.5228 151.198L23.906 150.263C23.2506 149.27 23.1723 148.567 23.9901 148.027C24.8079 147.487 25.5871 147.727 26.2425 148.72L26.8593 149.655L24.5228 151.198ZM28.3059 141.603L26.1395 145.819C25.1252 145.197 23.9142 145.141 22.6408 145.982C20.538 147.37 20.9249 149.33 22.1508 151.188L24.2557 154.378L32.9474 148.638L31.5673 146.546L28.5065 148.567L27.8434 147.562L29.8479 143.94L28.3059 141.603Z" fill="#D9D5CE"/>
<path d="M24.0268 132.349C22.9102 129.735 20.2718 128.762 17.1309 130.105C14.0029 131.443 12.9726 133.985 14.0892 136.598C15.2058 139.212 17.7412 140.229 20.8821 138.886C24.023 137.543 25.1433 134.962 24.0268 132.349ZM22.0444 133.197C22.5834 134.458 21.7421 135.732 19.8755 136.53C18.0219 137.322 16.5977 137.018 16.0587 135.756C15.5197 134.494 16.2783 133.241 18.1319 132.449C19.9985 131.65 21.5054 131.935 22.0444 133.197Z" fill="#D9D5CE"/>
<path d="M19.7795 120.58L18.3221 114.192L16.2748 114.66L17.1748 118.604L9.06746 120.455L9.62486 122.899L19.7795 120.58Z" fill="#D9D5CE"/>
<path d="M17.3712 105.917L17.0774 99.3713L14.9795 99.4656L15.161 103.508L6.85334 103.881L6.96572 106.384L17.3712 105.917Z" fill="#D9D5CE"/>
<path d="M21.6072 73.7482C22.3856 71.3515 21.3841 69.4949 19.7331 68.9583C18.3351 68.5038 17.2718 68.9678 16.3813 70.0327L15.4865 71.1109C14.8549 71.8772 14.4386 72.4338 13.8928 72.2563C13.3602 72.0832 13.2143 71.5353 13.4522 70.8029C13.703 70.0306 14.1682 69.5047 14.8727 69.0124L13.7664 67.3426C12.6199 67.9267 11.787 68.9956 11.4151 70.1407C10.7318 72.2446 11.5789 74.1687 13.2432 74.7097C14.6811 75.1771 15.8622 74.4864 16.6123 73.582L17.5557 72.4901C18.1919 71.7548 18.5556 71.2695 19.1281 71.4556C19.6607 71.6287 19.8595 72.1496 19.5741 73.0285C19.3189 73.8141 18.6078 74.5987 17.7795 75.1096L18.9803 76.9868C20.2586 76.2688 21.1877 75.0398 21.6072 73.7482Z" fill="#D9D5CE"/>
<path d="M27.6904 59.859C28.3337 58.663 28.428 57.3941 27.9459 56.1329L25.9419 56.5486C26.1782 57.2323 26.2297 58.0232 25.8384 58.7506C25.1421 60.0452 23.631 60.3129 21.8066 59.3307C20.0191 58.3684 19.4829 56.8237 20.1196 55.64C20.4711 54.9866 21.0256 54.665 21.6901 54.4344L20.9082 52.5189C19.9289 52.8026 18.8569 53.4657 18.2136 54.6617C16.9602 56.9919 17.6098 59.981 20.6669 61.6269C23.7733 63.2992 26.4369 62.1892 27.6904 59.859Z" fill="#D9D5CE"/>
<path d="M27.8729 43.9102L28.571 43.0344C29.3127 42.1039 29.9571 41.8121 30.7232 42.4233C31.4893 43.0345 31.5015 43.8501 30.7597 44.7807L30.0616 45.6565L27.8729 43.9102ZM38.1633 44.5444L33.4863 43.7859C33.7642 42.6287 33.4432 41.4592 32.2503 40.5075C30.2805 38.9358 28.5376 39.9094 27.1501 41.6501L24.7678 44.6388L32.9099 51.1348L34.472 49.1752L31.6047 46.8876L32.3552 45.9461L36.418 46.7339L38.1633 44.5444Z" fill="#D9D5CE"/>
<path d="M45.6368 37.6113C47.7766 35.7409 47.8868 32.9299 45.6398 30.3569C43.402 27.7945 40.6674 27.6002 38.5275 29.4705C36.3877 31.3409 36.2039 34.0675 38.4508 36.6405C40.6978 39.2135 43.4969 39.4816 45.6368 37.6113ZM44.2186 35.9873C43.1856 36.8903 41.7151 36.4835 40.3798 34.9544C39.0538 33.436 38.9035 31.9868 39.9365 31.0839C40.9695 30.181 42.3953 30.5153 43.7213 32.0338C45.0566 33.5628 45.2516 35.0844 44.2186 35.9873Z" fill="#D9D5CE"/>
<path d="M55.511 29.932L61.1349 26.5704L60.0581 24.7675L56.5852 26.8433L52.3214 19.7036L50.1703 20.9894L55.511 29.932Z" fill="#D9D5CE"/>
<path d="M68.7062 23.1071L74.8401 20.804L74.1025 18.8378L70.3147 20.26L67.3938 12.4739L65.0477 13.3548L68.7062 23.1071Z" fill="#D9D5CE"/>
</svg>
