<svg width="200" height="200" viewBox="0 0 200 200" fill="none" xmlns="http://www.w3.org/2000/svg">
<path d="M100.528 21.196C103.048 21.196 104.504 19.67 104.504 17.934C104.504 16.464 103.734 15.596 102.446 15.078L101.144 14.56C100.22 14.196 99.5618 13.972 99.5618 13.398C99.5618 12.838 100.038 12.53 100.808 12.53C101.62 12.53 102.264 12.81 102.95 13.328L104.196 11.76C103.286 10.85 102.012 10.388 100.808 10.388C98.5958 10.388 97.0278 11.788 97.0278 13.538C97.0278 15.05 98.0498 15.96 99.1418 16.394L100.472 16.954C101.368 17.332 101.942 17.528 101.942 18.13C101.942 18.69 101.508 19.04 100.584 19.04C99.7578 19.04 98.7918 18.606 98.0498 17.976L96.6358 19.698C97.7138 20.692 99.1698 21.196 100.528 21.196Z" fill="#D9D5CE"/>
<path d="M112.647 22.2149C113.989 22.4173 115.216 22.0783 116.24 21.1991L115.173 19.4525C114.609 19.9055 113.882 20.2207 113.065 20.0976C111.611 19.8785 110.849 18.546 111.158 16.4972C111.461 14.4899 112.734 13.4642 114.063 13.6645C114.797 13.7751 115.286 14.1887 115.728 14.7366L117.267 13.3545C116.669 12.5282 115.683 11.7425 114.341 11.5401C111.724 11.1458 109.13 12.7652 108.612 16.1984C108.086 19.687 110.03 21.8205 112.647 22.2149Z" fill="#D9D5CE"/>
<path d="M124.525 16.0779L125.595 16.4087C126.732 16.7602 127.239 17.254 126.951 18.1907C126.663 19.1273 125.908 19.4363 124.772 19.0848L123.702 18.754L124.525 16.0779ZM127.7 25.8955L126.694 21.2618C127.872 21.0985 128.843 20.3728 129.292 18.9143C130.033 16.5058 128.49 15.2374 126.363 14.5799L122.712 13.4511L119.648 23.4063L122.042 24.1464L123.121 20.6407L124.271 20.9963L125.025 25.0685L127.7 25.8955Z" fill="#D9D5CE"/>
<path d="M134.111 29.0081C136.67 30.2435 139.295 29.2409 140.775 26.1619C142.248 23.0955 141.351 20.5017 138.791 19.2664C136.232 18.031 133.655 18.9327 132.176 22.0117C130.696 25.0907 131.551 27.7728 134.111 29.0081ZM135.044 27.0648C133.809 26.4685 133.604 24.955 134.483 23.1253C135.356 21.3082 136.628 20.6007 137.864 21.1971C139.099 21.7934 139.353 23.2372 138.48 25.0544C137.601 26.8841 136.28 27.6612 135.044 27.0648Z" fill="#D9D5CE"/>
<path d="M142.403 33.3791L147.813 37.0756L148.994 35.3393L145.653 33.0566L150.331 26.1808L148.262 24.7669L142.403 33.3791Z" fill="#D9D5CE"/>
<path d="M151.833 40.4624L156.631 44.9242L158.057 43.3832L155.094 40.6279L160.744 34.5256L158.909 32.819L151.833 40.4624Z" fill="#D9D5CE"/>
<path d="M167.885 59.9147L169.136 62.0861L176.358 57.9071L177.77 60.3576L179.563 59.3199L175.496 52.2596L173.702 53.2973L175.107 55.7357L167.885 59.9147Z" fill="#D9D5CE"/>
<path d="M173.154 71.2239C174.19 73.8703 176.797 74.921 179.976 73.6706C183.142 72.4253 184.248 69.914 183.212 67.2676C182.175 64.6213 179.673 63.5295 176.494 64.78C173.315 66.0304 172.118 68.5776 173.154 71.2239ZM175.16 70.4347C174.66 69.1572 175.539 67.9087 177.428 67.1656C179.304 66.4276 180.718 66.7742 181.218 68.0517C181.719 69.3293 180.923 70.5601 179.047 71.298C177.157 72.0411 175.661 71.7123 175.16 70.4347Z" fill="#D9D5CE"/>
<path d="M178.504 93.4062L178.691 95.9053L187.012 95.2803L187.223 98.1005L189.289 97.9453L188.681 89.82L186.615 89.9751L186.825 92.7813L178.504 93.4062Z" fill="#D9D5CE"/>
<path d="M178.361 105.885C178.149 108.719 180.043 110.799 183.45 111.055C186.842 111.31 188.927 109.529 189.139 106.695C189.35 103.861 187.568 101.789 184.162 101.533C180.755 101.278 178.573 103.051 178.361 105.885ZM180.511 106.047C180.613 104.679 181.946 103.936 183.971 104.088C185.981 104.239 187.105 105.166 187.003 106.534C186.9 107.902 185.65 108.665 183.64 108.514C181.615 108.362 180.409 107.415 180.511 106.047Z" fill="#D9D5CE"/>
<path d="M177.603 114.057L177.047 116.501L180.418 117.272L180.147 118.46C179.659 120.603 180.298 122.716 182.713 123.269C185.224 123.843 186.436 122.182 186.946 119.943L187.757 116.38L177.603 114.057ZM182.342 117.712L185.276 118.383L185.049 119.38C184.782 120.554 184.278 121.128 183.254 120.894C182.258 120.666 181.829 119.964 182.099 118.777L182.342 117.712Z" fill="#D9D5CE"/>
<path d="M167.799 139.843C166.541 142.026 167.135 144.052 168.638 144.922C169.91 145.658 171.046 145.425 172.137 144.569L173.235 143.7C174.011 143.082 174.534 142.624 175.03 142.911C175.515 143.192 175.544 143.758 175.16 144.425C174.754 145.129 174.191 145.547 173.4 145.882L174.135 147.747C175.377 147.414 176.413 146.542 177.014 145.498C178.118 143.582 177.689 141.522 176.174 140.645C174.865 139.888 173.568 140.318 172.647 141.047L171.498 141.919C170.724 142.506 170.268 142.905 169.747 142.603C169.262 142.323 169.176 141.772 169.637 140.971C170.049 140.255 170.907 139.635 171.823 139.308L171.038 137.22C169.64 137.657 168.477 138.666 167.799 139.843Z" fill="#D9D5CE"/>
<path d="M160.863 149.854C160.017 150.917 159.698 152.15 159.947 153.478L161.992 153.427C161.881 152.712 161.971 151.923 162.486 151.277C163.401 150.127 164.934 150.134 166.553 151.427C168.139 152.695 168.39 154.312 167.554 155.363C167.092 155.944 166.489 156.162 165.795 156.27L166.222 158.296C167.235 158.192 168.407 157.731 169.253 156.668C170.9 154.597 170.795 151.538 168.082 149.37C165.326 147.167 162.51 147.784 160.863 149.854Z" fill="#D9D5CE"/>
<path d="M160.246 163.241L159.426 164.004C158.555 164.814 157.875 165.007 157.209 164.288C156.543 163.568 156.652 162.759 157.524 161.949L158.344 161.186L160.246 163.241ZM150.174 161.079L154.682 162.527C154.235 163.631 154.378 164.836 155.415 165.956C157.127 167.805 158.993 167.101 160.624 165.586L163.422 162.983L156.346 155.339L154.511 157.046L157.003 159.738L156.121 160.558L152.225 159.172L150.174 161.079Z" fill="#D9D5CE"/>
<path d="M144.285 165.097C141.938 166.701 141.493 169.481 143.414 172.305C145.328 175.118 148.017 175.637 150.364 174.034C152.71 172.43 153.219 169.743 151.298 166.918C149.376 164.094 146.631 163.494 144.285 165.097ZM145.498 166.88C146.63 166.106 148.04 166.685 149.182 168.364C150.316 170.031 150.292 171.489 149.159 172.263C148.026 173.037 146.652 172.535 145.518 170.868C144.376 169.189 144.365 167.654 145.498 166.88Z" fill="#D9D5CE"/>
<path d="M136.368 170.121L130.468 172.969L131.377 174.862L135.021 173.103L138.623 180.599L140.88 179.509L136.368 170.121Z" fill="#D9D5CE"/>
<path d="M125.537 174.774L119.277 176.709L119.895 178.716L123.76 177.521L126.207 185.469L128.601 184.729L125.537 174.774Z" fill="#D9D5CE"/>
<path d="M100.697 179H98.191V187.344H95.363V189.416H103.511V187.344H100.697V179Z" fill="#D9D5CE"/>
<path d="M88.2823 177.924C85.4721 177.499 83.2578 179.232 82.7498 182.61C82.2439 185.974 83.8648 188.187 86.6749 188.612C89.4851 189.036 91.6827 187.414 92.1907 184.036C92.6987 180.658 91.0924 178.348 88.2823 177.924ZM87.9616 180.056C89.3182 180.261 89.9594 181.646 89.6575 183.653C89.3576 185.647 88.3501 186.698 86.9935 186.493C85.6369 186.288 84.9694 184.984 85.2692 182.991C85.5711 180.983 86.605 179.851 87.9616 180.056Z" fill="#D9D5CE"/>
<path d="M66.4312 171.471L64.1743 170.382L60.5605 177.903L58.0137 176.674L57.1163 178.541L64.4543 182.083L65.3517 180.215L62.8174 178.992L66.4312 171.471Z" fill="#D9D5CE"/>
<path d="M55.7166 165.098C53.3701 163.495 50.6253 164.095 48.704 166.919C46.7905 169.732 47.2911 172.431 49.6376 174.035C51.9841 175.638 54.6659 175.131 56.5873 172.306C58.5086 169.482 58.0631 166.702 55.7166 165.098ZM54.504 166.881C55.6368 167.655 55.6137 169.182 54.472 170.861C53.338 172.528 51.9752 173.038 50.8424 172.264C49.7096 171.49 49.6738 170.024 50.8077 168.357C51.9495 166.679 53.3712 166.107 54.504 166.881Z" fill="#D9D5CE"/>
<path d="M49.0387 160.348L47.2036 158.641L44.8544 161.179L43.9625 160.349C42.3529 158.853 40.2065 158.348 38.5231 160.166C36.7731 162.056 37.6055 163.939 39.2868 165.503L41.9626 167.991L49.0387 160.348ZM43.5134 162.627L41.4685 164.836L40.7201 164.14C39.8384 163.32 39.5936 162.596 40.3069 161.825C41.0012 161.075 41.8218 161.054 42.7137 161.884L43.5134 162.627Z" fill="#D9D5CE"/>
<path d="M31.6732 138.926C30.4154 136.742 28.3678 136.245 26.8652 137.114C25.5928 137.851 25.2259 138.953 25.4205 140.328L25.622 141.716C25.7682 142.699 25.9028 143.381 25.406 143.668C24.9213 143.949 24.4171 143.691 24.0327 143.023C23.6274 142.32 23.5483 141.622 23.6542 140.768L21.6751 140.473C21.3417 141.718 21.5777 143.053 22.1787 144.096C23.2829 146.013 25.2773 146.671 26.792 145.794C28.1007 145.037 28.3782 143.695 28.2088 142.532L28.0296 141.099C27.9095 140.133 27.7926 139.538 28.3137 139.236C28.7984 138.956 29.318 139.156 29.7792 139.957C30.1915 140.673 30.298 141.727 30.1231 142.686L32.3194 143.049C32.6417 141.617 32.3511 140.103 31.6732 138.926Z" fill="#D9D5CE"/>
<path d="M26.5011 127.896C26.0059 126.631 25.1002 125.739 23.8275 125.292L22.8482 127.091C23.5219 127.353 24.1578 127.825 24.459 128.594C24.995 129.962 24.2217 131.29 22.2935 132.048C20.4044 132.791 18.8807 132.202 18.3906 130.951C18.1201 130.26 18.2337 129.628 18.4877 128.972L16.5227 128.331C16.1055 129.262 15.9174 130.509 16.4126 131.774C17.3774 134.238 20.0749 135.674 23.3059 134.403C26.589 133.112 27.4659 130.36 26.5011 127.896Z" fill="#D9D5CE"/>
<path d="M15.2438 120.666L14.9951 119.574C14.7309 118.414 14.9049 117.728 15.8602 117.51C16.8155 117.291 17.4604 117.79 17.7246 118.95L17.9733 120.042L15.2438 120.666ZM22.1583 113.01L18.6483 116.197C17.9176 115.258 16.8038 114.78 15.3162 115.121C12.8596 115.683 12.533 117.653 13.0273 119.824L13.876 123.55L24.0297 121.227L23.4732 118.784L19.8976 119.602L19.6302 118.428L22.78 115.74L22.1583 113.01Z" fill="#D9D5CE"/>
<path d="M21.6392 105.886C21.4273 103.051 19.245 101.278 15.8386 101.534C12.4462 101.789 10.6497 103.861 10.8616 106.695C11.0735 109.529 13.1441 111.311 16.5505 111.055C19.9569 110.799 21.8511 108.72 21.6392 105.886ZM19.4893 106.047C19.5916 107.415 18.3838 108.348 16.3595 108.5C14.3492 108.651 13.0999 107.903 12.9976 106.535C12.8953 105.166 14.0183 104.226 16.0286 104.075C18.0529 103.923 19.387 104.679 19.4893 106.047Z" fill="#D9D5CE"/>
<path d="M21.264 96.5041L21.7525 89.9703L19.6584 89.813L19.3567 93.8478L11.0641 93.2249L10.8772 95.7239L21.264 96.5041Z" fill="#D9D5CE"/>
<path d="M22.6611 84.7819L24.116 78.3935L22.0689 77.9252L21.1705 81.8702L13.0639 80.0158L12.5074 82.4592L22.6611 84.7819Z" fill="#D9D5CE"/>
<path d="M31.4202 61.1206L32.6711 58.9491L25.449 54.7701L26.8606 52.3196L25.0672 51.2819L21.0001 58.3422L22.7935 59.38L24.1981 56.9416L31.4202 61.1206Z" fill="#D9D5CE"/>
<path d="M38.5484 50.8849C40.318 48.661 39.9242 45.873 37.2558 43.7403C34.5983 41.6163 31.8753 41.9131 30.1058 44.137C28.3362 46.3609 28.6425 49.079 31.3109 51.2117C33.9793 53.3445 36.7789 53.1088 38.5484 50.8849ZM36.8643 49.5388C36.01 50.6124 34.4918 50.4743 32.9061 49.2069C31.3313 47.9482 30.9247 46.548 31.779 45.4744C32.6332 44.4008 34.0945 44.4755 35.6693 45.7341C37.2551 47.0015 37.7185 48.4652 36.8643 49.5388Z" fill="#D9D5CE"/>
<path d="M55.0305 35.1323L57.0996 33.7184L52.4064 26.8194L54.7413 25.2239L53.5759 23.5107L46.8485 28.1077L48.0139 29.8209L50.3373 28.2332L55.0305 35.1323Z" fill="#D9D5CE"/>
<path d="M65.8877 29.0089C68.4472 27.7736 69.3019 25.0914 67.8224 22.0124C66.349 18.9461 63.7663 18.0318 61.2068 19.2672C58.6474 20.5025 57.7442 23.0837 59.2236 26.1627C60.7031 29.2417 63.3283 30.2443 65.8877 29.0089ZM64.954 27.0656C63.7184 27.662 62.4101 26.8788 61.5309 25.0491C60.6578 23.232 60.8989 21.7942 62.1345 21.1978C63.3701 20.6015 64.6546 21.3029 65.5277 23.12C66.4069 24.9497 66.1896 26.4693 64.954 27.0656Z" fill="#D9D5CE"/>
<path d="M73.3267 25.5774L75.7209 24.8372L74.7038 21.5322L75.8674 21.1725C77.9674 20.5233 79.4786 18.9131 78.7497 16.5447C77.9919 14.0827 75.9474 13.8649 73.7538 14.543L70.2628 15.6222L73.3267 25.5774ZM74.1231 19.6456L73.2377 16.7687L74.2141 16.4669C75.3644 16.1113 76.1135 16.2607 76.4223 17.2642C76.723 18.241 76.33 18.9633 75.1664 19.323L74.1231 19.6456Z" fill="#D9D5CE"/>
</svg>
