<svg width="160" height="160" viewBox="0 0 160 160" fill="none" xmlns="http://www.w3.org/2000/svg">
<path d="M80.4251 21.14C82.2251 21.14 83.2651 20.05 83.2651 18.81C83.2651 17.76 82.7151 17.14 81.7951 16.77L80.8651 16.4C80.2051 16.14 79.7351 15.98 79.7351 15.57C79.7351 15.17 80.0751 14.95 80.6251 14.95C81.2051 14.95 81.6651 15.15 82.1551 15.52L83.0451 14.4C82.3951 13.75 81.4851 13.42 80.6251 13.42C79.0451 13.42 77.9251 14.42 77.9251 15.67C77.9251 16.75 78.6551 17.4 79.4351 17.71L80.3851 18.11C81.0251 18.38 81.4351 18.52 81.4351 18.95C81.4351 19.35 81.1251 19.6 80.4651 19.6C79.8751 19.6 79.1851 19.29 78.6551 18.84L77.6451 20.07C78.4151 20.78 79.4551 21.14 80.4251 21.14Z" fill="#D9D5CE"/>
<path d="M89.4136 21.8963C90.3728 22.0408 91.2487 21.7987 91.9804 21.1707L91.2178 19.9231C90.8151 20.2467 90.2958 20.4718 89.7124 20.3839C88.6741 20.2274 88.1299 19.2757 88.3504 17.8122C88.5665 16.3784 89.4759 15.6457 90.4252 15.7888C90.9493 15.8678 91.2991 16.1633 91.6143 16.5546L92.7137 15.5674C92.2869 14.9772 91.5827 14.416 90.6235 14.2714C88.7547 13.9897 86.9016 15.1465 86.5319 17.5988C86.1563 20.0906 87.5447 21.6146 89.4136 21.8963Z" fill="#D9D5CE"/>
<path d="M98.274 17.5995L99.0383 17.8358C99.8504 18.0869 100.213 18.4396 100.007 19.1087C99.8008 19.7777 99.2621 19.9984 98.45 19.7473L97.6857 19.5111L98.274 17.5995ZM100.542 24.6121L99.8233 21.3024C100.665 21.1857 101.358 20.6673 101.679 19.6255C102.208 17.9052 101.106 16.9992 99.5868 16.5296L96.9786 15.7232L94.7901 22.8341L96.5002 23.3628L97.2709 20.8587L98.0925 21.1127L98.6307 24.0214L100.542 24.6121Z" fill="#D9D5CE"/>
<path d="M105.477 26.977C107.305 27.8594 109.18 27.1433 110.237 24.944C111.289 22.7537 110.648 20.901 108.82 20.0186C106.992 19.1362 105.152 19.7802 104.095 21.9795C103.038 24.1788 103.649 26.0946 105.477 26.977ZM106.144 25.5889C105.261 25.163 105.115 24.0819 105.743 22.775C106.367 21.477 107.275 20.9717 108.158 21.3977C109.04 21.8237 109.221 22.855 108.598 24.1529C107.97 25.4598 107.026 26.0149 106.144 25.5889Z" fill="#D9D5CE"/>
<path d="M111.771 30.3197L115.635 32.96L116.479 31.7198L114.092 30.0893L117.433 25.178L115.955 24.1681L111.771 30.3197Z" fill="#D9D5CE"/>
<path d="M118.8 35.6256L122.227 38.8126L123.246 37.7119L121.13 35.7438L125.165 31.385L123.854 30.166L118.8 35.6256Z" fill="#D9D5CE"/>
<path d="M130.726 50.1288L131.62 51.6799L136.778 48.6948L137.787 50.4452L139.068 49.704L136.163 44.6609L134.882 45.4021L135.885 47.1438L130.726 50.1288Z" fill="#D9D5CE"/>
<path d="M134.63 58.5105C135.371 60.4007 137.232 61.1512 139.503 60.2581C141.764 59.3686 142.555 57.5748 141.815 55.6845C141.074 53.7943 139.287 53.0145 137.016 53.9076C134.746 54.8008 133.89 56.6202 134.63 58.5105ZM136.063 57.9467C135.706 57.0342 136.334 56.1424 137.684 55.6116C139.024 55.0845 140.033 55.3321 140.391 56.2446C140.748 57.1571 140.179 58.0363 138.839 58.5634C137.49 59.0942 136.421 58.8593 136.063 57.9467Z" fill="#D9D5CE"/>
<path d="M138.623 75.1472L138.757 76.9323L144.7 76.4859L144.851 78.5003L146.326 78.3894L145.892 72.5856L144.417 72.6965L144.566 74.7009L138.623 75.1472Z" fill="#D9D5CE"/>
<path d="M138.517 84.3948C138.366 86.4191 139.719 87.9046 142.152 88.0874C144.575 88.2694 146.064 86.9973 146.216 84.973C146.367 82.9486 145.094 81.4691 142.661 81.2864C140.227 81.1036 138.669 82.3704 138.517 84.3948ZM140.053 84.5101C140.126 83.5329 141.078 83.0027 142.524 83.1113C143.96 83.2191 144.763 83.8811 144.69 84.8584C144.617 85.8357 143.724 86.3803 142.288 86.2725C140.842 86.1639 139.98 85.4874 140.053 84.5101Z" fill="#D9D5CE"/>
<path d="M137.92 90.6103L137.522 92.3556L139.93 92.9064L139.737 93.7547C139.388 95.2855 139.844 96.7953 141.57 97.19C143.363 97.6003 144.229 96.4133 144.593 94.8143L145.172 92.2694L137.92 90.6103ZM141.304 93.2209L143.4 93.7003L143.238 94.4121C143.047 95.2506 142.687 95.6607 141.956 95.4934C141.244 95.3306 140.938 94.8297 141.131 93.9814L141.304 93.2209Z" fill="#D9D5CE"/>
<path d="M130.617 109.782C129.719 111.341 130.143 112.788 131.216 113.409C132.125 113.935 132.936 113.769 133.716 113.157L134.5 112.537C135.055 112.095 135.428 111.768 135.783 111.973C136.129 112.174 136.149 112.578 135.875 113.055C135.585 113.558 135.183 113.856 134.618 114.095L135.143 115.427C136.03 115.19 136.77 114.566 137.199 113.821C137.988 112.452 137.681 110.981 136.6 110.355C135.665 109.814 134.738 110.121 134.08 110.642L133.26 111.264C132.706 111.684 132.381 111.969 132.008 111.754C131.662 111.553 131.601 111.159 131.93 110.587C132.225 110.076 132.837 109.634 133.491 109.4L132.931 107.909C131.932 108.22 131.101 108.941 130.617 109.782Z" fill="#D9D5CE"/>
<path d="M125.472 117.208C124.868 117.967 124.641 118.848 124.819 119.796L126.279 119.76C126.2 119.249 126.264 118.686 126.632 118.224C127.286 117.403 128.381 117.408 129.537 118.332C130.67 119.237 130.849 120.392 130.252 121.143C129.922 121.558 129.491 121.713 128.995 121.791L129.301 123.238C130.024 123.164 130.862 122.834 131.466 122.075C132.642 120.596 132.567 118.411 130.629 116.862C128.661 115.289 126.649 115.729 125.472 117.208Z" fill="#D9D5CE"/>
<path d="M124.774 127.053L124.188 127.597C123.565 128.176 123.08 128.314 122.604 127.8C122.129 127.287 122.207 126.709 122.829 126.13L123.415 125.585L124.774 127.053ZM117.58 125.508L120.799 126.543C120.48 127.331 120.582 128.192 121.323 128.992C122.545 130.313 123.879 129.81 125.043 128.727L127.042 126.868L121.988 121.409L120.677 122.628L122.457 124.55L121.827 125.136L119.044 124.146L117.58 125.508Z" fill="#D9D5CE"/>
<path d="M113.075 128.619C111.399 129.765 111.081 131.75 112.453 133.768C113.82 135.777 115.741 136.148 117.417 135.002C119.093 133.857 119.457 131.938 118.084 129.92C116.712 127.903 114.751 127.474 113.075 128.619ZM113.941 129.893C114.75 129.34 115.758 129.754 116.573 130.953C117.383 132.143 117.366 133.184 116.557 133.737C115.748 134.29 114.766 133.932 113.956 132.741C113.14 131.542 113.132 130.446 113.941 129.893Z" fill="#D9D5CE"/>
<path d="M107.046 132.422L102.832 134.456L103.481 135.808L106.084 134.552L108.656 139.906L110.269 139.128L107.046 132.422Z" fill="#D9D5CE"/>
<path d="M98.9509 135.88L94.4797 137.262L94.9209 138.696L97.682 137.842L99.4293 143.52L101.139 142.991L98.9509 135.88Z" fill="#D9D5CE"/>
<path d="M80.4497 139H78.6597V144.96H76.6397V146.44H82.4597V144.96H80.4497V139Z" fill="#D9D5CE"/>
<path d="M71.2477 138.202C69.2405 137.899 67.6589 139.137 67.296 141.55C66.9346 143.953 68.0924 145.533 70.0997 145.836C72.1069 146.14 73.6766 144.981 74.0395 142.568C74.4024 140.155 73.255 138.505 71.2477 138.202ZM71.0187 139.725C71.9877 139.871 72.4457 140.861 72.23 142.295C72.0159 143.719 71.2962 144.47 70.3272 144.323C69.3582 144.177 68.8814 143.245 69.0956 141.821C69.3112 140.388 70.0497 139.579 71.0187 139.725Z" fill="#D9D5CE"/>
<path d="M54.8669 133.345L53.2548 132.566L50.6736 137.939L48.8544 137.06L48.2134 138.394L53.4548 140.924L54.0958 139.59L52.2856 138.717L54.8669 133.345Z" fill="#D9D5CE"/>
<path d="M46.9262 128.62C45.2502 127.475 43.2896 127.903 41.9172 129.921C40.5504 131.93 40.908 133.858 42.584 135.003C44.2601 136.148 46.1757 135.786 47.5481 133.768C48.9205 131.751 48.6023 129.765 46.9262 128.62ZM46.06 129.893C46.8692 130.446 46.8527 131.537 46.0372 132.736C45.2272 133.927 44.2537 134.291 43.4446 133.738C42.6355 133.185 42.6099 132.138 43.4198 130.947C44.2354 129.749 45.2509 129.34 46.06 129.893Z" fill="#D9D5CE"/>
<path d="M41.8582 124.986L40.5474 123.767L38.8694 125.58L38.2323 124.987C37.0826 123.918 35.5495 123.558 34.347 124.857C33.097 126.207 33.6916 127.552 34.8925 128.669L36.8038 130.446L41.8582 124.986ZM37.9115 126.615L36.4509 128.192L35.9163 127.695C35.2866 127.109 35.1117 126.592 35.6212 126.041C36.1171 125.506 36.7032 125.491 37.3403 126.083L37.9115 126.615Z" fill="#D9D5CE"/>
<path d="M28.9582 109.043C28.0597 107.483 26.5972 107.128 25.5239 107.749C24.6151 108.275 24.353 109.062 24.492 110.045L24.6359 111.036C24.7403 111.738 24.8365 112.225 24.4816 112.431C24.1354 112.631 23.7752 112.447 23.5007 111.97C23.2112 111.467 23.1547 110.969 23.2303 110.359L21.8167 110.149C21.5785 111.037 21.7471 111.991 22.1764 112.736C22.9651 114.105 24.3897 114.575 25.4716 113.949C26.4064 113.408 26.6046 112.45 26.4836 111.619L26.3556 110.595C26.2698 109.906 26.1863 109.48 26.5585 109.265C26.9047 109.064 27.2759 109.208 27.6053 109.78C27.8998 110.291 27.9759 111.044 27.851 111.729L29.4198 111.988C29.6499 110.965 29.4424 109.884 28.9582 109.043Z" fill="#D9D5CE"/>
<path d="M25.1233 100.861C24.7696 99.9577 24.1226 99.3203 23.2136 99.0009L22.5141 100.286C22.9953 100.473 23.4495 100.81 23.6646 101.359C24.0475 102.337 23.4952 103.285 22.1179 103.827C20.7685 104.358 19.6801 103.937 19.3301 103.043C19.1368 102.549 19.218 102.098 19.3995 101.629L17.9958 101.171C17.6979 101.837 17.5635 102.728 17.9172 103.631C18.6064 105.391 20.5331 106.417 22.841 105.509C25.1861 104.587 25.8124 102.621 25.1233 100.861Z" fill="#D9D5CE"/>
<path d="M16.971 95.3311L16.7934 94.5511C16.6047 93.7223 16.729 93.2322 17.4113 93.0762C18.0937 92.9201 18.5543 93.2763 18.743 94.1051L18.9207 94.8851L16.971 95.3311ZM21.9099 89.8621L19.4028 92.1384C18.8809 91.4679 18.0853 91.1268 17.0227 91.3698C15.2681 91.7712 15.0348 93.1787 15.3878 94.729L15.994 97.3908L23.2467 95.7318L22.8492 93.9865L20.2952 94.5707L20.1042 93.7322L22.354 91.8121L21.9099 89.8621Z" fill="#D9D5CE"/>
<path d="M21.4827 84.3951C21.3314 82.3708 19.7726 81.104 17.3394 81.2867C14.9163 81.4687 13.6331 82.949 13.7844 84.9733C13.9358 86.9977 15.4148 88.2705 17.848 88.0877C20.2811 87.905 21.6341 86.4195 21.4827 84.3951ZM19.9471 84.5105C20.0201 85.4877 19.1574 86.1542 17.7115 86.2628C16.2755 86.3707 15.3832 85.836 15.3101 84.8587C15.237 83.8815 16.0392 83.2095 17.4751 83.1016C18.9211 82.993 19.874 83.5332 19.9471 84.5105Z" fill="#D9D5CE"/>
<path d="M21.2181 77.2639L21.567 72.5969L20.0713 72.4845L19.8558 75.3665L13.9324 74.9216L13.799 76.7066L21.2181 77.2639Z" fill="#D9D5CE"/>
<path d="M22.2796 68.5137L23.3188 63.9506L21.8566 63.6161L21.2149 66.4339L15.4244 65.1093L15.027 66.8547L22.2796 68.5137Z" fill="#D9D5CE"/>
<path d="M28.825 50.9066L29.7185 49.3555L24.5599 46.3705L25.5682 44.6202L24.2872 43.8789L21.3821 48.922L22.6631 49.6633L23.6664 47.9216L28.825 50.9066Z" fill="#D9D5CE"/>
<path d="M34.1065 43.3194C35.3705 41.7309 35.0892 39.7395 33.1832 38.2161C31.285 36.699 29.34 36.911 28.076 38.4995C26.8121 40.088 27.0308 42.0295 28.9368 43.5529C30.8428 45.0762 32.8426 44.9079 34.1065 43.3194ZM32.9035 42.3579C32.2934 43.1248 31.2089 43.0262 30.0763 42.1209C28.9514 41.2218 28.661 40.2216 29.2712 39.4547C29.8814 38.6879 30.9252 38.7412 32.05 39.6403C33.1827 40.5456 33.5137 41.5911 32.9035 42.3579Z" fill="#D9D5CE"/>
<path d="M46.4759 31.5178L47.9538 30.5079L44.6016 25.58L46.2694 24.4404L45.4369 23.2167L40.6317 26.5002L41.4641 27.7239L43.1237 26.5899L46.4759 31.5178Z" fill="#D9D5CE"/>
<path d="M54.5219 26.9776C56.3501 26.0952 56.9606 24.1794 55.9038 21.9801C54.8514 19.7898 53.0066 19.1368 51.1784 20.0191C49.3502 20.9015 48.7051 22.7452 49.7618 24.9445C50.8186 27.1438 52.6937 27.8599 54.5219 26.9776ZM53.8549 25.5895C52.9723 26.0155 52.0379 25.456 51.4099 24.1491C50.7862 22.8511 50.9584 21.8242 51.841 21.3982C52.7236 20.9722 53.6411 21.4732 54.2647 22.7712C54.8927 24.0781 54.7375 25.1635 53.8549 25.5895Z" fill="#D9D5CE"/>
<path d="M60.1915 24.3849L61.9016 23.8562L61.1751 21.4955L62.0063 21.2386C63.5062 20.7748 64.5857 19.6247 64.065 17.933C63.5238 16.1744 62.0634 16.0188 60.4965 16.5032L58.003 17.2741L60.1915 24.3849ZM60.7603 20.1479L60.1279 18.093L60.8253 17.8774C61.6469 17.6234 62.182 17.7301 62.4026 18.4469C62.6174 19.1446 62.3367 19.6606 61.5055 19.9175L60.7603 20.1479Z" fill="#D9D5CE"/>
</svg>
