<svg width="160" height="160" viewBox="0 0 160 160" fill="none" xmlns="http://www.w3.org/2000/svg">
<path d="M80.4818 13.14C82.2818 13.14 83.3218 12.05 83.3218 10.81C83.3218 9.76 82.7718 9.14 81.8518 8.77L80.9218 8.4C80.2618 8.14 79.7918 7.98 79.7918 7.57C79.7918 7.17 80.1318 6.95 80.6818 6.95C81.2618 6.95 81.7218 7.15 82.2118 7.52L83.1018 6.4C82.4518 5.75 81.5418 5.42 80.6818 5.42C79.1018 5.42 77.9818 6.42 77.9818 7.67C77.9818 8.75 78.7118 9.4 79.4918 9.71L80.4418 10.11C81.0818 10.38 81.4918 10.52 81.4918 10.95C81.4918 11.35 81.1818 11.6 80.5218 11.6C79.9318 11.6 79.2418 11.29 78.7118 10.84L77.7018 12.07C78.4718 12.78 79.5118 13.14 80.4818 13.14Z" fill="#D9D5CE"/>
<path d="M92.5762 14.3322C93.5307 14.5054 94.4134 14.2895 95.1636 13.6838L94.4387 12.4139C94.0265 12.7253 93.5006 12.9348 92.9201 12.8294C91.887 12.6419 91.3715 11.6743 91.6357 10.2181C91.8946 8.79144 92.8255 8.08632 93.7701 8.25773C94.2915 8.35237 94.6324 8.65815 94.9358 9.05875L96.0642 8.10491C95.6553 7.5022 94.9682 6.92016 94.0137 6.74696C92.1541 6.40949 90.2672 7.51026 89.8244 9.95041C89.3745 12.4299 90.7166 13.9947 92.5762 14.3322Z" fill="#D9D5CE"/>
<path d="M104.777 11.3066L105.526 11.5878C106.322 11.8866 106.662 12.2601 106.416 12.9155C106.171 13.5709 105.619 13.7592 104.824 13.4604L104.075 13.1792L104.777 11.3066ZM106.619 18.4393L106.101 15.0937C106.949 15.0273 107.672 14.5512 108.055 13.5307C108.687 11.8453 107.641 10.8758 106.152 10.3169L103.597 9.35723L100.983 16.3232L102.659 16.9524L103.579 14.4993L104.384 14.8016L104.747 17.7363L106.619 18.4393Z" fill="#D9D5CE"/>
<path d="M114.219 22.5893C115.961 23.6308 117.895 23.0854 119.146 20.9905C120.392 18.9042 119.92 17.0028 118.177 15.9613C116.435 14.9198 114.543 15.3965 113.292 17.4914C112.041 19.5863 112.477 21.5478 114.219 22.5893ZM115.009 21.2671C114.167 20.7643 114.119 19.6752 114.862 18.4303C115.601 17.194 116.552 16.7721 117.393 17.2749C118.234 17.7777 118.322 18.8204 117.583 20.0567C116.84 21.3016 115.85 21.7699 115.009 21.2671Z" fill="#D9D5CE"/>
<path d="M122.77 28.4543L126.293 31.5343L127.28 30.4044L125.104 28.5025L129.011 24.0284L127.663 22.8504L122.77 28.4543Z" fill="#D9D5CE"/>
<path d="M131.262 36.922L134.179 40.5815L135.351 39.6461L133.55 37.3862L138.193 33.6817L137.077 32.2819L131.262 36.922Z" fill="#D9D5CE"/>
<path d="M143.598 59.7233C144.154 61.4352 145.512 62.0874 146.691 61.7041C147.69 61.3795 148.109 60.6647 148.177 59.6753L148.242 58.6764C148.285 57.9683 148.292 57.4718 148.682 57.3451C149.062 57.2214 149.377 57.4768 149.546 57.9999C149.726 58.5515 149.677 59.0509 149.477 59.6313L150.817 60.1315C151.234 59.3124 151.267 58.3449 151.001 57.5269C150.513 56.0242 149.216 55.2681 148.028 55.6545C147.001 55.9884 146.608 56.8836 146.554 57.7213L146.467 58.7485C146.408 59.4407 146.401 59.8739 145.993 60.0069C145.612 60.1305 145.279 59.913 145.075 59.2852C144.893 58.7241 144.974 57.972 145.238 57.3288L143.757 56.7484C143.319 57.7003 143.298 58.8007 143.598 59.7233Z" fill="#D9D5CE"/>
<path d="M146.201 71.5983C146.331 72.5596 146.809 73.3324 147.617 73.8586L148.6 72.7767C148.177 72.4809 147.815 72.0455 147.736 71.4609C147.595 70.4204 148.356 69.631 149.823 69.4323C151.26 69.2376 152.218 69.9049 152.347 70.8562C152.418 71.3815 152.232 71.8002 151.945 72.2125L153.201 72.9909C153.648 72.4157 153.989 71.5823 153.859 70.6211C153.605 68.7481 151.975 67.2938 149.518 67.6269C147.021 67.9653 145.947 69.7254 146.201 71.5983Z" fill="#D9D5CE"/>
<path d="M152.85 82.2711L152.814 83.0703C152.776 83.9194 152.526 84.3586 151.827 84.3272C151.127 84.2958 150.778 83.8296 150.816 82.9805L150.852 82.1813L152.85 82.2711ZM146.636 86.2262L149.658 84.7002C149.983 85.4856 150.659 86.0265 151.748 86.0754C153.546 86.1562 154.145 84.8618 154.216 83.2734L154.339 80.5461L146.906 80.2122L146.826 82.0004L149.443 82.118L149.405 82.9771L146.726 84.2282L146.636 86.2262Z" fill="#D9D5CE"/>
<path d="M145.041 94.7401C144.59 96.7192 145.706 98.3897 148.085 98.9329C150.454 99.4738 152.116 98.4378 152.568 96.4587C153.019 94.4795 151.981 92.8269 149.602 92.2837C147.223 91.7405 145.493 92.7609 145.041 94.7401ZM146.543 95.0829C146.761 94.1275 147.781 93.7451 149.195 94.0679C150.599 94.3884 151.294 95.1626 151.076 96.1181C150.858 97.0735 149.894 97.479 148.49 97.1585C147.076 96.8357 146.325 96.0384 146.543 95.0829Z" fill="#D9D5CE"/>
<path d="M142.11 104.688L140.272 108.992L141.651 109.582L142.786 106.924L148.248 109.26L148.951 107.614L142.11 104.688Z" fill="#D9D5CE"/>
<path d="M136.687 115.385L134.109 119.291L135.361 120.118L136.953 117.706L141.909 120.979L142.895 119.485L136.687 115.385Z" fill="#D9D5CE"/>
<path d="M118.825 134.172C117.369 135.23 117.169 136.724 117.897 137.727C118.514 138.577 119.324 138.755 120.285 138.513L121.255 138.266C121.941 138.088 122.416 137.942 122.657 138.273C122.892 138.597 122.746 138.975 122.301 139.298C121.832 139.639 121.342 139.748 120.728 139.737L120.667 141.166C121.574 141.31 122.504 141.042 123.2 140.536C124.478 139.607 124.796 138.14 124.062 137.128C123.427 136.254 122.455 136.158 121.642 136.365L120.638 136.6C119.962 136.758 119.548 136.886 119.295 136.538C119.06 136.214 119.164 135.83 119.698 135.442C120.175 135.095 120.916 134.94 121.609 134.992L121.703 133.403C120.663 133.282 119.61 133.602 118.825 134.172Z" fill="#D9D5CE"/>
<path d="M108.34 140.319C107.466 140.74 106.879 141.434 106.628 142.365L107.96 142.967C108.111 142.472 108.413 141.994 108.945 141.737C109.891 141.282 110.876 141.761 111.518 143.095C112.147 144.402 111.808 145.519 110.944 145.936C110.466 146.166 110.011 146.119 109.53 145.973L109.177 147.408C109.862 147.656 110.76 147.723 111.634 147.302C113.337 146.481 114.216 144.481 113.141 142.247C112.048 139.976 110.043 139.499 108.34 140.319Z" fill="#D9D5CE"/>
<path d="M100.248 149.943L99.4773 150.156C98.658 150.382 98.1631 150.28 97.9769 149.605C97.7908 148.931 98.1261 148.454 98.9455 148.228L99.7166 148.015L100.248 149.943ZM94.5675 145.256L96.9521 147.658C96.3056 148.21 96.0002 149.02 96.29 150.071C96.7687 151.806 98.1847 151.976 99.7173 151.552L102.349 150.826L100.37 143.654L98.6449 144.13L99.3417 146.656L98.5127 146.885L96.4954 144.724L94.5675 145.256Z" fill="#D9D5CE"/>
<path d="M85.9811 146.369C83.9593 146.551 82.7157 148.129 82.9343 150.559C83.152 152.979 84.651 154.24 86.6728 154.058C88.6947 153.876 89.9454 152.377 89.7268 149.947C89.5082 147.517 88.0029 146.187 85.9811 146.369ZM86.1191 147.903C87.0952 147.815 87.7743 148.667 87.9042 150.111C88.0332 151.546 87.5118 152.446 86.5357 152.534C85.5597 152.622 84.876 151.83 84.747 150.396C84.6171 148.952 85.1431 147.99 86.1191 147.903Z" fill="#D9D5CE"/>
<path d="M75.6182 146.654L70.9571 146.234L70.8227 147.728L73.701 147.987L73.1688 153.903L74.9516 154.064L75.6182 146.654Z" fill="#D9D5CE"/>
<path d="M63.7725 144.798L59.2613 143.552L58.8624 144.998L61.6481 145.767L60.0685 151.493L61.794 151.97L63.7725 144.798Z" fill="#D9D5CE"/>
<path d="M40.3945 133.605C38.9385 132.546 37.4567 132.817 36.7281 133.82C36.1111 134.67 36.1916 135.495 36.7184 136.335L37.2533 137.181C37.6343 137.78 37.9205 138.186 37.6796 138.517C37.4445 138.841 37.0402 138.819 36.5954 138.496C36.1262 138.155 35.8716 137.722 35.6927 137.135L34.3146 137.518C34.4585 138.426 35.0006 139.228 35.6963 139.734C36.9744 140.663 38.4679 140.512 39.2024 139.501C39.8371 138.627 39.6285 137.672 39.1798 136.962L38.6464 136.08C38.2873 135.485 38.0379 135.131 38.2906 134.783C38.5257 134.459 38.9233 134.439 39.4572 134.827C39.9344 135.174 40.3104 135.831 40.4747 136.506L42.0144 136.105C41.8088 135.078 41.1791 134.175 40.3945 133.605Z" fill="#D9D5CE"/>
<path d="M31.3111 125.527C30.641 124.825 29.8001 124.481 28.8373 124.53L28.6774 125.984C29.1938 125.974 29.7423 126.114 30.1499 126.541C30.8754 127.3 30.7237 128.386 29.6542 129.409C28.6064 130.411 27.4391 130.434 26.7758 129.74C26.4096 129.357 26.3136 128.909 26.3037 128.407L24.8304 128.515C24.807 129.243 25.0207 130.118 25.6909 130.819C26.9967 132.186 29.1697 132.404 30.9619 130.69C32.783 128.948 32.6169 126.893 31.3111 125.527Z" fill="#D9D5CE"/>
<path d="M19.662 120.802L19.2214 120.134C18.7533 119.425 18.6974 118.922 19.2815 118.536C19.8656 118.151 20.4222 118.322 20.8903 119.032L21.3309 119.7L19.662 120.802ZM22.3642 113.948L20.8168 116.959C20.0923 116.515 19.2273 116.475 18.3178 117.076C16.8157 118.068 17.0921 119.467 17.9677 120.794L19.4712 123.073L25.6796 118.973L24.6938 117.479L22.5075 118.923L22.0339 118.205L23.4657 115.618L22.3642 113.948Z" fill="#D9D5CE"/>
<path d="M18.654 106.121C17.8564 104.255 15.9718 103.56 13.7283 104.519C11.494 105.474 10.7581 107.29 11.5557 109.157C12.3532 111.023 14.1643 111.75 16.4078 110.79C18.6513 109.831 19.4515 107.988 18.654 106.121ZM17.238 106.727C17.623 107.628 17.022 108.538 15.6888 109.108C14.3648 109.674 13.3475 109.456 12.9625 108.555C12.5775 107.654 13.1193 106.759 14.4434 106.193C15.7766 105.622 16.853 105.826 17.238 106.727Z" fill="#D9D5CE"/>
<path d="M15.1818 96.3491L14.1408 91.7863L12.6785 92.1202L13.3213 94.9378L7.53032 96.2601L7.92847 98.0053L15.1818 96.3491Z" fill="#D9D5CE"/>
<path d="M13.2863 84.5054L13.0764 79.8301L11.5779 79.8974L11.7075 82.7845L5.77348 83.0511L5.85375 84.8393L13.2863 84.5054Z" fill="#D9D5CE"/>
<path d="M16.6997 58.8057C17.2557 57.0937 16.5403 55.7676 15.3611 55.3843C14.3625 55.0597 13.603 55.3911 12.9669 56.1518L12.3278 56.9219C11.8766 57.4693 11.5793 57.8668 11.1894 57.7401C10.809 57.6164 10.7048 57.225 10.8747 56.7019C11.0538 56.1503 11.3861 55.7746 11.8894 55.423L11.0991 54.2302C10.2802 54.6475 9.68526 55.411 9.41961 56.2289C8.93156 57.7317 9.53661 59.106 10.7254 59.4925C11.7525 59.8263 12.5961 59.333 13.1319 58.687L13.8057 57.9071C14.2602 57.3818 14.52 57.0352 14.9289 57.1681C15.3093 57.2917 15.4513 57.6639 15.2475 58.2916C15.0652 58.8527 14.5573 59.4132 13.9656 59.7781L14.8234 61.119C15.7364 60.6061 16.4001 59.7283 16.6997 58.8057Z" fill="#D9D5CE"/>
<path d="M21.5707 47.6661C22.0302 46.8119 22.0976 45.9055 21.7533 45.0046L20.3218 45.3015C20.4906 45.7899 20.5274 46.3549 20.2479 46.8745C19.7505 47.7992 18.6712 47.9904 17.368 47.2888C16.0913 46.6015 15.7083 45.4981 16.163 44.6526C16.4141 44.1858 16.8102 43.9561 17.2848 43.7915L16.7263 42.4232C16.0268 42.6259 15.2611 43.0995 14.8016 43.9538C13.9063 45.6182 14.3703 47.7533 16.554 48.9289C18.7728 50.1235 20.6754 49.3306 21.5707 47.6661Z" fill="#D9D5CE"/>
<path d="M22.4613 35.122L22.96 34.4964C23.4898 33.8317 23.9501 33.6233 24.4973 34.0598C25.0444 34.4964 25.0532 35.079 24.5234 35.7437L24.0247 36.3693L22.4613 35.122ZM29.8116 35.5749L26.4709 35.0332C26.6694 34.2065 26.4401 33.3712 25.5881 32.6914C24.181 31.5688 22.9361 32.2642 21.945 33.5075L20.2434 35.6423L26.0592 40.2823L27.1749 38.8826L25.1269 37.2486L25.6629 36.5761L28.5649 37.1388L29.8116 35.5749Z" fill="#D9D5CE"/>
<path d="M36.1035 29.6244C37.6319 28.2884 37.7106 26.2806 36.1056 24.4427C34.5072 22.6124 32.5539 22.4736 31.0255 23.8096C29.497 25.1455 29.3657 27.0931 30.9707 28.931C32.5756 30.7688 34.575 30.9603 36.1035 29.6244ZM35.0905 28.4644C34.3526 29.1094 33.3023 28.8188 32.3485 27.7266C31.4013 26.642 31.294 25.6069 32.0319 24.962C32.7697 24.317 33.7881 24.5558 34.7353 25.6405C35.6891 26.7326 35.8284 27.8195 35.0905 28.4644Z" fill="#D9D5CE"/>
<path d="M44.3199 23.2999L48.337 20.8987L47.5679 19.6109L45.0873 21.0936L42.0417 15.9939L40.5052 16.9123L44.3199 23.2999Z" fill="#D9D5CE"/>
<path d="M54.9926 17.8343L59.3739 16.1892L58.8471 14.7848L56.1415 15.8006L54.0551 10.2391L52.3794 10.8683L54.9926 17.8343Z" fill="#D9D5CE"/>
</svg>
