<?xml version="1.0" standalone="no"?>
<!DOCTYPE svg PUBLIC "-//W3C//DTD SVG 1.1//EN" "http://www.w3.org/Graphics/SVG/1.1/DTD/svg11.dtd" >
<svg xmlns="http://www.w3.org/2000/svg" xmlns:xlink="http://www.w3.org/1999/xlink" version="1.1">
<metadata>
Created by FontForge 20170731 at Wed Oct 20 10:52:52 2021
 By Aleksey,,,
Copyright (c) 2021 by Great Studio. All rights reserved.
</metadata>
<defs>
<font id="Mollieglaston" horiz-adv-x="1075" >
  <font-face 
    font-family="Mollie glaston"
    font-weight="400"
    font-stretch="normal"
    units-per-em="2048"
    panose-1="2 0 5 3 0 0 0 2 0 4"
    ascent="1638"
    descent="-410"
    x-height="930"
    cap-height="1434"
    bbox="-139 -559 2763 1802"
    underline-thickness="102"
    underline-position="-358"
    unicode-range="U+000D-FB06"
  />
<missing-glyph horiz-adv-x="512" 
 />
    <glyph glyph-name="a_m" unicode="am" horiz-adv-x="2736" 
d="M158 383q15 12 30 23t31.5 21t29 17.5t31.5 17t28 14.5t30.5 14t28 12t30 12.5t27.5 11.5q140 57 192.5 107.5t51.5 144.5q-2 76 -57 121t-162 31q-95 -13 -187.5 -96.5t-167.5 -210.5v168q58 75 156.5 115.5t200.5 43.5q356 10 356 -325v-379q59 37 160.5 132t150.5 159
v188q0 46 -10.5 59t-58.5 13h-11v4l222 129h12v-162q122 182 309 182q107 0 192 -40.5t121 -129.5q103 170 338 170q94 0 166 -28t118.5 -92.5t47.5 -159.5l6 -539q2 -51 25.5 -88t70.5 -37v-6h-342v6q50 0 71.5 36t21.5 89l-4 528q-2 128 -56 198t-168 69
q-73 0 -137.5 -45.5t-100.5 -115.5t-36 -142l6 -492q2 -51 25.5 -88t70.5 -37v-6h-342v6q50 0 71 36t21 89l-4 528q-3 267 -219 267q-100 0 -186 -90q-45 -48 -119 -162.5t-119 -165.5q-163 -185 -311 -283q-48 -31 -103.5 -75.5t-91 -71t-83 -53.5t-105 -38.5t-131.5 -9.5
q-112 3 -172 54q-61 52 -64 137q-1 60 26 119t73 96zM221 205q0 -94 49.5 -145.5t120.5 -53.5q77 -3 168 55q36 24 100 76l-6 467q-67 -24 -118 -46t-114 -59t-103.5 -77t-68.5 -96.5t-28 -120.5zM1368 0h-342v6q38 0 65 28t27 97v334l154 209v-543q0 -68 31 -96.5t65 -28.5
v-6zM659 94l148 107v-39q0 -50 15.5 -79t64.5 -28q30 0 53 23v-10q-20 -34 -61 -56t-93 -22q-56 0 -86.5 31.5t-40.5 72.5z" />
    <glyph glyph-name="i_m" unicode="im" horiz-adv-x="2183" 
d="M115 1247q10 15 28 33q62 54 151.5 74t178.5 -2.5t145 -83.5q40 -44 58.5 -103t18.5 -117.5t-1 -127.5v-138q60 89 142.5 128.5t195.5 39.5q106 0 190.5 -40.5t120.5 -129.5q106 170 338 170q94 0 166 -28t118.5 -92.5t47.5 -159.5l8 -539q0 -50 24 -87.5t71 -37.5v-6
h-342v6q50 0 72 36.5t20 88.5l-4 528q-2 127 -55.5 197.5t-166.5 69.5q-112 0 -194 -95t-82 -208q0 -94 3.5 -265.5t4.5 -226.5q0 -50 23.5 -87.5t70.5 -37.5v-6h-342v6q50 0 72.5 36.5t20.5 88.5l-5 528q-3 267 -219 267q-115 0 -198.5 -93t-83.5 -210v-492q0 -51 24 -88
t72 -37v-6h-342v6q50 0 71 36t21 89v594q0 46 -11 59t-59 13h-10v4l201 127q4 120 -8.5 193.5t-65.5 133.5q-48 54 -126 75t-158 7.5t-140 -55.5h10q44 0 74.5 -30t30.5 -72q0 -43 -30.5 -74t-74.5 -31q-43 0 -73.5 31t-30.5 74q0 38 29 67zM121 131v594q0 26 -1 36t-8 20.5
t-20.5 13t-40.5 2.5h-10v4l221 129h12l2 -799q0 -68 30.5 -96.5t64.5 -28.5v-6h-342v6q38 0 65 28t27 97z" />
    <glyph glyph-name="u_m" unicode="um" horiz-adv-x="2838" 
d="M29 801l219 129h12l4 -643q0 -26 3.5 -55t18.5 -74t39.5 -78.5t73 -58.5t113.5 -25q79 0 145 47q109 76 109 225l2 457q0 46 -11 59t-59 13h-10v4l221 129h13v-674q69 63 158 157.5t132 151.5v160q0 46 -10.5 59t-58.5 13h-10v4l221 129h12v-162q122 182 309 182
q108 0 193 -40.5t121 -129.5q103 170 338 170q94 0 166 -28t118 -92.5t47 -159.5l6 -539q2 -51 26 -88t71 -37v-6h-342v6q50 0 71 36t21 89l-4 528q-2 128 -55.5 198t-167.5 69q-73 0 -137.5 -45.5t-101 -115.5t-36.5 -142l6 -492q2 -51 25.5 -88t70.5 -37v-6h-342v6
q50 0 71.5 36t21.5 89l-4 528q-3 267 -220 267q-100 0 -186 -90q-46 -49 -120.5 -149.5t-117.5 -149.5q-193 -222 -286 -301q-42 -34 -99.5 -83.5t-92.5 -77t-66 -46.5q-83 -52 -201 -52q-166 0 -259 83t-95 212l-6 453q0 42 -15 57t-55 15h-10v4zM1462 0h-342v6q38 0 65 28
t27 97v361l154 182v-543q0 -68 31 -96.5t65 -28.5v-6zM776 80l146 121v-62q0 -45 14 -55t76 -10h10v-8l-240 -76h-6v90z" />
    <glyph glyph-name="e_m" unicode="em" horiz-adv-x="2764" 
d="M70 465q0 -214 112 -342q62 -72 153 -109t195 -37q61 0 117 14.5t100 37.5t87 60.5t74 73t66 84.5t58.5 87.5t55.5 90.5t53 83q17 25 56 84t60.5 90.5t55.5 76t65 77.5q86 90 187 90q216 0 219 -267l4 -528q0 -53 -21 -89t-71 -36v-6h342v6q-47 0 -70.5 37t-25.5 88
q0 41 -3.5 218.5t-3.5 273.5q0 72 36.5 142t101 115.5t137.5 45.5q114 1 167.5 -69t55.5 -198l4 -528q0 -53 -21 -89t-71 -36v-6h342v6q-47 0 -70.5 37t-25.5 88l-6 539q-1 95 -47.5 159.5t-118.5 92.5t-166 28q-235 0 -338 -170q-36 89 -121 129.5t-192 40.5
q-188 0 -310 -182v162h-12l-221 -129v-4h10q48 0 59 -13t11 -59v-182q-15 -22 -55 -86.5t-70.5 -112t-81 -110.5t-95.5 -104t-104.5 -70t-118.5 -29q-98 0 -183 47t-138 143q-50 95 -62 219l680 109q10 51 4 101t-21.5 94.5t-47.5 82t-74 65t-100 43t-127 15.5
q-139 0 -252.5 -67.5t-171.5 -186.5q-51 -102 -51 -231zM229 463q-6 105 16 199.5t74 154.5q33 39 81 65.5t99.5 38t104 5t93.5 -29t68 -69t28 -110.5q2 -45 -21.5 -84.5t-71.5 -63.5q-61 -29 -100 -37zM1047 0h342v6q-34 0 -65.5 28.5t-31.5 96.5v553l-153 -229v-324
q0 -69 -27 -97t-65 -28v-6z" />
    <glyph glyph-name="o_m" unicode="om" horiz-adv-x="2830" 
d="M66 461q0 215 126.5 353t339.5 138q151 0 258 -63t162 -178q112 68 371 219h18v-148q60 89 142.5 128.5t195.5 39.5q106 0 191 -40.5t121 -129.5q106 170 338 170q94 0 166 -28t118 -92.5t47 -159.5l9 -539q0 -50 23.5 -87.5t70.5 -37.5v-6h-342v6q50 0 72 36.5t20 88.5
l-4 528q-2 128 -55.5 198t-165.5 69q-112 0 -194.5 -95t-82.5 -208q0 -94 3.5 -265.5t4.5 -226.5q0 -50 24 -87.5t71 -37.5v-6h-342v6q50 0 72 36.5t20 88.5l-4 528q-3 267 -220 267q-115 0 -198.5 -93t-83.5 -210v-492q0 -51 24 -88t72 -37v-6h-342v6q50 0 71 36t21 89v606
v11v23.5t-1 19t-4 16t-7.5 8.5t-12 2.5t-18.5 -8.5t-74 -45.5t-87 -52t-83 -46t-94.5 -47.5t-86.5 -35t-96 -28.5t-87 -9.5q-119 -4 -182.5 51.5t-63.5 134.5q0 110 96 172q-93 -39 -137.5 -140.5t-44.5 -227.5q0 -65 10 -133t34.5 -141t60.5 -129.5t95 -93t132 -36.5
q80 0 139 30.5t92.5 84t49.5 118t16 140.5q0 99 -25 215l146 78q33 -101 33 -207q0 -219 -126 -351.5t-343 -132.5t-343 132.5t-126 351.5zM553 565q121 6 260 72q-18 60 -43 109.5t-60 91.5t-84.5 64.5t-107.5 19.5q-89 -6 -136.5 -61t-49.5 -122q0 -74 59 -125.5
t162 -48.5z" />
    <glyph glyph-name="a_b" unicode="ab" horiz-adv-x="2080" 
d="M158 383q15 12 30 23t31.5 21t29 17.5t31.5 17t28 14.5t30.5 14t28 12t30 12.5t27.5 11.5q140 57 192.5 107.5t51.5 144.5q-2 76 -57 121t-162 31q-95 -13 -187.5 -96.5t-167.5 -210.5v168q58 75 156.5 115.5t200.5 43.5q356 10 356 -325v-463q0 -44 13.5 -76t51.5 -31
q29 0 56 27q14 14 29.5 35.5t24 36.5t21 38t13.5 25q17 32 74 162v811q0 45 -11 59t-59 13h-10v4l225 168h8v-680q44 90 125.5 140.5t185.5 55.5q109 4 193 -28t136.5 -95t79 -149t26.5 -193q0 -232 -127 -370t-357 -138q-185 0 -288 132l-127 -115v272l165 389
q-12 -62 -12 -80v-446q35 -62 100.5 -95.5t139.5 -33.5q75 0 134.5 27.5t97.5 72.5t63.5 106.5t36 125t10.5 131.5q0 62 -7 119t-27 121t-52 111t-87.5 77.5t-127.5 30.5q-85 0 -153.5 -53t-104.5 -134q-28 -61 -110 -255.5t-128 -280.5q-4 -7 -19 -34t-21 -37.5
t-21.5 -33.5t-26 -33.5t-28.5 -27t-35 -24t-40.5 -13.5t-48.5 -6q-43 0 -74.5 25t-43.5 52t-13 50q-68 -74 -147.5 -108.5t-216.5 -31.5q-110 3 -170 54q-61 49 -64 137q-1 60 26 119t73 96zM391 6q86 -3 174 54.5t88 125.5v418q-67 -24 -118 -46t-114 -59t-103.5 -77
t-68.5 -96.5t-28 -120.5q0 -94 49.5 -145.5t120.5 -53.5z" />
    <glyph glyph-name="a_r" unicode="ar" horiz-adv-x="1773" 
d="M158 383q15 12 30 23t31.5 21t29 17.5t31.5 17t28 14.5t30.5 14t28 12t30 12.5t27.5 11.5q140 57 192.5 107.5t51.5 144.5q-2 76 -57 121t-162 31q-95 -13 -187.5 -96.5t-167.5 -210.5v168q58 75 156.5 115.5t200.5 43.5q356 10 356 -325v-379q67 42 166 126.5t145 145.5
v207q0 46 -10.5 59t-58.5 13h-11v4l209 129h13v-232q32 51 62 89.5t71.5 78.5t92 62t105.5 22q106 0 138 -49v-178q-11 38 -62 76.5t-117 38.5q-150 0 -282 -168q-43 -64 -148 -181q-117 -136 -311 -264q-48 -31 -103.5 -75.5t-91 -71t-83 -53.5t-105 -38.5t-131.5 -9.5
q-112 3 -172 54q-61 52 -64 137q-1 60 26 119t73 96zM391 6q77 -3 168 55q36 24 100 76l-6 467q-67 -24 -118 -46t-114 -59t-103.5 -77t-68.5 -96.5t-28 -120.5q0 -94 49.5 -145.5t120.5 -53.5zM1118 131v322l154 180v-502q0 -68 31 -96.5t65 -28.5v-6h-342v6q38 0 65 28
t27 97zM659 94l148 107v-39q0 -50 15.5 -79t64.5 -28q30 0 53 23v-10q-20 -34 -61 -56t-93 -22q-56 0 -86.5 31.5t-40.5 72.5z" />
    <glyph glyph-name="a_n" unicode="an" horiz-adv-x="2093" 
d="M158 383q15 12 30 23t31.5 21t29 17.5t31.5 17t28 14.5t30.5 14t28 12t30 12.5t27.5 11.5q140 57 192.5 107.5t51.5 144.5q-2 76 -57 121t-162 31q-95 -13 -187.5 -96.5t-167.5 -210.5v168q58 75 156.5 115.5t200.5 43.5q356 10 356 -325v-379q59 37 160.5 132t150.5 159
v188q0 46 -10.5 59t-58.5 13h-11v4l222 129h12v-162q119 177 305 182q167 4 256.5 -73t91.5 -207l8 -539q1 -47 18.5 -77t37 -39t39.5 -9v-6h-342v6q38 0 65.5 28t26.5 97l-4 528q0 23 -1.5 42t-7.5 53.5t-21 61.5t-38 53.5t-63.5 41.5t-92.5 15q-105 0 -192 -90
q-45 -48 -119 -162.5t-119 -165.5q-163 -185 -311 -283q-48 -31 -103.5 -75.5t-91 -71t-83 -53.5t-105 -38.5t-131.5 -9.5q-112 3 -172 54q-61 52 -64 137q-1 60 26 119t73 96zM221 205q0 -94 49.5 -145.5t120.5 -53.5q77 -3 168 55q36 24 100 76l-6 467q-67 -24 -118 -46
t-114 -59t-103.5 -77t-68.5 -96.5t-28 -120.5zM1026 0v6q38 0 65 28t27 97v334l154 209v-543q0 -68 31 -96.5t65 -28.5v-6h-342zM659 94l148 107v-39q0 -50 15.5 -79t64.5 -28q30 0 53 23v-10q-20 -34 -61 -56t-93 -22q-56 0 -86.5 31.5t-40.5 72.5z" />
    <glyph glyph-name="a_h" unicode="ah" horiz-adv-x="2074" 
d="M158 383q15 12 30 23t31.5 21t29 17.5t31.5 17t28 14.5t30.5 14t28 12t30 12.5t27.5 11.5q140 57 192.5 107.5t51.5 144.5q-2 76 -57 121t-162 31q-95 -13 -187.5 -96.5t-167.5 -210.5v168q58 75 156.5 115.5t200.5 43.5q356 10 356 -325v-379q56 35 153.5 130.5
t149.5 162.5v651q0 52 -14 63t-66 9v4l221 168h13v-666q119 177 305 182q167 4 256.5 -73t91.5 -207l8 -539q1 -36 10.5 -62t25 -39t30 -18.5t28.5 -5.5v-6h-342v6q38 0 65.5 28t26.5 97l-4 528q0 29 -2 52.5t-14 66.5t-33.5 72.5t-66.5 52.5t-107 23q-95 0 -188 -97
q-47 -49 -123 -160.5t-119 -160.5q-174 -198 -303 -283q-48 -31 -103.5 -75.5t-91 -71t-83 -53.5t-105 -38.5t-131.5 -9.5q-112 3 -172 54q-61 52 -64 137q-1 60 26 119t73 96zM221 205q0 -94 49.5 -145.5t120.5 -53.5q77 -3 168 55q36 24 100 76l-6 467q-67 -24 -118 -46
t-114 -59t-103.5 -77t-68.5 -96.5t-28 -120.5zM1018 0v6q38 0 65 28t27 97v338l154 205v-543q0 -68 31 -96.5t65 -28.5v-6h-342zM659 94l148 107v-39q0 -50 15.5 -79t64.5 -28q30 0 53 23v-10q-20 -34 -61 -56t-93 -22q-56 0 -86.5 31.5t-40.5 72.5z" />
    <glyph glyph-name="a_k" unicode="ak" horiz-adv-x="1986" 
d="M158 383q15 12 30 23t31.5 21t29 17.5t31.5 17t28 14.5t30.5 14t28 12t30 12.5t27.5 11.5q140 57 192.5 107.5t51.5 144.5q-2 76 -57 121t-162 31q-95 -13 -187.5 -96.5t-167.5 -210.5v168q58 75 156.5 115.5t200.5 43.5q356 10 356 -325v-463q0 -107 65 -107
q94 2 232 274q2 2 2.5 3.5t1.5 3.5l2 4v850q0 45 -11 59t-59 13h-10v4l221 168h13v-922q43 71 70.5 114.5t65 95.5t65.5 81.5t65 60t73 44t80 20.5t93 2l51 -187q-57 56 -106.5 80t-94 21.5t-94 -40t-98 -94t-113.5 -149.5q99 44 208.5 16t164.5 -100q26 -34 48 -74
t43.5 -98.5t30.5 -86.5t33 -103q14 -51 45 -80t60 -29v-6h-260q0 57 -22.5 147t-60.5 182t-99.5 158.5t-129.5 67.5q-108 0 -254 -229q-17 -27 -46.5 -84t-52 -93t-57.5 -77t-81 -61.5t-103 -20.5q-43 0 -74.5 25t-43.5 52t-13 50q-68 -74 -147.5 -108.5t-216.5 -31.5
q-110 3 -170 54q-61 49 -64 137q-1 60 26 119t73 96zM391 6q86 -3 174 54.5t88 125.5v418q-67 -24 -118 -46t-114 -59t-103.5 -77t-68.5 -96.5t-28 -120.5q0 -94 49.5 -145.5t120.5 -53.5zM1018 0v6q38 0 65 28t27 97v127l158 209q-4 -24 -4 -37v-299q0 -68 31 -96.5
t65 -28.5v-6h-342z" />
    <glyph glyph-name="o_u" unicode="ou" horiz-adv-x="2158" 
d="M532 952q151 0 258 -63t162 -178q112 68 371 219h12l4 -643q0 -26 3.5 -55t18.5 -74t39.5 -78.5t73 -58.5t113.5 -25q35 0 77 19t82.5 54.5t67.5 97t27 136.5l2 422q0 46 -10.5 59t-58.5 13h-11v4l222 129h12v-791q0 -45 14 -55t76 -10h10v-8l-239 -76h-7v141
q-49 -77 -121.5 -115.5t-185.5 -38.5q-166 0 -259 83t-95 212l-6 453v11v22.5t-1 19t-4 16.5t-7.5 9t-12 2.5t-18.5 -8.5q-12 -7 -73.5 -44.5t-84 -50.5t-78.5 -44t-90 -44.5t-83.5 -32.5t-92.5 -27t-86 -9q-119 -4 -182.5 51.5t-63.5 134.5q0 110 96 172
q-93 -39 -137.5 -140.5t-44.5 -227.5q0 -65 10 -133t34.5 -141t60.5 -129.5t95 -93t132 -36.5q80 0 139 30.5t92.5 84t49.5 118t16 140.5q0 99 -25 215l146 78q33 -101 33 -207q0 -219 -126 -351.5t-343 -132.5t-343 132.5t-126 351.5q0 215 126.5 353t339.5 138zM332 739
q0 -74 59 -125.5t162 -48.5q121 6 260 72q-18 60 -43 109.5t-60 91.5t-84.5 64.5t-107.5 19.5q-89 -6 -136.5 -61t-49.5 -122z" />
    <glyph glyph-name="l_i" unicode="li" horiz-adv-x="872" 
d="M35 0v6q38 0 65 28t27 97v1059q0 45 -11 59t-59 13h-10v4l215 151q12 84 87 139.5t171 55.5q73 0 128 -24t87 -65.5t47 -96t11.5 -116t-23.5 -126.5q-30 -109 -135 -109q-43 0 -74 31t-31 74q0 41 31 71.5t74 30.5q38 0 66.5 -23t37.5 -63q23 68 23 141q0 65 -21 115
t-56 79.5t-78 43.5t-91 12q-93 -3 -164 -63.5t-71 -147.5v-1245q0 -68 31 -96.5t65 -28.5v-6h-342zM473 0v6q38 0 65 28t27 97v594q0 26 -1 36t-7.5 20.5t-20 13t-40.5 2.5h-11v4l222 129h12l2 -799q0 -68 30 -96.5t64 -28.5v-6h-342z" />
    <glyph glyph-name="s_i" unicode="si" horiz-adv-x="1286" 
d="M59 686q1 68 32 121t82.5 83t111 45t123.5 15q118 0 225 -37q-57 55 -86 120.5t-29 158.5q0 74 28 134t75.5 97.5t105 57.5t119.5 22q132 3 222.5 -79t86.5 -242q-2 -45 -32 -76t-74 -31q-43 0 -74 31t-31 74q0 41 31 71.5t74 30.5q53 0 81 -39q-16 119 -95.5 180.5
t-188.5 59.5q-124 -3 -214.5 -81.5t-90.5 -209.5q0 -184 161 -309v-197q-3 4 -11 28.5t-18 49t-32.5 55.5t-51 54.5t-77.5 40t-109 16.5q-81 0 -146.5 -42.5t-68.5 -119.5q-2 -41 16.5 -74.5t51 -58.5t75 -47t90 -42t95.5 -40.5t91.5 -46t77 -55.5t53.5 -72t20 -92
q0 -74 -30.5 -127.5t-82.5 -81.5t-110.5 -41t-126.5 -13t-167 18t-163 56l-2 195l10.5 -28t19 -39t30.5 -47.5t43 -46t58 -43t76 -30t95 -14.5q99 -3 154.5 40t55.5 126q0 45 -24 82.5t-63.5 62.5t-90 50.5t-103 45.5t-102.5 48t-89.5 58t-63 75t-23.5 100zM887 0v6
q38 0 65 28t27 97v594q0 26 -1 36t-8 20.5t-20.5 13t-40.5 2.5h-10v4l221 129h13l2 -799q0 -68 30 -96.5t64 -28.5v-6h-342z" />
    <glyph glyph-name="e_n" unicode="en" horiz-adv-x="2121" 
d="M121 696q-51 -102 -51 -231q0 -214 112 -342q62 -72 153 -109t195 -37q61 0 117 14t99.5 35t87 56.5t74 68t66.5 81t58 83.5t56 88t53 82q6 9 95.5 152t141.5 199q87 90 193 90q62 0 107 -23t66.5 -52.5t33.5 -72.5t14 -66.5t2 -52.5l4 -528q1 -69 -26.5 -97t-65.5 -28
v-6h342v6q-14 0 -28.5 5.5t-30 18.5t-25 39t-10.5 62l-8 539q-2 130 -91.5 207t-257.5 73q-186 -5 -305 -182v162h-12l-221 -129v-4h10q48 0 59 -13t11 -59v-211q-18 -25 -60 -88.5t-71.5 -107.5t-79.5 -103t-94 -95t-102.5 -62.5t-117.5 -26.5q-98 0 -183 47t-138 143
q-50 95 -62 219l680 109q10 51 4 101t-21.5 94.5t-47.5 82t-74 65t-100 43t-127 15.5q-139 0 -252.5 -67.5t-171.5 -186.5zM229 463q-6 105 16 199.5t74 154.5q33 39 81 65.5t99.5 38t104 5t93.5 -29t68 -69t28 -110.5q2 -45 -21.5 -84.5t-71.5 -63.5q-61 -29 -100 -37z
M1047 6v-6h342v6q-34 0 -65.5 28.5t-31.5 96.5v543l-153 -244v-299q0 -69 -27 -97t-65 -28z" />
    <glyph glyph-name="e_h" unicode="eh" horiz-adv-x="2103" 
d="M70 465q0 129 51 231q58 119 171.5 186.5t252.5 67.5q69 0 127 -15.5t100 -43t74 -65t47.5 -82t21.5 -94.5t-4 -101l-680 -109q12 -124 62 -219q53 -96 138 -143t183 -47q49 0 101 22.5t94.5 54t89.5 83.5t77.5 92t68.5 99.5t53.5 86t40.5 70.5v651q0 52 -14 63t-66 9v4
l221 168h12v-666q119 177 305 182q168 4 257.5 -73t91.5 -207l8 -539q1 -36 10.5 -62t25 -39t30 -18.5t28.5 -5.5v-6h-342v6q38 0 65.5 28t26.5 97l-4 528q0 29 -2 52.5t-14 66.5t-33.5 72.5t-66.5 52.5t-107 23q-96 0 -189 -97q-40 -41 -87.5 -106.5t-69.5 -100t-82 -130.5
q-37 -59 -61 -95.5t-61 -90.5t-67 -88.5t-70 -76.5t-78 -68t-82.5 -50t-93 -35t-100.5 -11q-104 0 -195 37t-153 109q-112 128 -112 342zM229 463l371 69q39 8 100 37q48 24 71.5 63.5t21.5 84.5q-1 64 -28 110.5t-68 69t-93.5 29t-104 -5t-99.5 -38t-81 -65.5
q-52 -60 -74 -154.5t-16 -199.5zM1139 131v307l153 236v-543q0 -68 31.5 -96.5t65.5 -28.5v-6h-342v6q38 0 65 28t27 97z" />
    <glyph glyph-name="e_r" unicode="er" horiz-adv-x="1802" 
d="M70 465q0 -214 112 -342q62 -72 153 -109t195 -37q61 0 119 16.5t101.5 36t94.5 66.5t79.5 75.5t77.5 97t67.5 96.5t68.5 107q7 11 11 17q31 47 82 108.5t59 72.5q124 168 289 168q66 0 116.5 -38.5t61.5 -76.5v178q-32 49 -137 49q-55 0 -105.5 -22t-92.5 -62t-72 -79
t-62 -89v232h-12l-209 -129v-4h10q48 0 59 -13t11 -59v-203q-6 -10 -36.5 -57t-49 -74.5t-56 -78.5t-66.5 -84t-71.5 -74t-80.5 -65t-83.5 -41t-89.5 -17q-98 0 -183 47t-138 143q-50 95 -62 219l680 109q10 51 4 101t-21.5 94.5t-47.5 82t-74 65t-100 43t-127 15.5
q-139 0 -252.5 -67.5t-171.5 -186.5q-51 -102 -51 -231zM229 463q-6 105 16 199.5t74 154.5q33 39 81 65.5t99.5 38t104 5t93.5 -29t68 -69t28 -110.5q2 -45 -21.5 -84.5t-71.5 -63.5q-61 -29 -100 -37zM1055 0h342v6q-34 0 -65.5 28.5t-31.5 96.5v508l-153 -197v-311
q0 -69 -27 -97t-65 -28v-6z" />
    <glyph glyph-name="e_b" unicode="eb" horiz-adv-x="2109" 
d="M121 696q58 119 171.5 186.5t252.5 67.5q69 0 127 -15.5t100 -43t74 -65t47.5 -82t21.5 -94.5t-4 -101l-680 -109q12 -124 62 -219q53 -96 138 -143t183 -47q42 0 83.5 14t75.5 33t72.5 54.5t64 63t61 75t53.5 73.5t50.5 75.5t43.5 65.5v705q0 46 -10.5 59.5t-58.5 12.5
h-11v4l226 168h8v-680q44 90 125.5 140.5t185.5 55.5q144 6 243.5 -53t145 -163.5t45.5 -248.5q0 -232 -126.5 -370t-356.5 -138q-186 0 -289 132l-127 -115v401l166 267q-12 -62 -12 -80v-453q35 -62 100 -95.5t139 -33.5q75 0 134.5 27.5t97.5 72.5t63.5 106.5t36 125
t10.5 131.5q0 62 -7 119t-27 121t-52 111t-87.5 77.5t-127.5 30.5q-147 0 -258 -187q-28 -44 -87 -141.5t-93 -149.5q-102 -160 -123 -190q-122 -172 -257 -234q-93 -43 -204 -43q-104 0 -195 37t-153 109q-112 128 -112 342q0 129 51 231zM229 463l371 69q39 8 100 37
q48 24 71.5 63.5t21.5 84.5q-1 64 -28 110.5t-68 69t-93.5 29t-104 -5t-99.5 -38t-81 -65.5q-52 -60 -74 -154.5t-16 -199.5z" />
    <glyph glyph-name="o_n" unicode="on" horiz-adv-x="2187" 
d="M532 952q151 0 258 -63t162 -178q112 68 371 219h20v-148q56 84 133.5 124.5t190.5 43.5q166 4 255.5 -73t92.5 -207l6 -539q1 -68 31.5 -96.5t65.5 -28.5v-6h-344v6q38 0 66 28t28 97l-6 528q0 23 -1.5 42t-7.5 53.5t-21 61.5t-38 53.5t-63.5 41.5t-92.5 15
q-115 0 -196.5 -93.5t-81.5 -209.5l2 -492q0 -68 30 -96.5t64 -28.5v-6h-342v6q38 0 65 28t27 97v608q0 63 -10 74q-11 11 -35 -4q-11 -7 -74 -45.5t-87 -52t-83 -46t-94.5 -47.5t-86.5 -35t-96 -28.5t-87 -9.5q-119 -4 -182.5 51.5t-63.5 134.5q0 110 96 172
q-93 -39 -137.5 -140.5t-44.5 -227.5q0 -65 10 -133t34.5 -141t60.5 -129.5t95 -93t132 -36.5q80 0 139 30.5t92.5 84t49.5 118t16 140.5q0 99 -25 215l146 78q33 -101 33 -207q0 -219 -126 -351.5t-343 -132.5t-343 132.5t-126 351.5q0 215 126.5 353t339.5 138zM553 565
q121 6 260 72q-18 60 -43 109.5t-60 91.5t-84.5 64.5t-107.5 19.5q-89 -6 -136.5 -61t-49.5 -122q0 -74 59 -125.5t162 -48.5z" />
    <glyph glyph-name="o_p" unicode="op" horiz-adv-x="2213" 
d="M66 461q0 215 126.5 353t339.5 138q151 0 258 -63t162 -178l383 219h25v-176q44 90 126 140.5t185 55.5q145 6 244.5 -53t144.5 -163.5t45 -248.5q0 -232 -126.5 -370t-356.5 -138q-161 0 -262 101v-479q0 -68 31 -96.5t65 -28.5v-6h-342v6q38 0 65 28t27 97v1136
q0 63 -10 74q-11 11 -35 -4q-12 -7 -102.5 -60.5t-130 -73.5t-116 -56.5t-139 -52t-120.5 -17.5q-119 -4 -182.5 51.5t-63.5 134.5q0 110 96 172q-93 -39 -137.5 -140.5t-44.5 -227.5q0 -65 10 -133t34.5 -141t60.5 -129.5t95 -93t132 -36.5q80 0 139 30.5t92.5 84t49.5 118
t16 140.5q0 99 -25 215l146 78q33 -101 33 -207q0 -219 -126 -351.5t-343 -132.5t-343 132.5t-126 351.5zM1360 575v-446q37 -62 101.5 -95.5t137.5 -33.5q75 0 134.5 27.5t98 72.5t64 106.5t36 125t10.5 131.5q0 50 -5 98t-16.5 102t-34 98.5t-54.5 81.5t-80.5 58
t-109.5 21q-64 0 -119.5 -34.5t-89.5 -87t-53.5 -112t-19.5 -113.5zM332 739q0 -74 59 -125.5t162 -48.5q121 6 260 72q-18 60 -43 109.5t-60 91.5t-84.5 64.5t-107.5 19.5q-89 -6 -136.5 -61t-49.5 -122z" />
    <glyph glyph-name="o_r" unicode="or" horiz-adv-x="1867" 
d="M532 952q151 0 258 -63t162 -178q185 111 383 219h19v-232q32 50 62 89t72 79t92.5 62t105.5 22q105 0 137 -49v-178q-11 38 -61.5 76.5t-116.5 38.5q-70 0 -137.5 -33t-141.5 -127v-547q0 -68 31 -96.5t65 -28.5v-6h-342v6q38 0 65 28t27 97v612q0 62 -10 73
q-12 9 -35 -5q-19 -11 -104.5 -61.5t-129.5 -74t-119 -59.5t-139 -52.5t-122 -18.5q-119 -4 -182.5 51.5t-63.5 134.5q0 110 96 172q-93 -39 -137.5 -140.5t-44.5 -227.5q0 -65 10 -133t34.5 -141t60.5 -129.5t95 -93t132 -36.5q80 0 139 30.5t92.5 84t49.5 118t16 140.5
q0 99 -25 215l146 78q33 -101 33 -207q0 -219 -126 -351.5t-343 -132.5t-343 132.5t-126 351.5q0 215 126.5 353t339.5 138zM332 739q0 -74 59 -125.5t162 -48.5q121 6 260 72q-18 60 -43 109.5t-60 91.5t-84.5 64.5t-107.5 19.5q-89 -6 -136.5 -61t-49.5 -122z" />
    <glyph glyph-name="e_k" unicode="ek" horiz-adv-x="2015" 
d="M182 123q-112 128 -112 342q0 129 51 231q58 119 171.5 186.5t252.5 67.5q69 0 127 -15.5t100 -43t74 -65t47.5 -82t21.5 -94.5t-4 -101l-680 -109q12 -124 62 -219q54 -98 139.5 -149t181.5 -49q94 1 179.5 32.5t150.5 83t111 102.5t84 109v840q0 45 -11 59t-59 13h-10
v4l221 168h12v-906q13 18 43.5 61.5t47 66t47 62.5t52 61.5t53.5 52t60.5 46.5t62.5 31.5t70.5 20t75.5 0.5l51 -187q-72 70 -130.5 93.5t-118.5 -2t-118.5 -90t-137.5 -183.5q99 44 208 16t164 -100q34 -45 65.5 -113t46.5 -112.5t44 -136.5q14 -51 44.5 -80t59.5 -29v-6
h-260q0 45 -13.5 112.5t-41 144t-63.5 142.5t-87 110.5t-106 45.5q-109 0 -254 -219q-35 -53 -74 -100t-96.5 -96t-120.5 -83.5t-146.5 -57t-174.5 -22.5q-106 0 -204 37.5t-159 108.5zM319 817q-52 -60 -74 -154.5t-16 -199.5l371 69q39 8 100 37q48 24 71.5 63.5
t21.5 84.5q-1 64 -28 110.5t-68 69t-93.5 29t-104 -5t-99.5 -38t-81 -65.5zM1047 6q38 0 65 28t27 97v135l157 209q-4 -24 -4 -37v-307q0 -68 31.5 -96.5t65.5 -28.5v-6h-342v6z" />
    <glyph glyph-name="u_n" unicode="un" horiz-adv-x="2195" 
d="M29 797v4l219 129h12l4 -643q0 -26 3.5 -55t18.5 -74t39.5 -78.5t73 -58.5t113.5 -25q79 0 145 47q109 76 109 225l2 457q0 46 -11 59t-59 13h-10v4l221 129h13v-674q72 66 162.5 163t129.5 154v152q0 26 -1 36t-7.5 20.5t-20 13t-40.5 2.5h-10v4l223 129h12v-162
q119 177 305 182q166 4 256 -73.5t92 -206.5l7 -539q1 -68 31 -96.5t65 -28.5v-6h-344v6q38 0 66 28t28 97l-6 528q0 29 -2 52.5t-14 66.5t-33.5 72.5t-66.5 52.5t-107 23q-103 0 -193 -90q-46 -49 -121.5 -150.5t-118.5 -150.5q-172 -202 -286 -299q-42 -34 -99.5 -83.5
t-92.5 -77t-66 -46.5q-83 -52 -201 -52q-166 0 -259 83t-95 212l-6 453q0 42 -15 57t-55 15h-10zM1122 0v6q38 0 65 28t27 97v358l154 195l2 -553q0 -68 30 -96.5t64 -28.5v-6h-342zM776 80l146 121v-62q0 -45 14 -55t76 -10h10v-8l-240 -76h-6v90z" />
    <glyph glyph-name="u_h" unicode="uh" horiz-adv-x="2177" 
d="M29 797v4l219 129h12l4 -643q0 -26 3.5 -55t18.5 -74t39.5 -78.5t73 -58.5t113.5 -25q79 0 145 47q109 76 109 225l2 457q0 46 -11 59t-59 13h-10v4l221 129h13v-674q71 65 160.5 162t129.5 155v617q0 52 -13.5 63t-65.5 9v4l221 168h12v-666q119 177 305 182
q167 4 256.5 -73t91.5 -207l9 -539q1 -36 10.5 -62t25 -39t30 -18.5t28.5 -5.5v-6h-342v6q38 0 65.5 28t26.5 97l-4 528q0 29 -2 52.5t-14 66.5t-33.5 72.5t-66.5 52.5t-107 23q-96 0 -189 -97q-48 -49 -131 -155t-100 -127q-197 -226 -297 -311q-42 -34 -99.5 -83.5
t-92.5 -77t-66 -46.5q-83 -52 -201 -52q-166 0 -259 83t-95 212l-6 453q0 42 -15 57t-55 15h-10zM1120 0v6q38 0 65 28t27 97v354l154 189v-543q0 -68 31 -96.5t65 -28.5v-6h-342zM776 80l146 121v-62q0 -45 14 -55t76 -10h10v-8l-240 -76h-6v90z" />
    <glyph glyph-name="u_r" unicode="ur" horiz-adv-x="1875" 
d="M29 801l219 129h12l4 -643q0 -26 3.5 -55t18.5 -74t39.5 -78.5t73 -58.5t113.5 -25q79 0 145 47q109 76 109 225l2 457q0 46 -11 59t-59 13h-10v4l221 129h13v-674l299 295v174q0 46 -11 59t-59 13h-10v4l209 129h12v-240q32 52 62 91.5t72 81t92.5 64.5t105.5 23
q105 0 137 -49v-178q-11 38 -61.5 76.5t-116.5 38.5q-67 0 -130.5 -32.5t-158.5 -135.5l-143 -152l-293 -282q-42 -34 -99.5 -83.5t-92.5 -77t-66 -46.5q-83 -52 -201 -52q-166 0 -259 83t-95 212l-6 453q0 42 -15 57t-55 15h-10v4zM1128 6q38 0 65.5 28t27.5 97v348
l153 160v-508q0 -68 31 -96.5t65 -28.5v-6h-342v6zM776 80l146 121v-62q0 -45 14 -55t76 -10h10v-8l-240 -76h-6v90z" />
    <glyph glyph-name="o_l" unicode="ol" horiz-adv-x="1519" 
d="M532 952q213 0 340 -127q148 145 324 404q27 39 73.5 108.5t65.5 96.5h21v-1303q0 -68 31 -96.5t65 -28.5v-6h-342v6q38 0 65 28t27 97v1065q-121 -175 -235.5 -306.5t-241.5 -207.5q-76 -45 -145.5 -59.5t-118.5 0t-83 44t-48 70.5q-23 70 14 131q-63 -53 -93 -142
t-30 -191q0 -65 10 -133t34.5 -141t60.5 -129.5t95 -93t132 -36.5q80 0 139 30.5t92.5 84t49.5 118t16 140.5q0 168 -57 317l114 94q97 -133 97 -325q0 -219 -126 -351.5t-343 -132.5t-343 132.5t-126 351.5q0 215 126.5 353t339.5 138zM354 754q11 -39 40 -68t73.5 -43
t110 -0.5t139.5 57.5q34 23 55 39q-91 185 -258 185q-59 0 -108 -19q-36 -29 -49.5 -69.5t-2.5 -81.5z" />
    <glyph glyph-name="o_b" unicode="ob" horiz-adv-x="2174" 
d="M535 -23q-217 0 -343 132.5t-126 351.5q0 215 126.5 353t339.5 138t340 -127q148 145 324 404q27 39 73.5 108.5t65.5 96.5h19v-680q44 90 125.5 140.5t185.5 55.5q144 6 243.5 -53t145 -163.5t45.5 -248.5q0 -232 -126.5 -370t-356.5 -138q-186 0 -289 132l-127 -115
v1198q-120 -174 -234 -304t-241 -206q-76 -45 -145.5 -59.5t-118.5 0t-83 44t-48 70.5q-23 70 14 131q-63 -53 -93 -142t-30 -191q0 -65 10 -133t34.5 -141t60.5 -129.5t95 -93t132 -36.5q80 0 139 30.5t92.5 84t49.5 118t16 140.5q0 168 -57 317l114 94q97 -133 97 -325
q0 -219 -126 -351.5t-343 -132.5zM1354 575v-446q35 -62 100 -95.5t139 -33.5q75 0 134.5 27.5t97.5 72.5t63.5 106.5t36 125t10.5 131.5q0 62 -7 119t-27 121t-52 111t-87.5 77.5t-127.5 30.5q-85 0 -150.5 -53t-97.5 -131t-32 -163zM406 905q-36 -29 -49.5 -69.5
t-2.5 -81.5q11 -39 40 -68t73.5 -43t110 -0.5t139.5 57.5q34 23 55 39q-91 185 -258 185q-59 0 -108 -19z" />
    <glyph glyph-name="o_k" unicode="ok" horiz-adv-x="2080" 
d="M66 461q0 215 126.5 353t339.5 138t340 -127q148 145 324 404q83 121 145 205h17v-922q43 71 70.5 114.5t65 95.5t65.5 81.5t65 60t73 44t80 20.5t93 2l51 -187q-57 56 -106.5 80t-94 21.5t-94 -40t-98 -94t-113.5 -149.5q99 44 208.5 16t164.5 -100q34 -45 65.5 -113
t46.5 -112.5t44 -136.5q14 -51 44.5 -80t59.5 -29v-6h-260q0 45 -13.5 112.5t-41 144t-63.5 142.5t-87 110.5t-106 45.5q-51 0 -85 -30.5t-34 -98.5v-295q0 -68 31 -96.5t65 -28.5v-6h-342v6q38 0 65 28t27 97v1067q-121 -175 -236.5 -307.5t-242.5 -208.5
q-76 -45 -145.5 -59.5t-118.5 0t-83 44t-48 70.5q-23 70 14 131q-63 -53 -93 -142t-30 -191q0 -65 10 -133t34.5 -141t60.5 -129.5t95 -93t132 -36.5q80 0 139 30.5t92.5 84t49.5 118t16 140.5q0 168 -57 317l114 94q97 -133 97 -325q0 -219 -126 -351.5t-343 -132.5
t-343 132.5t-126 351.5zM406 905q-36 -29 -49.5 -69.5t-2.5 -81.5q11 -39 40 -68t73.5 -43t110 -0.5t139.5 57.5q34 23 55 39q-91 185 -258 185q-59 0 -108 -19z" />
    <glyph glyph-name="o_h" unicode="oh" horiz-adv-x="2168" 
d="M66 461q0 215 126.5 353t339.5 138t340 -127q148 145 324 404q83 121 145 205h17v-629q59 79 137 112t184 33q94 0 166 -28t118.5 -92.5t47.5 -159.5l8 -539q0 -50 24 -87.5t71 -37.5v-6h-342v6q50 0 72 36.5t20 88.5l-4 528q-2 129 -53 198t-167 69q-114 1 -198 -92.5
t-84 -210.5v-492q0 -51 24 -88t72 -37v-6h-342v6q50 0 71 36t21 89v1067q-121 -175 -236.5 -307.5t-242.5 -208.5q-76 -45 -145.5 -59.5t-118.5 0t-83 44t-48 70.5q-23 70 14 131q-63 -53 -93 -142t-30 -191q0 -65 10 -133t34.5 -141t60.5 -129.5t95 -93t132 -36.5
q80 0 139 30.5t92.5 84t49.5 118t16 140.5q0 168 -57 317l114 94q97 -133 97 -325q0 -219 -126 -351.5t-343 -132.5t-343 132.5t-126 351.5zM406 905q-36 -29 -49.5 -69.5t-2.5 -81.5q11 -39 40 -68t73.5 -43t110 -0.5t139.5 57.5q34 23 55 39q-91 185 -258 185
q-59 0 -108 -19z" />
    <glyph glyph-name="l_l" unicode="ll" horiz-adv-x="888" 
d="M127 131v971q0 47 -11 61t-59 11h-10v6l666 448h12v-1497q0 -68 31 -96.5t65 -28.5v-6h-342v6q38 0 65 28t27 97v1294v34.5t-3 20.5t-6 11.5t-12 -1t-19 -9t-29 -19.5l-185 -129q-26 -19 -31 -29t-5 -42v-1131q0 -68 31 -96.5t65 -28.5v-6h-342v6q38 0 65 28t27 97z" />
    <glyph glyph-name="i_l" unicode="il" horiz-adv-x="872" 
d="M190 1075q-43 0 -73.5 31t-30.5 74q0 41 30.5 71.5t73.5 30.5q44 0 74.5 -30t30.5 -72q0 -40 -27 -70q27 9 60.5 29t49.5 31.5t59.5 47.5t47.5 39l211 177h13v-1303q0 -68 31 -96.5t65 -28.5v-6h-342v6q38 0 65 28t27 97v1116q0 33 -7 33.5t-42 -29.5q-2 -1 -28.5 -23.5
t-32.5 -27.5t-31 -25t-35.5 -26t-33.5 -21.5t-37.5 -21.5t-34.5 -14.5t-37.5 -11.5t-34.5 -3q-1 0 -5 -1t-6 -1zM29 6q38 0 65 28t27 97v594q0 26 -1 36t-8 20.5t-20.5 13t-40.5 2.5h-10v4l221 129h12l2 -799q0 -68 30.5 -96.5t64.5 -28.5v-6h-342v6z" />
    <glyph glyph-name="i_b" unicode="ib" horiz-adv-x="1527" 
d="M86 1180q0 41 30.5 71.5t73.5 30.5q44 0 74.5 -30t30.5 -72q0 -40 -27 -70q27 9 60.5 29t49.5 31.5t59.5 47.5t47.5 39l211 177h6h9v-680q44 90 125.5 140.5t185.5 55.5q144 6 243.5 -53t145 -163.5t45.5 -248.5q0 -232 -126.5 -370t-356.5 -138q-186 0 -289 132
l-127 -115v1253q0 33 -8 33.5t-43 -29.5q-2 -1 -28.5 -23.5t-32.5 -27.5t-31 -25t-35.5 -26t-33.5 -21.5t-37.5 -21.5t-34.5 -14.5t-37.5 -11.5t-34.5 -3q-1 0 -5 -1t-6 -1q-43 0 -73.5 31t-30.5 74zM711 575v-446q35 -62 100 -95.5t139 -33.5q75 0 134.5 27.5t97.5 72.5
t63.5 106.5t36 125t10.5 131.5q0 62 -7 119t-27 121t-52 111t-87.5 77.5t-127.5 30.5q-85 0 -150.5 -53t-97.5 -131t-32 -163zM371 0h-342v6q38 0 65 28t27 97v594q0 26 -1 36t-8 20.5t-20.5 13t-40.5 2.5h-10v4l221 129h12l2 -799q0 -68 30.5 -96.5t64.5 -28.5v-6z" />
    <glyph glyph-name="i_k" unicode="ik" horiz-adv-x="1433" 
d="M190 1282q44 0 74.5 -30t30.5 -72q0 -40 -27 -70q27 9 60.5 29t49.5 31.5t59.5 47.5t47.5 39l211 177h15v-922q43 71 70.5 114.5t65 95.5t65.5 81.5t65 60t73 44t80 20.5t93 2l51 -187q-57 56 -106.5 80t-94 21.5t-94 -40t-98 -94t-113.5 -149.5q99 44 208.5 16
t164.5 -100q26 -34 48 -74t43.5 -98.5t30.5 -86.5t33 -103q14 -51 45 -80t60 -29v-6h-260q0 57 -22.5 147t-60.5 182t-99.5 158.5t-129.5 67.5q-50 0 -84 -30.5t-34 -98.5v-295q0 -68 31 -96.5t65 -28.5v-6h-342v6q38 0 65 28t27 97v1116q0 33 -8 33.5t-43 -29.5
q-2 -1 -28.5 -23.5t-32.5 -27.5t-31 -25t-35.5 -26t-33.5 -21.5t-37.5 -21.5t-34.5 -14.5t-37.5 -11.5t-34.5 -3q-1 0 -5 -1t-6 -1q-43 0 -73.5 31t-30.5 74q0 41 30.5 71.5t73.5 30.5zM371 0h-342v6q38 0 65 28t27 97v594q0 26 -1 36t-8 20.5t-20.5 13t-40.5 2.5h-10v4
l221 129h12l2 -799q0 -68 30.5 -96.5t64.5 -28.5v-6z" />
    <glyph glyph-name="i_h" unicode="ih" horiz-adv-x="1521" 
d="M190 1075q-43 0 -73.5 31t-30.5 74q0 41 30.5 71.5t73.5 30.5q44 0 74.5 -30t30.5 -72q0 -40 -27 -70q27 9 60.5 29t49.5 31.5t59.5 47.5t47.5 39l211 177h15v-629q59 79 137 112t184 33q94 0 166 -28t118.5 -92.5t47.5 -159.5l8 -539q0 -50 23.5 -87.5t70.5 -37.5v-6
h-342v6q50 0 72.5 36.5t20.5 88.5l-5 528q-2 129 -52.5 198t-166.5 69q-114 1 -198 -92.5t-84 -210.5v-492q0 -51 24 -88t72 -37v-6h-342v6q50 0 71 36t21 89v1116q0 33 -8 33.5t-43 -29.5q-2 -1 -28.5 -23.5t-32.5 -27.5t-31 -25t-35.5 -26t-33.5 -21.5t-37.5 -21.5
t-34.5 -14.5t-37.5 -11.5t-34.5 -3q-1 0 -5 -1t-6 -1zM29 6q38 0 65 28t27 97v594q0 26 -1 36t-8 20.5t-20.5 13t-40.5 2.5h-10v4l221 129h12l2 -799q0 -68 30.5 -96.5t64.5 -28.5v-6h-342v6z" />
    <glyph glyph-name="i_t" unicode="it" horiz-adv-x="1024" 
d="M190 1075q-43 0 -73.5 31t-30.5 74q0 2 1 6t1 6q0 73 28.5 133.5t76 98t105.5 58t120 21.5q127 2 218.5 -73t90.5 -209l-2 -291h207v-19h-207v-684q0 -110 72 -151q44 -23 102 -19t96 27v-6q-30 -42 -91.5 -65t-133.5 -23q-84 0 -142 54t-57 171v600q0 57 -15.5 76.5
t-72.5 19.5h-77v19q115 6 191.5 65t93 140t-2 160.5t-92 134t-178.5 53.5q-108 -2 -194.5 -63t-108.5 -171q33 33 75 33q44 0 74.5 -30t30.5 -72q0 -43 -30.5 -74t-74.5 -31zM29 0v6q38 0 65 28t27 97v594q0 26 -1 36t-8 20.5t-20.5 13t-40.5 2.5h-10v4l221 129h12l2 -799
q0 -68 30.5 -96.5t64.5 -28.5v-6h-342z" />
    <glyph glyph-name="g_i" unicode="gi" horiz-adv-x="1480" 
d="M102 98l115 162q-129 107 -129 299q0 177 112.5 285t297.5 108q159 0 266 -75q369 384 444 399q18 6 35 6q44 0 74.5 -30t30.5 -72q0 -43 -30.5 -74t-74.5 -31q-43 0 -73.5 31t-30.5 74q0 16 6 28q-134 -105 -365 -346q-2 -3 -38 -40.5t-48 -51.5q-228 -242 -387 -432
q72 -148 207 -148q64 0 111 24.5t73.5 67.5t39 94.5t12.5 112.5q0 144 -45 259l96 98q108 -102 108 -287q0 -180 -111.5 -283.5t-299.5 -103.5q-160 0 -265 76q-30 -46 -30 -62q0 -28 93 -53.5t242.5 -50.5t176.5 -31q59 -14 106 -35t88.5 -53t64 -79t21.5 -105
q-2 -105 -68.5 -183.5t-169.5 -116.5t-225 -38q-85 0 -174.5 16t-175 57.5t-112.5 100.5v244q43 -178 171.5 -287t317.5 -109q57 0 108 11.5t97.5 36.5t74 72.5t27.5 111.5q0 84 -68.5 137.5t-236.5 93.5q-30 7 -197.5 40.5t-232.5 49.5q-43 11 -49 28t20 54zM297 358
q203 238 387 433q-71 139 -203 139q-63 0 -110 -27t-73 -73.5t-38 -99t-12 -112.5q0 -142 49 -260zM1081 0v6q38 0 65.5 28t27.5 97v594q0 26 -1 36t-8 20.5t-20.5 13t-40.5 2.5h-10v4l221 129h12l2 -799q0 -68 30 -96.5t64 -28.5v-6h-342z" />
    <glyph glyph-name="g_l" unicode="gl" horiz-adv-x="1497" 
d="M102 98l129 152q-143 100 -143 309q0 177 112.5 285t297.5 108q177 0 290 -96l533 578h12v-1303q0 -68 31.5 -96.5t65.5 -28.5v-6h-343v6q38 0 65.5 28t27.5 97v1049q0 33 -8.5 40.5t-34.5 -16.5l-334 -360q-3 -4 -22.5 -25.5t-43.5 -47.5t-30 -32l-375 -405
q-2 -3 -7.5 -8.5t-7.5 -8.5q70 -127 197 -127q64 0 111 24.5t73.5 67.5t39 94.5t12.5 112.5q0 119 -35 228l106 106q88 -106 88 -264q0 -180 -111.5 -283.5t-299.5 -103.5q-146 0 -250 66q-39 -42 -39 -52q0 -28 91.5 -53.5t240 -50.5t174.5 -31q59 -14 106 -35t88.5 -53
t64 -79t21.5 -105q-2 -105 -68.5 -183.5t-169.5 -116.5t-225 -38q-85 0 -174.5 16t-175 57.5t-112.5 100.5v244q43 -178 171.5 -287t317.5 -109q57 0 108 11.5t97.5 36.5t74 72.5t27.5 111.5q0 84 -68.5 137.5t-236.5 93.5q-30 7 -197.5 40.5t-232.5 49.5q-43 11 -50.5 29.5
t21.5 52.5zM248 618q0 -161 59 -282l8 8h2l381 414q-70 172 -217 172q-63 0 -110 -27t-73 -73.5t-38 -99t-12 -112.5z" />
    <glyph glyph-name="g_h" unicode="gh" horiz-adv-x="2146" 
d="M102 98l131 150q-145 104 -145 311q0 177 112.5 285t297.5 108q180 0 290 -96l533 578h14v-629q59 79 137.5 112t184.5 33q94 0 166 -28t118.5 -92.5t47.5 -159.5l8 -539q0 -50 23.5 -87.5t70.5 -37.5v-6h-342v6q50 0 72 36.5t20 88.5l-4 528q-2 129 -52.5 198t-166.5 69
q-114 1 -198.5 -92.5t-84.5 -210.5v-492q0 -50 24 -87.5t73 -37.5v-6h-342v6q50 0 71 36t21 89v1049q0 72 -45 24l-334 -360q106 -106 106 -285q0 -180 -111.5 -283.5t-299.5 -103.5q-146 0 -250 66q-39 -42 -39 -52q0 -28 91.5 -53.5t240 -50.5t174.5 -31q59 -14 106 -35
t88.5 -53t64 -79t21.5 -105q-2 -105 -68.5 -183.5t-169.5 -116.5t-225 -38q-85 0 -174.5 16t-175 57.5t-112.5 100.5v244q43 -178 171.5 -287t317.5 -109q57 0 108 11.5t97.5 36.5t74 72.5t27.5 111.5q0 84 -68.5 137.5t-236.5 93.5q-30 7 -197.5 40.5t-232.5 49.5
q-43 11 -50.5 29.5t21.5 52.5zM307 336l8 8l2 -2l381 416q-70 172 -217 172q-63 0 -110 -27t-73 -73.5t-38 -99t-12 -112.5q0 -161 59 -282zM317 317q74 -127 197 -127q64 0 111 24.5t73.5 67.5t39 94.5t12.5 112.5q0 136 -43 250l-377 -405h2q-4 -6 -15 -17z" />
    <glyph glyph-name="t_h" unicode="th" horiz-adv-x="1689" 
d="M55 911h-75v19q148 15 218.5 87.5t86.5 207.5h14l-2 -295h207v-19h-207v-684q0 -39 5 -68.5t17.5 -57.5t38.5 -43.5t64 -16.5q53 0 113 68q35 42 93.5 161.5t96.5 212.5v707q0 52 -14 63t-66 9v4l221 168h13v-666q119 177 305 182q167 4 256.5 -73t91.5 -207l8 -539
q1 -36 10.5 -62t25 -39t30 -18.5t28.5 -5.5v-6h-342v6q38 0 65.5 28t26.5 97l-4 528q0 29 -2 52.5t-14 66.5t-33.5 72.5t-66.5 52.5t-107 23q-95 0 -188 -97q-43 -44 -84.5 -106.5t-64.5 -104.5t-83 -155q-19 -37 -53 -116.5t-67 -143t-70 -109.5q-85 -104 -205 -104
q-84 0 -141.5 53.5t-57.5 171.5v600q0 57 -15.5 76.5t-72.5 19.5zM633 6q38 0 65 28t27 97v262l154 281v-543q0 -68 31 -96.5t65 -28.5v-6h-342v6z" />
    <glyph glyph-name="t_i" unicode="ti" horiz-adv-x="1019" 
d="M51 911h-76v19q146 -1 223.5 65t77.5 154h19v-221h74.5h83.5t82 3.5t84.5 9.5t74.5 18.5t69 30.5t51.5 46t37.5 64q-28 -25 -70 -25q-43 0 -73.5 31t-30.5 74q0 41 30.5 71.5t73.5 30.5q50 0 78.5 -27.5t28.5 -74.5q0 -62 -31 -119q-16 -31 -42 -56t-57 -40.5t-68.5 -27
t-76.5 -17t-81 -9t-82.5 -3.5t-80.5 -1t-75 0l-2 -680q0 -108 72 -151q44 -23 102 -19t96 27v-6q-30 -42 -91.5 -65t-133.5 -23q-84 0 -141.5 53.5t-57.5 171.5v600q0 57 -15.5 76.5t-72.5 19.5zM963 0h-342v6q38 0 65 28t27 97v594q0 26 -1 36t-8 20.5t-20.5 13t-40.5 2.5
h-10v4l221 129h12l2 -799q0 -68 30.5 -96.5t64.5 -28.5v-6z" />
    <glyph glyph-name="w_i" unicode="wi" horiz-adv-x="1992" 
d="M8 924v6h377v-6q-34 -7 -51 -27.5t-15.5 -42.5t7.5 -41l229 -487q13 -28 20.5 -42.5t15.5 -24t12.5 -9.5t12 9.5t13.5 24t16 42.5l193 557l252 -584q12 -28 17.5 -40t13.5 -21.5t11.5 -9.5t11.5 9.5t13.5 21.5t18.5 40l219 492q143 315 241 428q56 63 119 63
q44 0 74.5 -30t30.5 -72q0 -43 -30.5 -74t-74.5 -31q-43 0 -73.5 31t-30.5 74q0 10 4 26q-95 -105 -242 -428l-358 -788l-250 581q-21 48 -28 46.5t-25 -50.5l-203 -577l-402 833q-22 43 -66 72t-73 29zM1935 0h-342v6q38 0 65.5 28t27.5 97v594q0 26 -1 36t-8 20.5
t-20.5 13t-40.5 2.5h-10v4l221 129h12l2 -799q0 -68 30 -96.5t64 -28.5v-6z" />
    <glyph glyph-name="v_i" unicode="vi" horiz-adv-x="1523" 
d="M152 823q-22 42 -66 71.5t-74 29.5v6h377v-6q-34 -7 -51 -27.5t-15.5 -42.5t7.5 -41l243 -514q24 -50 37 -63.5t26 0t36 63.5l221 492q134 301 252 434q48 57 119 57q43 0 73.5 -30.5t30.5 -71.5q0 -43 -30.5 -74t-73.5 -31t-74 31t-31 74q0 10 4 26q-116 -125 -254 -428
l-356 -788zM1122 6q38 0 65 28t27 97v594q0 26 -1 36t-7.5 20.5t-20 13t-40.5 2.5h-10v4l221 129h12l2 -799q0 -68 30 -96.5t64 -28.5v-6h-342v6z" />
    <glyph glyph-name="a_p" unicode="ap" horiz-adv-x="2119" 
d="M158 383q15 12 30 23t31.5 21t29 17.5t31.5 17t28 14.5t30.5 14t28 12t30 12.5t27.5 11.5q140 57 192.5 107.5t51.5 144.5q-2 76 -57 121t-162 31q-95 -13 -187.5 -96.5t-167.5 -210.5v168q58 75 156.5 115.5t200.5 43.5q356 10 356 -325v-379q51 36 145.5 126t155.5 158
v195q0 46 -11 59t-59 13h-10v4l221 129h13v-191q117 202 311 211q145 6 244.5 -53t144.5 -163.5t45 -248.5q0 -232 -126.5 -370t-356.5 -138q-161 0 -262 101v-479q0 -68 31 -96.5t65 -28.5v-6h-342v6q38 0 65 28t27 97v866l166 201q-12 -50 -12 -93v-444
q37 -62 101.5 -95.5t137.5 -33.5q75 0 134.5 27.5t97.5 72.5t63.5 106.5t36 125t10.5 131.5q0 43 -3 83.5t-12 87.5t-23 87t-37.5 78t-54 64.5t-74 42.5t-95.5 16q-21 0 -41 -3.5t-39.5 -13.5t-34 -17.5t-33.5 -26t-29.5 -28t-30 -33.5t-26.5 -33t-27.5 -37t-25.5 -34
q-30 -42 -73.5 -98.5t-63.5 -83.5q-180 -194 -311 -289q-44 -31 -101.5 -77.5t-91.5 -72t-83 -52t-106.5 -37.5t-131.5 -9q-112 3 -172 54q-61 52 -64 137q-1 60 26 119t73 96zM221 205q0 -94 49.5 -145.5t120.5 -53.5q77 -3 168 55q36 24 100 76l-6 467q-67 -24 -118 -46
t-114 -59t-103.5 -77t-68.5 -96.5t-28 -120.5zM662 86l145 115v-39q0 -50 15.5 -79t64.5 -28q30 0 53 23v-10q-20 -34 -61 -56t-93 -22q-53 0 -83 28.5t-41 67.5z" />
    <glyph glyph-name="e_p" unicode="ep" horiz-adv-x="2127" 
d="M70 465q0 129 51 231q58 119 171.5 186.5t252.5 67.5q69 0 127 -15.5t100 -43t74 -65t47.5 -82t21.5 -94.5t-4 -101l-680 -109q12 -124 62 -219q53 -96 138 -143t183 -47q141 0 285 172q83 99 217 307v215q0 46 -10.5 59t-58.5 13h-11v4l221 129h13v-191q117 202 311 211
q145 6 244.5 -53t144.5 -163.5t45 -248.5q0 -232 -126.5 -370t-356.5 -138q-161 0 -262 101v-479q0 -68 31 -96.5t65 -28.5v-6h-342v6q38 0 65 28t27 97v827l166 246q-12 -49 -12 -92v-451q37 -62 101.5 -95.5t137.5 -33.5q75 0 134.5 27.5t97.5 72.5t63.5 106.5t36 125
t10.5 131.5q0 43 -3 83.5t-12 87.5t-23 87t-37.5 78t-54 64.5t-74 42.5t-95.5 16q-21 0 -41 -3.5t-39.5 -13.5t-34.5 -18t-33 -25.5t-29 -28t-29.5 -33.5t-26.5 -33t-27.5 -36.5t-25.5 -34.5q-49 -67 -163.5 -244.5t-184.5 -265.5q-168 -209 -388 -209q-104 0 -195 37
t-153 109q-112 128 -112 342zM319 817q-52 -60 -74 -154.5t-16 -199.5l371 69q39 8 100 37q48 24 71.5 63.5t21.5 84.5q-1 64 -28 110.5t-68 69t-93.5 29t-104 -5t-99.5 -38t-81 -65.5z" />
    <glyph glyph-name="c_h" unicode="ch" horiz-adv-x="2084" 
d="M74 465q0 129 51 231q58 119 171.5 186.5t252.5 67.5q249 0 350 -116v-195q-22 45 -41 78.5t-50 75.5t-62.5 69t-75.5 46t-92 20q-68 2 -138.5 -29.5t-115.5 -85.5q-57 -68 -78.5 -179t-6 -222t59.5 -191q53 -97 135.5 -143.5t179.5 -46.5q66 0 136 39.5t118.5 84
t110 128t82.5 117.5t64 107q10 16 14 23v660q0 52 -14 63t-66 9v4l221 168h12v-666q119 177 305 182q168 4 257.5 -73t91.5 -207l8 -539q1 -36 10.5 -62t25 -39t30 -18.5t28.5 -5.5v-6h-342v6q38 0 65.5 28t26.5 97l-4 528q0 29 -2 52.5t-14 66.5t-33.5 72.5t-66.5 52.5
t-107 23q-96 0 -189 -97q-40 -41 -87.5 -106.5t-69.5 -100t-82 -130.5q-120 -191 -173 -260q-142 -185 -301 -235q-66 -20 -139 -20q-216 0 -344 146q-112 128 -112 342zM1047 0v6q38 0 65 28t27 97v307l153 236v-543q0 -68 31.5 -96.5t65.5 -28.5v-6h-342z" />
    <glyph glyph-name="c_k" unicode="ck" horiz-adv-x="1976" 
d="M125 696q58 119 171.5 186.5t252.5 67.5q249 0 350 -116v-195q-22 45 -41 78.5t-50 75.5t-62.5 69t-75.5 46t-92 20q-68 2 -138.5 -29.5t-115.5 -85.5q-57 -68 -78.5 -179t-6 -222t59.5 -191q53 -97 138.5 -146.5t193.5 -45.5q263 9 469 321v840q0 45 -11 59t-59 13h-10
v4l221 168h12v-906q13 18 43.5 61.5t47 66t47 62.5t52 61.5t53.5 52t60.5 46.5t62.5 31.5t70.5 20t75.5 0.5l52 -187q-72 70 -130.5 93.5t-119 -2t-119 -90t-137.5 -183.5q99 44 208 16t164 -100q34 -45 65.5 -113t46.5 -112.5t44 -136.5q14 -51 45 -80t60 -29v-6h-261
q0 45 -13.5 112.5t-41 144t-63.5 142.5t-87 110.5t-106 45.5q-109 0 -254 -219q-235 -359 -581 -359q-104 0 -196 37t-155 109q-112 128 -112 342q0 129 51 231zM1100 131v139l157 205q-4 -24 -4 -37v-307q0 -68 31.5 -96.5t65.5 -28.5v-6h-342v6q38 0 65 28t27 97z" />
    <glyph glyph-name="c_t" unicode="ct" horiz-adv-x="1566" 
d="M74 465q0 129 51 231q58 119 171.5 186.5t252.5 67.5q123 0 209 -30q-60 59 -93.5 121.5t-33.5 150.5q0 73 28.5 133.5t76 98t106 58t121.5 21.5q126 2 217 -73t90 -209l-2 -291h207v-19h-207v-684q0 -109 71 -151q44 -23 102.5 -19t96.5 27v-6q-30 -42 -91.5 -65
t-133.5 -23q-84 0 -141.5 53.5t-57.5 171.5v600q0 57 -15.5 76.5t-72.5 19.5h-76v19q114 6 190.5 65t93 140t-1.5 160.5t-91 134t-178 53.5q-80 -1 -149 -33t-115 -99.5t-46 -158.5q0 -96 45.5 -167t122.5 -132q41 -18 78 -59v-195q-22 45 -41 78.5t-50 75.5t-62.5 69
t-75.5 46t-92 20q-68 2 -138.5 -29.5t-115.5 -85.5q-57 -68 -78.5 -179t-6 -222t59.5 -191q53 -96 137.5 -143t181.5 -47q164 0 289 157l13 -8q-57 -88 -155 -145.5t-230 -57.5q-104 0 -195 37t-154 109q-112 128 -112 342z" />
    <glyph glyph-name="f_t" unicode="ft" horiz-adv-x="1210" 
d="M152 797v11q0 30 -2 44t-13 30.5t-38.5 22.5t-73.5 6v19h127v170q0 150 98.5 242t251.5 92q130 0 221 -58v-174q-27 44 -48.5 73t-53.5 62.5t-70 51t-82 18.5q-61 3 -113 -18q-60 -26 -94.5 -85.5t-36.5 -124t28 -125.5t89 -91q58 -30 154 -33q146 -4 229 31
q152 63 174 264h14l-2 -295h207v-19h-207v-684q0 -108 72 -151q44 -23 102.5 -19t96.5 27v-6q-30 -42 -91.5 -65t-134.5 -23q-84 0 -141 53.5t-57 171.5v600q0 57 -15.5 76.5t-72.5 19.5h-174h-191v-780q0 -68 31 -96.5t65 -28.5v-6h-342v6q38 0 65.5 28t27.5 97v666z" />
    <glyph glyph-name="i_n" unicode="in" horiz-adv-x="1540" 
d="M86 1180q0 38 29 67q10 15 28 33q62 54 151.5 74t178.5 -2.5t145 -83.5q40 -44 59 -103t19.5 -117.5t-0.5 -127.5v-138q56 84 133.5 124.5t190.5 43.5q166 4 255.5 -73t92.5 -207l6 -539q1 -68 31 -96.5t65 -28.5v-6h-344v6q38 0 66.5 28t28.5 97l-7 528q0 29 -2 52.5
t-14 66.5t-33.5 72.5t-66.5 52.5t-107 23q-115 0 -196.5 -93.5t-81.5 -209.5l2 -492q0 -68 30 -96.5t64 -28.5v-6h-342v6q38 0 65 28t27 97v594q0 46 -11 59t-59 13h-10v4l201 125q4 118 -9.5 193.5t-66.5 135.5q-48 54 -126 75t-158 7.5t-140 -55.5h10q44 0 74.5 -30
t30.5 -72q0 -43 -30.5 -74t-74.5 -31q-43 0 -73.5 31t-30.5 74zM371 0h-342v6q38 0 65 28t27 97v594q0 26 -1 36t-8 20.5t-20.5 13t-40.5 2.5h-10v4l221 129h12l2 -799q0 -68 30.5 -96.5t64.5 -28.5v-6z" />
    <glyph glyph-name="i_r" unicode="ir" horiz-adv-x="1220" 
d="M115 1247q10 15 28 33q62 54 151.5 74t178.5 -2.5t145 -83.5q59 -64 76 -147t13 -201v-222q32 51 62 89.5t71.5 78.5t92 62t105.5 22q106 0 138 -49v-178q-11 38 -62 76.5t-117 38.5q-69 0 -136.5 -33t-141.5 -127v-547q0 -68 31 -96.5t65 -28.5v-6h-342v6q38 0 65 28
t27 97v594q0 46 -10.5 59t-58.5 13h-11v4l205 127q3 108 -14.5 187t-71.5 140q-48 54 -126 75t-158 7.5t-140 -55.5h10q44 0 74.5 -30t30.5 -72q0 -43 -30.5 -74t-74.5 -31q-43 0 -73.5 31t-30.5 74q0 38 29 67zM121 131v594q0 26 -1 36t-8 20.5t-20.5 13t-40.5 2.5h-10v4
l221 129h12l2 -799q0 -68 30.5 -96.5t64.5 -28.5v-6h-342v6q38 0 65 28t27 97z" />
    <glyph glyph-name="c_r" unicode="cr" horiz-adv-x="1783" 
d="M74 465q0 129 51 231q58 119 171.5 186.5t252.5 67.5q249 0 350 -116v-195q-22 45 -41 78.5t-50 75.5t-62.5 69t-75.5 46t-92 20q-68 2 -138.5 -29.5t-115.5 -85.5q-57 -68 -78.5 -179t-6 -222t59.5 -191q53 -97 135.5 -143.5t179.5 -46.5q118 0 250 129q41 39 85 93
t70 90t64 92t45 65v225q0 46 -10.5 59t-58.5 13h-10v4l208 129h13v-232q32 50 62 89t72 79t92.5 62t105.5 22q105 0 137 -49v-178q-11 38 -61.5 76.5t-116.5 38.5q-151 0 -283 -168q-123 -167 -150 -205q-18 -26 -56.5 -82.5t-61.5 -89.5t-58.5 -77.5t-68.5 -78.5
q-157 -160 -353 -160q-216 0 -344 146q-112 128 -112 342zM1036 0v6q38 0 65 28t27 97v297l154 205v-502q0 -68 31 -96.5t65 -28.5v-6h-342z" />
    <glyph glyph-name="f_f" unicode="ff" horiz-adv-x="1302" 
d="M152 797v11q0 30 -2 44t-13 30.5t-38.5 22.5t-73.5 6v19h127v170q0 150 98.5 242t251.5 92q130 0 221 -58v-174q-27 44 -48.5 73t-53.5 62.5t-70 51t-82 18.5q-61 3 -113 -18q-60 -26 -94.5 -85.5t-36.5 -124t28 -125.5t89 -91q62 -33 172 -33h244v170q0 150 98.5 242
t251.5 92q130 0 221 -58v-174q-27 44 -48.5 73t-53.5 62.5t-70 51t-82 18.5q-60 3 -112 -18q-80 -35 -113.5 -122t-6.5 -175.5t105 -128.5q62 -33 172 -33v-19h-209v-780q0 -68 31.5 -96.5t65.5 -28.5v-6h-342v6q38 0 65 28t27 97v666q0 36 -3.5 55t-17 34t-38.5 20t-68 5
h-221h-105v-780q0 -68 31 -96.5t65 -28.5v-6h-342v6q38 0 65.5 28t27.5 97v666z" />
    <glyph glyph-name="f_i" unicode="fi" horiz-adv-x="1030" 
d="M25 911v19h127v170q0 152 95.5 243t254.5 91q96 0 204.5 -34t170.5 -106v-254q-8 15 -25 45q-25 46 -38.5 69.5t-39.5 63t-45 61t-49 49t-59.5 41.5t-68.5 25t-83 13q-107 5 -176.5 -62t-69.5 -176q0 -65 31 -121.5t88 -84.5q62 -33 172 -33v-19h-209v-780
q0 -68 31 -96.5t65 -28.5v-6h-342v6q38 0 65.5 28t27.5 97v666v11q0 30 -2 44t-13 30.5t-38.5 22.5t-73.5 6zM975 6v-6h-342v6q38 0 65 28t27 97v594q0 26 -1 36t-8 20.5t-20.5 13t-40.5 2.5h-10v4l221 129h13l2 -799q0 -68 30 -96.5t64 -28.5z" />
    <glyph glyph-name="f_f_i" unicode="ffi" horiz-adv-x="1648" 
d="M18 911v19h127v170q0 150 99 242t252 92q130 0 221 -58v-174q-27 44 -48.5 73t-53.5 62.5t-70 51t-82 18.5q-61 3 -113 -18q-60 -26 -94.5 -85.5t-36.5 -124t28 -125.5t89 -91q62 -30 160 -33h272v170q0 152 95.5 243t252.5 91q97 0 206 -34t171 -106v-254q-8 15 -25 45
q-25 46 -38.5 69.5t-39.5 63t-45 61t-49 49t-59.5 41.5t-68.5 25t-83 13q-107 5 -176 -62t-69 -176q0 -65 30.5 -121.5t85.5 -84.5q65 -33 174 -33v-19h-208v-780q0 -68 31 -96.5t65 -28.5v-6h-342v6q38 0 65 28t27 97v666q0 58 -7 74q-23 39 -122 40h-143h-197v-780
q0 -68 31 -96.5t65 -28.5v-6h-342v6q38 0 65 28t27 97v666v11q0 30 -2 44t-13 30.5t-38.5 22.5t-73.5 6zM1591 0h-342v6q38 0 65 28t27 97v594q0 26 -1 36t-7.5 20.5t-20 13t-40.5 2.5h-10v4l221 129h12l2 -799q0 -68 30 -96.5t64 -28.5v-6z" />
    <glyph glyph-name="s_t" unicode="st" horiz-adv-x="1454" 
d="M618 164q0 45 -24 82.5t-63.5 62.5t-90 50.5t-103 45.5t-102.5 48t-89.5 58t-63 75t-23.5 100q1 68 32 121t82.5 83t111 45t123.5 15q118 0 225 -37q-57 55 -86 120.5t-29 158.5q0 73 28.5 133.5t76 98t106 58t121.5 21.5q126 2 217 -73t90 -209l-2 -291h207v-19h-207
v-684q0 -108 72 -151q44 -23 102 -19t96 27v-6q-30 -42 -91.5 -65t-133.5 -23q-84 0 -141.5 53.5t-57.5 171.5v600q0 57 -15.5 76.5t-72.5 19.5h-75v19q114 6 190.5 65t93 140t-1.5 160.5t-91.5 134t-178.5 53.5q-80 -1 -148.5 -33t-114.5 -99.5t-46 -158.5q0 -184 161 -309
v-197q-3 4 -11 28.5t-18 49t-32.5 55.5t-51 54.5t-77.5 40t-109 16.5q-81 0 -146.5 -42.5t-68.5 -119.5q-2 -41 16.5 -74.5t51 -58.5t75 -47t90 -42t95.5 -40.5t91.5 -46t77 -55.5t53.5 -72t20 -92q0 -74 -30.5 -127.5t-82.5 -81.5t-110.5 -41t-126.5 -13t-167 18t-163 56
l-2 195l10.5 -28t19 -39t30.5 -47.5t43 -46t58 -43t76 -30t95 -14.5q99 -3 154.5 40t55.5 126z" />
    <glyph glyph-name="g_a" unicode="ga" horiz-adv-x="1964" 
d="M248 618q0 -52 7.5 -107t27 -113.5t49 -104t76.5 -74.5t106 -29q64 0 111 24.5t73.5 67.5t39 94.5t12.5 112.5q0 53 -7.5 109t-27 116.5t-49 107.5t-77.5 77.5t-108 30.5q-63 0 -110 -27t-73 -73.5t-38 -99t-12 -112.5zM1389 6q86 -3 174 54.5t88 125.5v418
q-67 -24 -118 -46t-114 -59t-103.5 -77t-68.5 -96.5t-28 -120.5q0 -94 49.5 -145.5t120.5 -53.5zM702 911l21 -10q89 -46 137.5 -133.5t48.5 -208.5q0 -180 -111.5 -283.5t-299.5 -103.5q-160 0 -265 76q-30 -46 -30 -62q0 -28 93 -53.5t242.5 -50.5t176.5 -31
q59 -14 106 -35t88.5 -53t64 -79t21.5 -105q-2 -105 -68.5 -183.5t-169.5 -116.5t-225 -38q-85 0 -174.5 16t-175 57.5t-112.5 100.5v244q43 -178 171.5 -287t317.5 -109q57 0 108 11.5t97.5 36.5t74 72.5t27.5 111.5q0 84 -68.5 137.5t-236.5 93.5q-30 7 -197.5 40.5
t-232.5 49.5q-43 11 -49 28t20 54l115 162q-129 107 -129 299q0 177 112.5 285t297.5 108q114 0 204 -41zM754 881q130 100 305 100q68 0 120.5 -22t77.5 -62q17 -28 17 -54.5t-16 -43.5t-36.5 -25t-45 1t-41.5 34q-43 65 -82 97.5t-97 35.5q-92 3 -202 -61zM1362 915v5
q62 30 135 30q63 0 119 -18q188 -64 188 -307v-463q0 -50 15.5 -79t64.5 -28q30 0 53 23v-10q-20 -34 -60.5 -56t-92.5 -22q-35 0 -61.5 14t-40 36t-20 41t-7.5 36q-68 -74 -147.5 -108.5t-215.5 -31.5q-112 3 -172 54t-63 137q-2 60 25 119t73 96q15 12 30 23t31.5 21
t29 17.5t31.5 17t28 14.5t30.5 14t28 12t30 12.5t27.5 11.5q140 57 192.5 107.5t51.5 144.5q-3 85 -72 131q-50 30 -123 27q-50 0 -108 -21z" />
    <glyph glyph-name="r_a" unicode="ra" horiz-adv-x="1529" 
d="M705 383q15 12 30 23t31.5 21t29 17.5t31.5 17t28 14.5t30.5 14t28 12t30 12.5t27.5 11.5q140 57 192 107.5t51 144.5q-3 86 -71 131q-50 30 -123 27q-51 0 -109 -21l-2 5q61 30 135 30q66 0 121 -18q92 -31 140.5 -109t48.5 -198v-463q0 -50 15.5 -79t64.5 -28
q30 0 53 23v-10q-20 -34 -61 -56t-93 -22q-35 0 -61.5 14t-40 36t-20 41t-7.5 36q-68 -74 -147 -108.5t-215 -31.5q-112 3 -172 54q-61 52 -64 137q-1 60 26 119t73 96zM938 6q86 -3 174 54.5t88 125.5v418q-67 -24 -118 -46t-114 -59t-103.5 -77t-68.5 -96.5t-28 -120.5
q0 -94 49.5 -145.5t120.5 -53.5zM137 131v594q0 46 -10.5 59t-58.5 13h-11v4l215 129h13v-221q48 104 147 172.5t217 68.5q96 0 142 -28q49 -28 44 -76q-5 -40 -41 -56q-46 -20 -100 27q-69 60 -153 57q-72 -3 -139.5 -54.5t-110.5 -129.5v-559q0 -68 31 -96.5t65 -28.5v-6
h-342v6q38 0 65 28t27 97z" />
    <glyph glyph-name=".notdef" horiz-adv-x="512" 
 />
    <glyph glyph-name=".null" horiz-adv-x="0" 
 />
    <glyph glyph-name="nonmarkingreturn" horiz-adv-x="682" 
 />
    <glyph glyph-name="NULL" horiz-adv-x="0" 
 />
    <glyph glyph-name="NULL" horiz-adv-x="0" 
 />
    <glyph glyph-name="CR" unicode="&#xd;" horiz-adv-x="512" 
 />
    <glyph glyph-name="space" unicode=" " horiz-adv-x="409" 
 />
    <glyph glyph-name="exclam" unicode="!" horiz-adv-x="452" 
d="M152 1434h147q-3 -182 -18 -433.5t-33.5 -491.5t-18.5 -247h-10q-1 23 -12.5 178t-22 305t-20.5 349t-12 340zM225 158q37 0 63.5 -26t26.5 -64q0 -37 -26.5 -64t-63.5 -27q-38 0 -65 27t-27 64q0 38 27 64t65 26z" />
    <glyph glyph-name="quotedbl" unicode="&#x22;" horiz-adv-x="425" 
d="M188 1372q-1 -39 -10.5 -86.5t-20.5 -86.5t-12 -48h-14q-1 9 -13 47.5t-22 86t-10 87.5q-1 29 25 41t52 0.5t25 -41.5zM252 1372q0 29 26 41t51.5 0.5t24.5 -41.5q-1 -39 -10.5 -86.5t-20.5 -86.5t-12 -48h-14q-1 9 -13 47.5t-22 86t-10 87.5z" />
    <glyph glyph-name="numbersign" unicode="#" horiz-adv-x="1198" 
d="M150 467v72h227l61 221h-202v71h223l116 410h72l-117 -410l258 3l117 407h72l-117 -407h203v-72h-223l-62 -221h197l2 -72h-219l-86 -301h-72l86 299h-258l-86 -299h-72l86 299h-206zM510 760l-61 -221h258l61 223z" />
    <glyph glyph-name="dollar" unicode="$" horiz-adv-x="1177" 
d="M145 1040q0 87 34 155t92 110.5t129.5 65.5t152.5 28v78h25v-76h16q37 0 57 -2v78h27v-78q219 -17 321 -84v-271q-34 114 -120.5 205t-200.5 119v-602q55 -24 89.5 -40.5t83 -43t79.5 -49t66 -55t54.5 -65.5t32.5 -75.5t13 -89.5q0 -75 -23 -135.5t-61.5 -100.5
t-93.5 -68.5t-113.5 -43t-126.5 -20.5v-52h-27v52q-24 -3 -51 -3h-22v-49h-25v52q-110 6 -219.5 32.5t-167.5 77.5v291q36 -155 138 -257t249 -120v643q-46 20 -68 30.5t-64.5 31t-64.5 33.5t-56 35.5t-52.5 41t-41 44.5t-34 52t-19.5 58t-8 67zM266 1124q0 -53 21.5 -98
t64 -82t89 -64.5t112.5 -58.5v555q-56 -4 -105.5 -21t-91 -47t-66 -77.5t-24.5 -106.5zM946 264q0 59 -20 108.5t-59.5 89t-83.5 68.5t-105 60v-588q116 15 192 80t76 182zM578 637v-637h73v602q-72 35 -73 35zM590 1378h-12v-569q25 -10 73 -33v596q-27 6 -61 6z" />
    <glyph glyph-name="percent" unicode="%" horiz-adv-x="1314" 
d="M422 1446q149 4 227 -100q65 -86 50 -199q-15 -116 -107 -181q-74 -53 -182 -53q-105 0 -177 54t-89 131.5t0 155.5t92 134t186 58zM975 524q151 3 230 -102q64 -86 49 -198q-16 -115 -107 -179q-75 -53 -182 -53q-76 0 -136 29t-91 75t-45.5 102t0 112.5t46.5 103.5
t94 77.5t142 32.5zM276 1212q0 -277 150 -282q35 -1 61 20t39.5 56t19.5 70.5t7 74.5q1 51 -4.5 95.5t-19.5 88t-43.5 70t-71.5 27.5q-39 1 -67 -20t-42.5 -56.5t-21 -70.5t-7.5 -73zM981 6q35 -1 60.5 20t38.5 56.5t19 71t7 75.5q2 50 -3.5 95t-19.5 87.5t-43 69t-71 27.5
q-51 2 -83.5 -36t-43 -83.5t-11.5 -97.5q-1 -41 2 -77t13 -75t26 -67t44 -46.5t65 -19.5zM102 0l1190 1434h11l-1113 -1434h-88z" />
    <glyph glyph-name="ampersand" unicode="&#x26;" horiz-adv-x="1472" 
d="M82 346q-3 143 71 261t205 171q-47 84 -67 142q-29 72 -40.5 141t2 144t56.5 136q49 67 136 102.5t184 33.5q95 -2 176 -34t127 -91v-277q-117 367 -328 381q-92 6 -157.5 -59t-71.5 -174q-6 -87 37 -201q67 -178 245 -405.5t353 -370.5q38 74 50 165.5t-2.5 176t-68 148
t-137.5 77.5l268 -4q11 -180 -6.5 -313t-89.5 -263q22 -19 49 -36q144 -101 250 -101q95 0 129 72q-11 -93 -60 -143t-149 -50q-134 0 -321 136q-141 -133 -359 -136q-74 0 -140.5 12t-129 39.5t-108 69.5t-73.5 106t-30 144zM244 416q0 -168 108.5 -283.5t274.5 -114.5
q154 0 276 107q-40 30 -53 43q-127 106 -247.5 252t-213.5 301q-4 7 -12 22.5t-12 22.5q-57 -52 -89 -150.5t-32 -199.5z" />
    <glyph glyph-name="quotesingle" unicode="'" horiz-adv-x="272" 
d="M195 1372q-1 -39 -10.5 -86.5t-20.5 -86.5t-12 -48h-15q-1 9 -13 47.5t-22 86t-10 87.5q-1 29 25.5 41t52.5 0.5t25 -41.5z" />
    <glyph glyph-name="parenleft" unicode="(" horiz-adv-x="704" 
d="M109 719q0 222 59.5 402.5t169.5 285.5q139 134 367 127v-10q-78 0 -142.5 -22.5t-109.5 -60t-79.5 -92t-55.5 -114t-34 -133t-17.5 -141t-4.5 -144.5q0 -106 8.5 -203.5t26.5 -195t50.5 -177.5t76.5 -143.5t108 -101t142 -43.5v-6h-31q-143 0 -253 70.5t-177 199.5
q-104 195 -104 502z" />
    <glyph glyph-name="parenright" unicode=")" horiz-adv-x="655" 
d="M18 -41q78 1 142.5 23.5t109.5 59.5t79.5 92t55.5 114.5t34 133t17.5 141.5t4.5 145q0 106 -8.5 203t-26.5 194.5t-50.5 177.5t-76.5 143.5t-108 101t-142 42.5v8h31q143 0 253 -70.5t177 -199.5q104 -195 104 -504q0 -222 -59.5 -401.5t-169.5 -286.5
q-137 -132 -367 -125v8z" />
    <glyph glyph-name="asterisk" unicode="*" horiz-adv-x="649" 
d="M129 1192q-28 14 -28.5 42t21.5 45t50 3q27 -12 52 -32t50 -45.5t35 -33.5q-3 10 -15.5 44.5t-20 66t-7.5 61.5q1 18 11.5 30.5t25 15.5t29.5 0.5t25 -15t10 -31.5q0 -41 -21.5 -105.5t-21.5 -66.5q10 8 35 33.5t50 45.5t52 32q17 8 32 5t24 -15.5t13 -27t-3 -29.5
t-23 -23q-27 -12 -58.5 -18t-67 -9.5t-48.5 -5.5q12 -2 48 -5.5t67.5 -10t58.5 -19.5q16 -8 23 -22.5t3 -28.5t-13 -26.5t-24 -16t-32 3.5q-27 13 -51.5 32.5t-51 46.5t-34.5 34q3 -13 15.5 -46t20 -64t7.5 -60q0 -31 -25 -44t-50 0t-26 44q0 29 7.5 60t20 64t15.5 46
q-11 -9 -36.5 -34.5t-50 -45.5t-50.5 -33q-28 -13 -50 4.5t-21.5 45t28.5 40.5q26 13 57 19.5t68 10t49 5.5q-13 2 -49.5 5.5t-67.5 9.5t-57 18zM309 1169l-6 -10l6 -12h15l4 12l-4 12q-3 0 -8 -1t-7 -1z" />
    <glyph glyph-name="plus" unicode="+" horiz-adv-x="954" 
d="M201 602h239v266h74v-266h244v-72h-244v-264h-74v264h-239v72z" />
    <glyph glyph-name="comma" unicode="," horiz-adv-x="319" 
d="M154 174q38 0 65 -27t27 -65q0 -48 -35 -109q-44 -70 -76 -94h-10q22 25 36.5 58.5t14.5 56.5q-3 0 -10.5 -1t-11.5 -1q-38 0 -65.5 26.5t-27.5 63.5q0 38 27.5 65t65.5 27z" />
    <glyph glyph-name="hyphen" unicode="-" horiz-adv-x="870" 
d="M145 602h584v-72h-584v72z" />
    <glyph glyph-name="period" unicode="." horiz-adv-x="309" 
d="M72 68q0 38 27 64t65 26t65 -26t27 -64q0 -37 -27 -64t-65 -27t-65 27t-27 64z" />
    <glyph glyph-name="slash" unicode="/" horiz-adv-x="776" 
d="M102 0h-86l760 1434h10z" />
    <glyph glyph-name="zero" unicode="0" horiz-adv-x="1099" 
d="M231 129q-135 184 -135 582q0 386 129 573q56 78 139.5 119t176.5 43q95 0 180.5 -41.5t142.5 -120.5q129 -187 129 -573q0 -398 -135 -582q-56 -75 -139 -114.5t-176 -39.5q-91 0 -173.5 40t-138.5 114zM260 709q0 -410 90 -580q33 -63 84 -96t109 -35q59 0 111.5 33.5
t86.5 97.5q88 172 88 580q0 404 -86 575q-34 69 -88 105t-114 34q-57 -2 -109.5 -37.5t-85.5 -101.5q-86 -177 -86 -575z" />
    <glyph glyph-name="one" unicode="1" horiz-adv-x="585" 
d="M498 0h-375v6q37 0 73.5 35.5t36.5 95.5v928q0 29 -0.5 42t-4 29t-10 19.5t-19 5t-30.5 -5t-46 -18.5v6l256 291h10v-1297q0 -60 36 -95.5t73 -35.5v-6z" />
    <glyph glyph-name="two" unicode="2" horiz-adv-x="1112" 
d="M113 0q217 237 279 310q442 514 458 806q8 139 -55.5 229.5t-190.5 90.5q-47 0 -90 -11.5t-77 -30t-68 -50.5t-59 -62.5t-55 -78t-50.5 -85t-50.5 -94.5v240q185 191 469 194q163 3 276 -86q117 -89 117 -264q0 -75 -27 -155t-77 -156.5t-104.5 -145t-127 -139.5
t-125.5 -119.5t-118.5 -105.5t-88.5 -78q-22 -20 -32 -31t-17 -23t-1 -17t23.5 -8.5t49.5 -2.5l415 8q47 2 74 5.5t59 14t55 32t44 57.5h6l-78 -244h-833z" />
    <glyph glyph-name="three" unicode="3" horiz-adv-x="1058" 
d="M100 117l-2 233q18 -63 39.5 -112.5t53 -95t71 -75.5t93.5 -47.5t120 -17.5q94 0 170 53.5t116 136.5t40 175q0 162 -113 270.5t-272 91.5q132 53 227.5 177.5t95.5 262.5q0 112 -61.5 189.5t-171.5 77.5q-259 0 -397 -412v240q167 194 415 194q158 0 260.5 -75.5
t102.5 -227.5q0 -121 -86.5 -217.5t-212.5 -159.5q158 -14 266.5 -117t108.5 -258q0 -127 -63 -225t-166 -148t-228 -50q-264 0 -406 137z" />
    <glyph glyph-name="four" unicode="4" horiz-adv-x="1067" 
d="M57 442l807 992l2 -863h11q70 0 110 66l-43 -195h-78v-305q0 -60 37 -95.5t74 -35.5v-6h-375v6q37 0 73 35.5t36 95.5v305h-654zM711 1208l-527 -645l527 6v639z" />
    <glyph glyph-name="five" unicode="5" horiz-adv-x="1032" 
d="M113 365q17 -58 38 -108t53.5 -100t70.5 -84t90 -54t112 -17q79 4 137.5 41.5t90.5 99t46.5 131t14.5 148.5q0 68 -12.5 130t-40 117t-67 96.5t-97.5 67.5t-129 31q-105 7 -268 -73l22 643h588h11h12.5t11.5 0.5t13 1t11.5 2t12 3.5t10 5t10 7t8.5 9h4l-51 -164h-620
l-21 -471q141 72 309 72q210 0 328.5 -120.5t118.5 -336.5q0 -126 -50 -229.5t-149.5 -168t-232.5 -64.5q-246 0 -365 108z" />
    <glyph glyph-name="six" unicode="6" horiz-adv-x="1085" 
d="M86 612q7 214 71 400t191 299q155 133 344 133q114 0 189 -37l10 -231q-31 104 -92 172.5t-135 68.5q-135 0 -242 -149q-74 -107 -119.5 -259.5t-60.5 -279.5q34 87 126.5 134.5t204.5 49.5q182 1 291 -122t109 -322q0 -142 -49 -251.5t-151.5 -175t-244.5 -65.5
q-101 0 -180 36.5t-128.5 97t-81 144t-43.5 171.5t-9 186zM254 506q0 -56 8.5 -119t30.5 -133.5t54 -126.5t84.5 -92.5t117.5 -36.5q54 0 97 21t70.5 58.5t46.5 82t28.5 99t13.5 100t4 94.5q0 74 -15.5 145t-47.5 137.5t-91 107t-137 40.5q-71 0 -124.5 -36.5t-82.5 -95.5
t-43 -121t-14 -124z" />
    <glyph glyph-name="seven" unicode="7" horiz-adv-x="1110" 
d="M84 1165l70 269h874q-251 -285 -428 -702.5t-182 -731.5h-158q0 118 39.5 259t99 269t140 263.5t152 237.5t145.5 196q44 55 37.5 65.5t-82.5 7.5l-527 -24q-67 -3 -102.5 -21.5t-77.5 -87.5z" />
    <glyph glyph-name="eight" unicode="8" horiz-adv-x="1118" 
d="M186 98q-84 87 -84 221q0 122 81.5 219t207.5 138q38 13 46 20t2.5 14.5t-38.5 30.5q-15 11 -24 17q-45 32 -73.5 54t-62 55t-53 63.5t-32.5 72t-13 87.5q0 160 114.5 256t281.5 102q181 6 295 -83t114 -249q0 -205 -231 -301q-17 -7 -43 -16q-14 -5 -19 -7t-8 -6t1.5 -7
t14.5 -10t25 -16q11 -6 17 -10q70 -42 118 -77.5t96 -86t72.5 -112t24.5 -133.5q0 -184 -150 -279q-122 -78 -315 -78q-109 0 -207.5 31t-157.5 90zM483 688q-73 -26 -125.5 -88.5t-76 -138.5t-17 -158t41.5 -149t109.5 -110.5t176.5 -43.5q111 0 190.5 74t79.5 186
q0 41 -14.5 82t-34.5 73t-56.5 69t-63 60t-74 55.5t-69.5 46.5t-67 42zM279 1190q0 -56 19 -105.5t39.5 -81t73 -73t78.5 -58t97 -58.5q19 -11 28 -17q66 33 109.5 94t58.5 129.5t4.5 141t-44 129.5t-96.5 93t-144 35q-97 -2 -160 -66t-63 -163z" />
    <glyph glyph-name="nine" unicode="9" horiz-adv-x="1101" 
d="M78 952q0 141 49 250.5t151 175.5t244 66q98 0 176 -35t127 -92.5t81.5 -136.5t45.5 -161t13 -173q0 -84 -6 -163.5t-23 -168t-43.5 -164t-70 -146t-100.5 -119.5t-138 -78.5t-178 -29.5q-51 0 -139 20t-122 44l-32 266q79 -307 311 -307q70 0 128.5 35.5t97.5 95.5
t68 131.5t45.5 153t25 148t10.5 128.5q-36 -90 -126.5 -137t-195.5 -47q-127 0 -219 60t-136 159t-44 225zM242 969q0 -73 15 -144t47 -137.5t91 -107.5t137 -41q68 0 121 35.5t83 92t45.5 120t15.5 126.5q0 57 -8.5 121t-30.5 134.5t-54 126t-84.5 92t-117.5 36.5
t-114 -31.5t-76 -78.5t-43.5 -112t-21.5 -119t-5 -113z" />
    <glyph glyph-name="colon" unicode=":" horiz-adv-x="385" 
d="M139 190q0 37 27 64t65 27q37 0 64 -27t27 -64q0 -38 -27 -65t-64 -27q-38 0 -65 27t-27 65zM139 743q0 38 27 64.5t65 26.5q37 0 64 -26.5t27 -64.5q0 -37 -27 -63.5t-64 -26.5q-38 0 -65 26.5t-27 63.5z" />
    <glyph glyph-name="semicolon" unicode=";" horiz-adv-x="385" 
d="M139 190q0 37 27 64t65 27q37 0 64 -27.5t27 -65.5q0 -56 -35 -106q-35 -63 -76 -94h-10q22 24 36.5 57t14.5 57q-12 -4 -21 -4q-38 0 -65 27t-27 65zM139 743q0 38 27 64.5t65 26.5q37 0 64 -26.5t27 -64.5q0 -37 -27 -63.5t-64 -26.5q-38 0 -65 26.5t-27 63.5z" />
    <glyph glyph-name="less" unicode="&#x3c;" horiz-adv-x="845" 
d="M111 582l583 368v-96l-547 -285l547 -286v-97l-583 369v27z" />
    <glyph glyph-name="equal" unicode="=" horiz-adv-x="1044" 
d="M211 752h586v-72h-586v72zM211 455h586v-72h-586v72z" />
    <glyph glyph-name="greater" unicode="&#x3e;" horiz-adv-x="886" 
d="M735 555l-583 -369v97l546 286l-546 285v96l583 -368v-27z" />
    <glyph glyph-name="question" unicode="?" horiz-adv-x="948" 
d="M190 1073l-59 158q99 220 373 223q88 0 167.5 -23.5t125.5 -72.5q48 -50 63.5 -118.5t2 -135t-49.5 -125.5q-31 -51 -89.5 -116t-112 -122.5t-105.5 -127.5t-84.5 -159.5t-34.5 -191.5h-10q-2 105 15 195t46 154t65 120.5t72 106.5t66 100t48.5 112.5t17.5 133.5
q-2 114 -56 182t-149 68q-60 0 -110 -25.5t-82.5 -62.5t-58 -89t-39 -95t-22.5 -89zM299 68q0 38 27 64t65 26t65 -26t27 -64q0 -37 -27 -64t-65 -27t-65 27t-27 64z" />
    <glyph glyph-name="at" unicode="@" horiz-adv-x="1693" 
d="M866 1356q154 0 285 -57.5t219.5 -156.5t138.5 -233t50 -286q0 -62 -9.5 -129.5t-34 -140t-60 -129t-93 -93.5t-127.5 -37q-46 0 -80.5 21t-53.5 57t-29.5 74t-14.5 82q-56 -63 -123 -91.5t-182 -25.5q-93 0 -144 45q-53 42 -53 115q-1 51 21.5 100t60.5 80
q78 63 223 123q119 47 163.5 89t43.5 122q-2 64 -48.5 102t-137.5 27q-79 -11 -155.5 -81.5t-141.5 -176.5v139q49 63 131.5 97.5t167.5 37.5q301 6 301 -274v-389q0 -250 88 -250q48 0 80.5 42.5t46 110t18 118.5t4.5 101q0 124 -21.5 240.5t-71 225t-122 189t-182.5 129
t-244 48.5q-171 0 -292 -74.5t-179.5 -202.5t-58.5 -296q0 -121 28 -238t85 -221t137 -183t191 -125.5t239 -46.5q143 0 237 37l2 -6q-147 -65 -325 -65q-325 0 -520 199.5t-195 525.5q0 217 92.5 383.5t260 257t384.5 90.5zM690 401q0 -79 42 -121t102 -44q73 -3 147 45
t74 106v352q-56 -20 -99.5 -39t-96 -50.5t-87.5 -65t-58.5 -81.5t-23.5 -102z" />
    <glyph glyph-name="A" unicode="A" horiz-adv-x="1456" 
d="M35 0v6q98 16 172 146l543 1282l505 -1284q29 -71 80 -107.5t86 -36.5v-6h-409v6q38 11 58 38t19 53t-6 46l-135 346h-573l-146 -350q-24 -55 14.5 -93t84.5 -40v-6h-293zM385 512h555l-223 571q-18 47 -31 62t-26 3t-31 -56z" />
    <glyph glyph-name="B" unicode="B" horiz-adv-x="1257" 
d="M51 1427v7h268h271q234 0 348.5 -82.5t114.5 -253.5q0 -136 -75 -221t-212 -97q91 -6 156.5 -27.5t121.5 -68.5q122 -108 119 -311q-3 -125 -73 -217.5t-177 -124.5q-47 -15 -96.5 -22t-83 -8t-100.5 -1h-582v6q32 0 69.5 44.5t37.5 86.5v1161q0 42 -37.5 85.5
t-69.5 43.5zM459 23h108q205 0 318 87t114 261q1 86 -28 155t-76.5 112.5t-113 72t-132.5 40t-141 11.5q-9 0 -34.5 1t-38 0.5t-34 -3t-33.5 -9.5t-25 -18.5t-18.5 -31t-5.5 -46.5v-518q0 -114 140 -114zM596 786q84 0 135 25.5t96 77.5q75 84 72 235q-3 95 -43.5 159.5
t-112.5 92.5q-84 33 -284 33q-140 0 -140 -115v-510q47 0 133 1t144 1z" />
    <glyph glyph-name="C" unicode="C" horiz-adv-x="1345" 
d="M723 -23q-162 0 -289.5 57.5t-207.5 159t-121.5 235t-41.5 290.5q0 151 47 285.5t133 235t215 159.5t283 59q95 0 180 -14t173.5 -55t142.5 -107v-213q-75 166 -197.5 266.5t-289.5 100.5q-108 0 -197 -38t-148.5 -102t-101 -150.5t-60 -180t-18.5 -193.5q0 -252 88 -424
q70 -136 209 -219.5t293 -83.5q128 0 242.5 65t195.5 173l7 -7q-85 -146 -225.5 -222.5t-311.5 -76.5z" />
    <glyph glyph-name="D" unicode="D" horiz-adv-x="1384" 
d="M39 0v6q31 0 67.5 44.5t36.5 86.5v1161q0 42 -36 85.5t-68 43.5v7h266h332q161 0 282 -50t196.5 -144.5t112.5 -225.5t36 -297q-2 -160 -41 -289.5t-116.5 -226t-201.5 -149t-287 -52.5h-579zM305 1298v-1161q0 -53 33 -83.5t92 -30.5h162q111 0 199 42t144 110t93.5 160
t53 186t16.5 194q1 116 -10 208t-43 180.5t-85 149.5t-140.5 102t-205.5 50q-68 6 -184 6q-60 0 -92.5 -30t-32.5 -83z" />
    <glyph glyph-name="E" unicode="E" horiz-adv-x="1187" 
d="M41 1434h991l49 -240q-50 75 -136.5 146t-164.5 71h-352q-60 0 -92.5 -30t-32.5 -83v-1161q0 -53 33 -83.5t92 -30.5h317q63 0 120.5 21.5t101.5 57t75.5 72t55.5 76.5l-66 -250h-991v6q32 0 69 44.5t37 86.5v1161q0 42 -37 85.5t-69 43.5v7zM537 733q153 8 222 23
t92.5 41.5t31.5 85.5h4v-322h-4q-5 33 -11 52.5t-20 40t-36.5 31.5t-60 21.5t-90 16.5t-128.5 10z" />
    <glyph glyph-name="F" unicode="F" horiz-adv-x="1173" 
d="M43 0v6q37 0 74 35.5t37 95.5v1161q0 42 -37.5 85.5t-69.5 43.5v7h991l49 -240q-50 75 -136.5 146t-164.5 71h-352q-60 0 -92.5 -30t-32.5 -83v-440q0 -53 32.5 -83t92.5 -30h236q65 0 106.5 8.5t64.5 27.5t33 42t15 60h4v-322h-4q-6 42 -16 67.5t-32.5 49.5t-64.5 34.5
t-106 10.5h-361v-586q0 -60 36 -95.5t73 -35.5v-6h-375z" />
    <glyph glyph-name="G" unicode="G" horiz-adv-x="1417" 
d="M737 -23q-160 0 -290 57.5t-214 158t-129 235t-45 291.5q0 151 47 285.5t133 235t215 159.5t283 59q149 0 283.5 -41t212.5 -135v-213q-51 115 -116.5 193t-162.5 125t-219 47q-108 0 -196 -34t-147.5 -93t-100 -140t-58.5 -172.5t-18 -193.5q0 -107 20 -215.5t66 -215
t111 -188t164 -132t217 -50.5q42 0 91 9.5t99.5 28t83.5 54.5t33 82v365q0 38 -36 65.5t-77.5 38t-77.5 10.5v9h457v-9q-48 0 -79.5 -40.5t-31.5 -88.5v-526l-125 90q-83 -44 -106 -55.5t-74.5 -30t-95.5 -22t-117 -3.5z" />
    <glyph glyph-name="H" unicode="H" horiz-adv-x="1378" 
d="M150 137v1159q0 60 -37 95.5t-74 35.5v7h375v-7q-37 0 -73 -35.5t-36 -95.5v-551h731v551q0 60 -35.5 95.5t-72.5 35.5v7h375v-7q-37 0 -74 -35.5t-37 -95.5v-1159q0 -60 37 -95.5t74 -35.5v-6h-375v6q37 0 72.5 35.5t35.5 95.5v586h-731v-586q0 -60 36 -95.5t73 -35.5
v-6h-375v6q37 0 74 35.5t37 95.5z" />
    <glyph glyph-name="I" unicode="I" horiz-adv-x="550" 
d="M47 1434h375v-7q-37 0 -74 -35.5t-37 -95.5v-1159q0 -60 37 -95.5t74 -35.5v-6h-375v6q37 0 74 35.5t37 95.5v1159q0 60 -37 95.5t-74 35.5v7z" />
    <glyph glyph-name="J" unicode="J" horiz-adv-x="692" 
d="M10 215q9 -63 29.5 -107t46.5 -63.5t45.5 -27t36.5 -7.5q69 0 114.5 60t45.5 178v1048q0 60 -37 95.5t-74 35.5v7h375v-7q-37 0 -73 -35.5t-36 -95.5l-2 -977q0 -326 -309 -329q-78 -4 -162 10v215z" />
    <glyph glyph-name="K" unicode="K" horiz-adv-x="1282" 
d="M426 0h-375v6q37 0 73 35.5t36 95.5v1159q0 60 -36 95.5t-73 35.5v7h375v-7q-37 0 -74 -35.5t-37 -95.5v-577q76 124 120.5 194.5t131 188.5t152.5 181.5t151 111t160 39.5l82 -238q-47 51 -96.5 75t-95 24t-96 -24t-93.5 -57.5t-92.5 -87.5t-89 -104.5t-86.5 -116.5
l586 -760q87 -116 178 -139v-6h-387v6q28 8 40.5 25t9.5 36.5t-10.5 37t-19.5 32.5l-489 633q-1 -2 -8 -11.5t-9.5 -13.5t-9 -14.5t-9.5 -18t-7.5 -20t-6.5 -24.5t-4 -27.5t-2 -32.5v-471q0 -60 37 -95.5t74 -35.5v-6z" />
    <glyph glyph-name="L" unicode="L" horiz-adv-x="1214" 
d="M45 0v6q37 0 74 35.5t37 95.5v1159q0 60 -37 95.5t-74 35.5v7h375v-7q-37 0 -73 -35.5t-36 -95.5v-1159q0 -53 33 -83.5t92 -30.5h318q63 0 120.5 21.5t101 57t75 72t55.5 76.5l-66 -250h-995z" />
    <glyph glyph-name="M" unicode="M" horiz-adv-x="1701" 
d="M35 0v6q38 0 91.5 40.5t53.5 90.5v1159q0 41 -40 86t-72 45v7h266l473 -951q22 -46 35.5 -66t27.5 -20.5t27 19.5t33 65l416 953h243v-7q-37 0 -64.5 -34.5t-27.5 -96.5v-1159q0 -60 37 -95.5t74 -35.5v-6h-375v6q37 0 73.5 35.5t36.5 95.5l3 1082q0 21 -1 36.5
t-2.5 26.5t-4.5 16.5t-7 6.5t-9.5 -4t-12 -15.5t-15 -27t-18.5 -39.5l-469 -1088l-543 1090q-9 19 -16 32t-13 23.5t-10 15t-8 5t-6 -3.5t-3.5 -13.5t-2 -24t-0.5 -34.5v-1084q0 -50 59 -90.5t98 -40.5v-6h-327z" />
    <glyph glyph-name="N" unicode="N" horiz-adv-x="1359" 
d="M367 0h-328v6q38 0 91.5 40.5t53.5 90.5v1159q0 41 -42 86t-74 45v7h229l780 -1053q37 -51 52.5 -47t15.5 69v893q0 50 -60.5 90.5t-99.5 40.5v7h328v-7q-38 0 -92 -40.5t-54 -90.5v-1296l-899 1221q-15 21 -23.5 31t-16.5 15.5t-11.5 -2t-5.5 -24.5t-2 -49v-1055
q0 -50 59.5 -90.5t98.5 -40.5v-6z" />
    <glyph glyph-name="O" unicode="O" horiz-adv-x="1523" 
d="M98 715q0 158 46.5 294t132.5 236t215.5 156.5t287.5 56.5q122 0 227 -39.5t181 -109.5t130 -164.5t80.5 -204.5t26.5 -229q0 -212 -75.5 -376.5t-227.5 -261t-362 -96.5q-156 0 -282.5 57t-209 157t-126.5 234t-44 290zM727 1430q-104 0 -187 -35.5t-136 -93.5
t-88.5 -137.5t-50.5 -163.5t-15 -175q0 -83 11.5 -170t35.5 -182t67 -178t100.5 -150t141.5 -106t185 -39q105 0 188.5 31.5t138 85.5t91 129t52 157t15.5 175q0 71 -8 146t-26.5 159.5t-47 161.5t-73 148t-99.5 123t-131 83t-164 31z" />
    <glyph glyph-name="P" unicode="P" horiz-adv-x="1208" 
d="M53 0v6q37 0 74 35.5t37 95.5v1159q0 60 -37 95.5t-74 35.5v7h590q300 0 412 -170q47 -70 62.5 -165.5t-5 -190t-74.5 -158.5q-133 -160 -442 -156l-279 2v-459q0 -60 37 -95.5t74 -35.5v-6h-375zM317 1296v-563q0 -117 111 -117h133q158 0 264 78q81 62 115 186
t10 250.5t-100 194.5q-98 88 -279 88h-143q-111 0 -111 -117z" />
    <glyph glyph-name="Q" unicode="Q" horiz-adv-x="1523" 
d="M784 1458q152 0 276.5 -61t204 -164.5t122.5 -237.5t43 -284q0 -158 -44 -292t-127 -232.5t-210 -154t-285 -55.5q-14 0 -76 5q69 -22 197 -84q91 -46 179.5 -64.5t178 5.5t141.5 102l9 -4q-54 -83 -127.5 -132.5t-149 -61.5t-146.5 -3t-134 37q-36 16 -93 45.5t-96 49.5
t-92.5 40t-95.5 26t-91.5 -2.5t-93.5 -35.5l-6 8q77 52 134 75t137 23q14 0 22 -2q-218 65 -338.5 257t-120.5 454q0 158 46.5 294t132.5 236t215.5 156.5t287.5 56.5zM795 0q105 0 188.5 31.5t138 85.5t91 129t52 157t15.5 175q0 71 -8 146t-26.5 159.5t-47 161.5t-73 148
t-99.5 123t-131 83t-164 31q-104 0 -187 -35.5t-136 -93.5t-88.5 -137.5t-50.5 -163.5t-15 -175q0 -83 11.5 -170t35.5 -182t67 -178t100.5 -150t141.5 -106t185 -39z" />
    <glyph glyph-name="R" unicode="R" horiz-adv-x="1316" 
d="M156 137v1159q0 60 -37 95.5t-74 35.5v7h590q300 0 412 -170q72 -104 68.5 -240t-85.5 -233q-99 -119 -293 -146q179 -35 242 -250q97 -326 209 -354q48 -8 65 0l4 -6q-18 -22 -63.5 -33.5t-97.5 -11.5q-81 1 -131.5 48t-87.5 130q-17 43 -41 121.5t-47 139t-52 99.5
q-80 104 -182 107l-246 2v-500q0 -60 37 -95.5t74 -35.5v-6h-375v6q37 0 74 35.5t37 95.5zM309 1296v-522q0 -117 111 -117h133q158 0 264 78q81 62 115 175.5t10 229.5t-100 185q-98 88 -279 88h-143q-111 0 -111 -117z" />
    <glyph glyph-name="S" unicode="S" horiz-adv-x="1155" 
d="M104 1081q0 97 40 171.5t107.5 118t148.5 65.5t171 22q106 0 228 -21.5t192 -68.5v-283q-41 142 -158 245.5t-266 103.5q-63 0 -121.5 -15.5t-108 -46.5t-79 -83t-29.5 -118q0 -62 29 -114.5t77.5 -91t111.5 -73t133 -65.5t140 -63t133 -71t111.5 -84t77.5 -107.5
t29 -136.5q0 -87 -29.5 -155.5t-78.5 -111.5t-117 -71t-138.5 -39t-150.5 -11q-113 0 -248 28.5t-205 88.5v303q42 -178 167 -287.5t302 -109.5q52 0 101 9.5t94 31t78 53t52.5 78.5t19.5 104q0 88 -45 157.5t-116.5 116t-158.5 87l-174 81t-158.5 87.5t-116.5 117t-45 159z
" />
    <glyph glyph-name="T" unicode="T" horiz-adv-x="1341" 
d="M29 1194l49 240h1147l51 -240q-53 76 -139 146.5t-164 70.5h-119q-60 0 -92.5 -30t-32.5 -83v-1161q0 -60 36 -95.5t73 -35.5v-6h-373v6q37 0 72.5 35.5t35.5 95.5v1161q0 53 -32.5 83t-91.5 30h-119q-78 0 -164.5 -71t-136.5 -146z" />
    <glyph glyph-name="U" unicode="U" horiz-adv-x="1349" 
d="M41 1436h373v-9q-37 0 -73 -35t-36 -96v-759q0 -191 42.5 -306.5t123 -164t209.5 -48.5q201 0 313.5 131.5t112.5 393.5v753q0 50 -59.5 90.5t-98.5 40.5v7h328v-7q-38 0 -93 -40.5t-55 -90.5v-764q0 -270 -122 -412.5t-336 -142.5q-96 0 -169.5 13t-142 50t-112.5 98
t-70 161.5t-26 237.5v759q0 61 -36 96t-73 35v9z" />
    <glyph glyph-name="V" unicode="V" horiz-adv-x="1460" 
d="M35 1427v7h409v-7q-38 -11 -58.5 -38t-20 -53t5.5 -46l368 -940q18 -47 30.5 -61.5t25.5 -2.5t32 56l387 924q24 57 -10.5 108t-77.5 53v7h295v-7q-45 -7 -93.5 -54t-92.5 -122l-530 -1251l-504 1284q-29 70 -80.5 106.5t-85.5 36.5z" />
    <glyph glyph-name="W" unicode="W" horiz-adv-x="2136" 
d="M201 1284q-29 70 -80.5 106.5t-85.5 36.5v7h409v-7q-38 -11 -58 -38t-19.5 -53t4.5 -46l348 -893q18 -46 32 -62.5t27.5 -4t28.5 56.5l311 932l352 -965q17 -46 28.5 -59.5t23 0t28.5 59.5l359 908q23 57 -15 110t-82 55v7h295v-7q-32 0 -91 -52t-87 -124l-493 -1251
l-344 940q-23 60 -39.5 60t-36.5 -60l-311 -940z" />
    <glyph glyph-name="X" unicode="X" horiz-adv-x="1443" 
d="M340 0h-303v6q119 18 199 133l370 600l-391 588q-26 39 -76.5 69.5t-79.5 30.5v7h398v-7q-38 -11 -53 -46t2 -58l286 -434q32 -51 53 -52t52 46l254 415q23 39 -12 83t-76 46v7h294v-7q-99 -15 -184 -133l-311 -510l450 -678q26 -39 76.5 -69.5t79.5 -30.5v-6h-393v6
q38 12 52 47t-5 58l-330 497q-45 68 -71.5 69t-69.5 -69l-293 -475q-22 -39 10 -82t72 -45v-6z" />
    <glyph glyph-name="Y" unicode="Y" horiz-adv-x="1384" 
d="M35 1434h409v-7q-38 -11 -57.5 -38.5t-17.5 -53.5t8 -45l297 -534q17 -31 26 -46.5t21 -31t17 -21t14.5 -5.5t14.5 5t16 20t18.5 30t23.5 45l273 514q23 57 -11.5 108t-76.5 53v7h293v-7q-46 -8 -95 -53.5t-90 -118.5l-282 -538q-39 -76 -54.5 -141t-15.5 -166v-273
q0 -60 37 -95.5t74 -35.5v-6h-375v6q37 0 73.5 35.5t36.5 95.5v273q0 148 -75 292l-330 582q-39 68 -89.5 105.5t-82.5 37.5v7z" />
    <glyph glyph-name="Z" unicode="Z" horiz-adv-x="1218" 
d="M66 0l772 1298q46 72 34.5 92.5t-112.5 20.5h-383q-77 0 -164 -71.5t-137 -145.5l49 240h977l-772 -1299q-46 -72 -34.5 -92t112.5 -20h419q77 0 164 71.5t137 145.5l-49 -240h-1013z" />
    <glyph glyph-name="bracketleft" unicode="[" horiz-adv-x="653" 
d="M176 1516l363 14v-14l-209 -15v-1524l209 -14v-14l-363 14v1553z" />
    <glyph glyph-name="backslash" unicode="\" horiz-adv-x="860" 
d="M739 0l-684 1434h11l759 -1434h-86z" />
    <glyph glyph-name="bracketright" unicode="]" horiz-adv-x="630" 
d="M76 -37l209 14v1524l-209 15v14l362 -14v-1553l-362 -14v14z" />
    <glyph glyph-name="asciicircum" unicode="^" horiz-adv-x="747" 
d="M115 1112l192 354h82l197 -354h-15l-223 266l-219 -266h-14z" />
    <glyph glyph-name="underscore" unicode="_" 
d="M195 -2l718 2v-72l-718 -2v72z" />
    <glyph glyph-name="grave" unicode="`" horiz-adv-x="405" 
d="M367 1071h-21l-328 213h166z" />
    <glyph glyph-name="a" unicode="a" horiz-adv-x="980" 
d="M158 383q15 12 30 23t31.5 21t29 17.5t31.5 17t28 14.5t30.5 14t28 12t30 12.5t27.5 11.5q140 57 192.5 107.5t51.5 144.5q-2 76 -57 121t-162 31q-95 -13 -187.5 -96.5t-167.5 -210.5v168q58 75 156.5 115.5t200.5 43.5q356 10 356 -325v-463q0 -50 15.5 -79t64.5 -28
q30 0 53 23v-10q-20 -34 -61 -56t-93 -22q-35 0 -61.5 14t-40 36t-20 41t-7.5 36q-68 -74 -147 -108.5t-215 -31.5q-112 3 -172 54q-61 52 -64 137q-1 60 26 119t73 96zM221 205q0 -94 49.5 -145.5t120.5 -53.5q86 -3 174 54.5t88 125.5v418q-67 -24 -118 -46t-114 -59
t-103.5 -77t-68.5 -96.5t-28 -120.5z" />
    <glyph glyph-name="b" unicode="b" horiz-adv-x="1099" 
d="M29 1266l225 168h8v-680q44 90 125.5 140.5t185.5 55.5q109 4 193 -28t136.5 -95t79 -149t26.5 -193q0 -232 -127 -370t-357 -138q-185 0 -288 132l-127 -115v1196q0 45 -11 59t-59 13h-10v4zM262 575v-446q35 -62 100.5 -95.5t139.5 -33.5q75 0 134.5 27.5t97.5 72.5
t63.5 106.5t36 125t10.5 131.5q0 62 -7 119t-27 121t-52 111t-87.5 77.5t-127.5 30.5q-64 0 -118.5 -31t-89 -81t-54 -111.5t-19.5 -123.5z" />
    <glyph glyph-name="c" unicode="c" horiz-adv-x="991" 
d="M186 123q-112 128 -112 342q0 129 51 231q58 119 171.5 186.5t252.5 67.5q249 0 350 -116v-195q-22 45 -41 78.5t-50 75.5t-62.5 69t-75.5 46t-92 20q-68 2 -138.5 -29.5t-115.5 -85.5q-57 -68 -78.5 -179t-6 -222t59.5 -191q53 -96 137.5 -143t181.5 -47q164 0 289 157
l13 -8q-57 -88 -155 -145.5t-230 -57.5q-104 0 -195 37t-154 109z" />
    <glyph glyph-name="d" unicode="d" horiz-adv-x="1114" 
d="M57 442q0 232 127 370t357 138q161 0 262 -98v338q-1 26 -2.5 36t-8 21.5t-20.5 13.5t-39 1h-10v4l219 168h14v-1295q0 -44 14 -54.5t77 -10.5h10v-8l-232 -76h-22v184q-44 -90 -126 -141t-185 -56q-216 -9 -325.5 118t-109.5 347zM221 465q0 -43 3 -83.5t12 -87.5
t23 -87t37.5 -78t54 -64.5t74 -42.5t95.5 -16q65 0 120 31t89.5 81t54 111t19.5 123v39v408q-37 62 -102 95.5t-138 33.5q-75 0 -134.5 -27.5t-97.5 -72.5t-63.5 -106.5t-36 -125t-10.5 -131.5z" />
    <glyph glyph-name="e" unicode="e" horiz-adv-x="1009" 
d="M121 696q-51 -102 -51 -231q0 -214 112 -342q62 -72 153 -109t195 -37q132 0 230 57.5t153 145.5l-10 8q-128 -157 -289 -157q-98 0 -183 47t-138 143q-50 95 -62 219l680 109q10 51 4 101t-21.5 94.5t-47.5 82t-74 65t-100 43t-127 15.5q-139 0 -252.5 -67.5
t-171.5 -186.5zM229 463q-6 105 16 199.5t74 154.5q33 39 81 65.5t99.5 38t104 5t93.5 -29t68 -69t28 -110.5q2 -45 -21.5 -84.5t-71.5 -63.5q-61 -29 -100 -37z" />
    <glyph glyph-name="f" unicode="f" horiz-adv-x="696" 
d="M25 930h127v170q0 150 98.5 242t251.5 92q130 0 221 -58v-174q-27 44 -48.5 73t-53.5 62.5t-70 51t-82 18.5q-61 3 -113 -18q-60 -26 -94.5 -85.5t-36.5 -124t28 -125.5t89 -91q62 -33 172 -33v-19h-209v-780q0 -68 31 -96.5t65 -28.5v-6h-342v6q38 0 65.5 28t27.5 97
v666v11q0 30 -2 44t-13 30.5t-38.5 22.5t-73.5 6v19z" />
    <glyph glyph-name="g" unicode="g" horiz-adv-x="1052" 
d="M131 16q-43 11 -49 28t20 54l115 162q-129 107 -129 299q0 177 112.5 285t297.5 108q188 0 299.5 -103.5t111.5 -289.5q0 -180 -111.5 -283.5t-299.5 -103.5q-160 0 -265 76q-30 -46 -30 -62q0 -28 93 -53.5t242.5 -50.5t176.5 -31q59 -14 106 -35t88.5 -53t64 -79
t21.5 -105q-2 -105 -68.5 -183.5t-169.5 -116.5t-225 -38q-85 0 -174.5 16t-175 57.5t-112.5 100.5v244q43 -178 171.5 -287t317.5 -109q57 0 108 11.5t97.5 36.5t74 72.5t27.5 111.5q0 84 -68.5 137.5t-236.5 93.5q-30 7 -197.5 40.5t-232.5 49.5zM248 618q0 -52 7.5 -107
t27 -113.5t49 -104t76.5 -74.5t106 -29q64 0 111 24.5t73.5 67.5t39 94.5t12.5 112.5q0 53 -7.5 109t-27 116.5t-49 107.5t-77.5 77.5t-108 30.5q-63 0 -110 -27t-73 -73.5t-38 -99t-12 -112.5zM799 874q8 89 55 168.5t111 79.5q49 0 67 -35t2.5 -70.5t-47.5 -35.5
q-40 0 -74.5 -8.5t-66.5 -33.5t-47 -65z" />
    <glyph glyph-name="h" unicode="h" horiz-adv-x="1093" 
d="M379 0h-342v6q50 0 71 36t21 89v1059q0 52 -14 63t-66 9v4l221 168h13v-629q59 79 137 112t184 33q94 0 166 -28t118.5 -92.5t47.5 -159.5l8 -539q0 -50 23.5 -87.5t70.5 -37.5v-6h-342v6q50 0 72 36.5t20 88.5l-4 528q-2 129 -52.5 198t-166.5 69q-114 1 -198 -92.5
t-84 -210.5v-492q0 -51 24 -88t72 -37v-6z" />
    <glyph glyph-name="i" unicode="i" horiz-adv-x="428" 
d="M371 0h-342v6q38 0 65 28t27 97v594q0 26 -1 36t-8 20.5t-20.5 13t-40.5 2.5h-10v4l221 129h12l2 -799q0 -68 30.5 -96.5t64.5 -28.5v-6zM190 1282q44 0 74.5 -30t30.5 -72q0 -43 -30.5 -74t-74.5 -31q-43 0 -73.5 31t-30.5 74q0 41 30.5 71.5t73.5 30.5z" />
    <glyph glyph-name="j" unicode="j" horiz-adv-x="419" 
d="M-139 -193q25 -122 83.5 -181.5t123.5 -45.5q21 5 37.5 18t27 26.5t18 38t11 41.5t5 48t2 45.5t0 47.5t-0.5 42v838q0 47 -10 59.5t-58 12.5h-12v4l223 129h13v-1026q0 -217 -97 -295q-77 -58 -209 -55q-99 0 -157 40v213zM127 1180q0 41 30.5 71.5t73.5 30.5
q44 0 74.5 -30t30.5 -72q0 -43 -30.5 -74t-74.5 -31q-43 0 -73.5 31t-30.5 74z" />
    <glyph glyph-name="k" unicode="k" horiz-adv-x="1005" 
d="M379 0h-342v6q38 0 65 28t27 97v1059q0 45 -11 59t-59 13h-10v4l221 168h13v-922q43 71 70.5 114.5t65 95.5t65.5 81.5t65 60t73 44t80 20.5t93 2l51 -187q-57 56 -106.5 80t-94 21.5t-94 -40t-98 -94t-113.5 -149.5q99 44 208.5 16t164.5 -100q26 -34 48 -74t43.5 -98.5
t30.5 -86.5t33 -103q14 -51 45 -80t60 -29v-6h-260q0 57 -22.5 147t-60.5 182t-99.5 158.5t-129.5 67.5q-50 0 -84 -30.5t-34 -98.5v-295q0 -68 31 -96.5t65 -28.5v-6z" />
    <glyph glyph-name="l" unicode="l" horiz-adv-x="444" 
d="M377 0h-342v6q38 0 65 28t27 97v1059q0 45 -11 59t-59 13h-10v4l221 168h13v-1303q0 -68 31 -96.5t65 -28.5v-6z" />
    <glyph glyph-name="m" unicode="m" horiz-adv-x="1755" 
d="M37 6q50 0 71 36t21 89v594q0 46 -11 59t-59 13h-10v4l205 129h12v-148q60 89 142.5 128.5t195.5 39.5q106 0 190.5 -40.5t120.5 -129.5q106 170 338 170q94 0 166 -28t118.5 -92.5t47.5 -159.5l8 -539q0 -50 24 -87.5t71 -37.5v-6h-342v6q50 0 72 36.5t20 88.5l-4 528
q-2 127 -55.5 197.5t-166.5 69.5q-112 0 -194 -95t-82 -208q0 -94 3.5 -265.5t4.5 -226.5q0 -50 23.5 -87.5t70.5 -37.5v-6h-342v6q50 0 72 36.5t20 88.5l-4 528q-3 267 -219 267q-115 0 -198.5 -93t-83.5 -210v-492q0 -51 24 -88t72 -37v-6h-342v6z" />
    <glyph glyph-name="n" unicode="n" horiz-adv-x="1112" 
d="M381 0h-342v6q38 0 65 28t27 97v594q0 46 -11 59t-59 13h-10v4l205 129h12v-148q56 84 133.5 124.5t190.5 43.5q166 4 255.5 -73t92.5 -207l6 -539q1 -68 31 -96.5t65 -28.5v-6h-344v6q38 0 66.5 28t28.5 97l-7 528q0 29 -2 52.5t-14 66.5t-33.5 72.5t-66.5 52.5t-107 23
q-115 0 -196.5 -93.5t-81.5 -209.5l2 -492q0 -68 30 -96.5t64 -28.5v-6z" />
    <glyph glyph-name="o" unicode="o" 
d="M66 461q0 215 126.5 353t339.5 138q223 0 347.5 -133.5t124.5 -357.5q0 -219 -126 -351.5t-343 -132.5t-343 132.5t-126 351.5zM514 924q-63 0 -114 -22.5t-84 -60t-55 -88.5t-31 -105t-9 -113q0 -65 10 -133t34.5 -141t60.5 -129.5t95 -93t132 -36.5q80 0 139 30.5
t92.5 84t49.5 118t16 140.5q0 66 -9.5 135.5t-34 145t-61.5 134t-97 96.5t-134 38z" />
    <glyph glyph-name="p" unicode="p" horiz-adv-x="1138" 
d="M377 -532h-342v6q38 0 65 28t27 97v1126q0 46 -11 59t-59 13h-10v4l221 129h13v-176q44 90 126 140.5t185 55.5q145 6 244.5 -53t144.5 -163.5t45 -248.5q0 -232 -126.5 -370t-356.5 -138q-161 0 -262 101v-479q0 -68 31 -96.5t65 -28.5v-6zM281 575v-446
q37 -62 101.5 -95.5t137.5 -33.5q75 0 134.5 27.5t97.5 72.5t63.5 106.5t36 125t10.5 131.5q0 43 -3 83.5t-12 87.5t-23 87t-37.5 78t-54 64.5t-74 42.5t-95.5 16q-64 0 -119.5 -34.5t-89.5 -87t-53.5 -112t-19.5 -113.5z" />
    <glyph glyph-name="q" unicode="q" horiz-adv-x="1134" 
d="M567 950q80 0 154.5 -24t122.5 -72l125 76h14v-1331q0 -68 30.5 -96.5t65.5 -28.5v-6h-344v6q38 0 66 28t28 97v575q-44 -90 -126 -141t-185 -56q-145 -6 -244.5 53t-144.5 163.5t-45 248.5q0 232 126.5 370t356.5 138zM547 6q86 0 152 53t98 130.5t32 162.5v447
q-37 62 -101.5 95.5t-137.5 33.5q-75 0 -134.5 -27.5t-97.5 -72.5t-63.5 -106.5t-36 -125t-10.5 -131.5q0 -43 3 -83.5t12 -87.5t23 -87t37.5 -78t54 -64.5t74 -42.5t95.5 -16z" />
    <glyph glyph-name="r" unicode="r" horiz-adv-x="792" 
d="M387 0h-342v6q38 0 65 28t27 97v594q0 46 -10.5 59t-58.5 13h-11v4l209 129h13v-232q32 51 62 89.5t71.5 78.5t92 62t105.5 22q106 0 138 -49v-178q-11 38 -62 76.5t-117 38.5q-69 0 -136.5 -33t-141.5 -127v-547q0 -68 31 -96.5t65 -28.5v-6z" />
    <glyph glyph-name="s" unicode="s" horiz-adv-x="858" 
d="M618 164q0 45 -24 82.5t-63.5 62.5t-90 50.5t-103 45.5t-102.5 48t-89.5 58t-63 75t-23.5 100q1 68 32 121t82.5 83t111 45t123.5 15q66 0 154 -16.5t140 -50.5v-197q-3 4 -11 28.5t-18 49t-32.5 55.5t-51 54.5t-77.5 40t-109 16.5q-81 0 -146.5 -42.5t-68.5 -119.5
q-2 -41 16.5 -74.5t51 -58.5t75 -47t90 -42t95.5 -40.5t91.5 -46t77 -55.5t53.5 -72t20 -92q0 -74 -30.5 -127.5t-82.5 -81.5t-110.5 -41t-126.5 -13t-167 18t-163 56l-2 195l10.5 -28t19 -39t30.5 -47.5t43 -46t58 -43t76 -30t95 -14.5q99 -3 154.5 40t55.5 126z" />
    <glyph glyph-name="t" unicode="t" horiz-adv-x="595" 
d="M-20 911v19q148 15 218.5 87.5t86.5 207.5h14l-2 -295h207v-19h-207v-684q0 -108 72 -151q44 -23 102 -19t96 27v-6q-30 -42 -91.5 -65t-133.5 -23q-84 0 -141.5 53.5t-57.5 171.5v600q0 57 -15.5 76.5t-72.5 19.5h-75z" />
    <glyph glyph-name="u" unicode="u" horiz-adv-x="1083" 
d="M29 797v4l219 129h12l4 -643q0 -26 3.5 -55t18.5 -74t39.5 -78.5t73 -58.5t113.5 -25q35 0 77 19t82.5 54.5t67.5 97t27 136.5l2 422q0 46 -11 59t-59 13h-10v4l221 129h13v-791q0 -45 14 -55t76 -10h10v-8l-240 -76h-6v141q-50 -77 -122 -115.5t-185 -38.5
q-166 0 -259 83t-95 212l-6 453q0 42 -15 57t-55 15h-10z" />
    <glyph glyph-name="v" unicode="v" horiz-adv-x="1114" 
d="M12 924v6h377v-6q-34 -7 -51 -27.5t-15.5 -42.5t7.5 -41l243 -514q24 -50 37 -63.5t26 0t36 63.5l221 492q13 42 -25 86.5t-77 46.5v6h286v-6q-44 -7 -89 -47.5t-77 -98.5l-358 -788l-401 833q-22 42 -66 71.5t-74 29.5z" />
    <glyph glyph-name="w" unicode="w" horiz-adv-x="1613" 
d="M8 930h377v-6q-34 -7 -51 -27.5t-15.5 -42.5t7.5 -41l229 -487q13 -28 20.5 -42.5t15.5 -24t12.5 -9.5t12 9.5t13.5 24t16 42.5l193 557l252 -584q12 -28 17.5 -40t13.5 -21.5t11.5 -9.5t11.5 9.5t13.5 21.5t18.5 40l219 492q14 42 -24.5 86.5t-78.5 46.5v6h287v-6
q-44 -7 -88 -47.5t-78 -98.5l-358 -788l-250 581q-21 48 -28 46.5t-25 -50.5l-203 -577l-402 833q-22 43 -66 72t-73 29v6z" />
    <glyph glyph-name="x" unicode="x" horiz-adv-x="1028" 
d="M295 0h-279v6q91 14 170 117l226 346l-224 354q-25 39 -75.5 70t-77.5 31v6h397v-6q-39 -11 -54 -46.5t1 -58.5l139 -225q13 -21 19 -30.5t14.5 -17t12.5 -7.5t12.5 7.5t14.5 17t19 30.5l142 217q17 30 -16 70.5t-72 42.5v6h278v-6q-91 -14 -170 -117l-199 -303l246 -398
q25 -39 76 -69.5t80 -30.5v-6h-389v6q38 11 51 46.5t-4 58.5l-176 284q-18 29 -26 35.5t-17.5 -1t-30.5 -40.5l-176 -270q-17 -30 16 -70.5t72 -42.5v-6z" />
    <glyph glyph-name="y" unicode="y" horiz-adv-x="1120" 
d="M20 930h377v-6q-34 -7 -51 -27.5t-15.5 -42.5t7.5 -41l252 -532q31 -64 43.5 -64t38.5 62l229 512q13 42 -25 86.5t-77 46.5v6h286v-6q-44 -7 -88.5 -47.5t-76.5 -98.5l-322 -710l-178 -394q-12 -26 -26 -50t-38.5 -54t-53.5 -51.5t-70.5 -36t-88.5 -14.5l-61 190
q48 -55 117.5 -59.5t136 43t106.5 133.5l78 170q18 35 17.5 64t-21.5 73l-356 741q-22 42 -66 71.5t-74 29.5v6z" />
    <glyph glyph-name="z" unicode="z" horiz-adv-x="890" 
d="M55 725l33 205h719l-502 -828q-38 -61 -40 -68q-2 -10 12 -13q8 -1 61 -1h231q56 0 142.5 57.5t128.5 117.5l-52 -195h-731l504 827q37 61 38 68q2 10 -12 13q-8 1 -61 1h-237q-53 0 -121 -58.5t-113 -125.5z" />
    <glyph glyph-name="braceleft" unicode="{" horiz-adv-x="483" 
d="M43 731v8q66 34 87.5 88t23.5 162l6 363q1 51 25.5 88t64 55.5t79.5 26.5t83 8v-6q-53 -11 -75 -47t-24 -99l-4 -405q-1 -87 -60.5 -148t-164.5 -86q103 -20 163.5 -82t61.5 -151l4 -406q2 -62 24 -98t75 -47v-6q-42 0 -82.5 8.5t-80 27.5t-64 56t-25.5 88l-6 360
q-2 107 -24 159.5t-87 82.5z" />
    <glyph glyph-name="bar" unicode="|" horiz-adv-x="264" 
d="M168 0h-70l31 1479h16z" />
    <glyph glyph-name="braceright" unicode="}" horiz-adv-x="552" 
d="M74 1524v6q43 0 83 -8t79.5 -26.5t64 -55.5t25.5 -88l6 -363q2 -109 22 -160.5t84 -80.5l6 -9q-66 -34 -88 -88.5t-24 -161.5l-6 -360q-1 -51 -25.5 -88t-64 -56t-80 -27.5t-82.5 -8.5v6q53 11 74.5 47t23.5 98l4 406q1 88 60 148t165 85q-103 22 -163.5 84.5
t-61.5 149.5l-4 405q-2 64 -23.5 100t-74.5 46z" />
    <glyph glyph-name="asciitilde" unicode="~" horiz-adv-x="686" 
d="M45 563l-6 8q123 162 338 47q190 -99 276 27l9 -8q-27 -50 -65.5 -81t-79.5 -40.5t-81 -5t-76 21.5q-50 25 -84 39t-79.5 25t-83.5 3t-68 -36z" />
    <glyph glyph-name="exclamdown" unicode="&#xa1;" horiz-adv-x="452" 
d="M299 0h-147q2 141 12 340t20.5 349t22 304.5t12.5 177.5h10q0 -7 18.5 -246.5t33.5 -491t18 -433.5zM133 1366q0 37 27 63.5t65 26.5q37 0 63.5 -26.5t26.5 -63.5t-26.5 -63.5t-63.5 -26.5q-38 0 -65 26.5t-27 63.5z" />
    <glyph glyph-name="cent" unicode="&#xa2;" horiz-adv-x="991" 
d="M74 465q0 129 51 231q57 118 169 185t249 69l10 529h16l9 -529q225 -8 321 -116v-195q-22 45 -41 78.5t-50 75.5t-62.5 69t-75.5 46t-92 20l12 -897h28q164 0 289 157l13 -8q-50 -78 -133.5 -132.5t-196.5 -67.5l2 -113h-70l2 110q-101 2 -188.5 38.5t-149.5 107.5
q-112 128 -112 342zM299 221q75 -141 227 -180l17 885q-61 -6 -120.5 -36t-98.5 -77q-57 -68 -78.5 -179t-6 -222t59.5 -191z" />
    <glyph glyph-name="sterling" unicode="&#xa3;" horiz-adv-x="1067" 
d="M893 0h-797q41 49 56 67t53.5 67.5t56.5 77t46 75t41.5 83t24.5 80t11 85.5q0 72 -23 139h-219v16l187 55q-23 41 -63.5 96t-68.5 93t-50.5 93.5t-22.5 111.5q0 77 33 137.5t88.5 97.5t121 57t136.5 23q87 3 190.5 -16.5t161.5 -61.5l-4 -276q-3 8 -13 39t-16 47t-19 48
t-25.5 51t-31 46t-40 43.5t-48 32.5t-59.5 23.5t-70 7.5q-101 0 -173 -65.5t-72 -188.5q0 -65 24 -129t54 -107.5t68.5 -101.5t57.5 -101l254 3v-74h-229q27 -119 -49 -260q-21 -40 -53.5 -82.5t-58.5 -70t-68 -70t-60 -62.5h561q63 0 96 18.5t64 69.5z" />
    <glyph glyph-name="currency" unicode="&#xa4;" horiz-adv-x="1019" 
d="M76 682q0 92 36.5 174t100.5 143l-119 111l37 39l125 -115q113 80 254 80q140 0 250 -80l125 115l37 -39l-119 -111q65 -59 102 -141.5t37 -175.5q0 -97 -39.5 -183t-109.5 -147l114 -104l-37 -41l-120 112q-110 -71 -240 -71q-133 0 -246 76l-127 -117l-37 41l119 110
q-67 61 -105 145t-38 179zM129 682q0 -158 111.5 -269.5t269.5 -111.5q157 0 268 111.5t111 269.5q0 157 -111 268t-268 111q-158 0 -269.5 -111t-111.5 -268z" />
    <glyph glyph-name="yen" unicode="&#xa5;" horiz-adv-x="1384" 
d="M35 1434h409v-7q-38 -11 -57.5 -38.5t-17.5 -53.5t8 -45l297 -534q17 -31 26 -46.5t21 -31t17 -21t14.5 -5.5t14.5 5t16 20t18.5 30t23.5 45l273 514q23 57 -11.5 108t-76.5 53v7h293v-7q-46 -8 -95 -53.5t-90 -118.5l-282 -538q-56 -109 -66 -213h215v-72h-219v-102h219
v-72h-219v-121q0 -60 37 -95.5t74 -35.5v-6h-375v6q37 0 73.5 35.5t36.5 95.5v121h-213v72h213v80q0 14 -2 22h-211v72h205q-18 108 -67 198l-330 582q-39 68 -89.5 105.5t-82.5 37.5v7z" />
    <glyph glyph-name="brokenbar" unicode="&#xa6;" horiz-adv-x="423" 
d="M190 1456h72l-2 -657h-72zM186 659h72l-2 -659h-72z" />
    <glyph glyph-name="section" unicode="&#xa7;" horiz-adv-x="1013" 
d="M164 985q-55 68 -55 162q0 76 35 137t92 98t125 56.5t139 19.5q97 0 194 -20t168 -58v-223q-39 116 -143.5 196.5t-222.5 80.5q-63 0 -126.5 -20t-113 -67.5t-49.5 -111.5q0 -56 25 -101.5t67 -77.5t96.5 -60t114.5 -52.5t120.5 -50.5t115 -60t96.5 -74.5t67 -99
t25 -129.5q0 -89 -47 -163q47 -71 47 -162q0 -71 -25.5 -127t-67.5 -92t-99 -59.5t-116 -33.5t-124 -10q-98 0 -200 25t-185 74v247q49 -146 146.5 -234.5t238.5 -88.5q58 0 110.5 12t99.5 37.5t75 71.5t28 108q0 71 -39 127t-101 92.5t-137.5 69.5t-151 68t-137.5 76.5
t-101 106t-39 146.5q0 90 55 164zM211 942q-4 -20 -4 -33q0 -74 45.5 -134t120 -102.5t152 -76t161.5 -73.5t129 -77v15q0 63 -32.5 118t-82.5 93.5t-118.5 76.5t-131.5 65.5t-131 62.5t-108 65z" />
    <glyph glyph-name="dieresis" unicode="&#xa8;" horiz-adv-x="610" 
d="M383 1155q0 34 24.5 59t59.5 25t60.5 -25t25.5 -59q0 -35 -25.5 -59.5t-60.5 -24.5t-59.5 24.5t-24.5 59.5zM145 1239q35 0 59.5 -25t24.5 -59q0 -35 -24.5 -59.5t-59.5 -24.5t-60.5 24.5t-25.5 59.5q0 34 25.5 59t60.5 25z" />
    <glyph glyph-name="copyright" unicode="&#xa9;" horiz-adv-x="1560" 
d="M145 674q0 150 51.5 279.5t140.5 221t213.5 143.5t266.5 52q141 0 265.5 -52t214 -143t141 -221t51.5 -280q0 -198 -88 -358t-242 -249.5t-342 -89.5q-142 0 -266.5 52.5t-213.5 144.5t-140.5 221.5t-51.5 278.5zM817 35q166 0 302 83t214 229.5t78 326.5t-78 326.5
t-214 229.5t-302 83t-302.5 -83t-215 -229.5t-78.5 -326.5t78.5 -326.5t215 -229.5t302.5 -83zM481 690q0 167 103 275q100 108 280 108q45 0 109 -12.5t100 -38.5v-166q-16 86 -80.5 142.5t-130.5 58.5q-65 2 -131 -29.5t-104 -99.5q-59 -101 -47 -253t88 -239
q82 -98 211 -98q71 0 132 33t101 92l8 -4q-96 -158 -272 -158q-179 0 -283 123q-84 100 -84 266z" />
    <glyph glyph-name="guillemotleft" unicode="&#xab;" horiz-adv-x="645" 
d="M610 197l-340 204v82l340 181v-15l-250 -207l250 -231v-14zM57 483l340 181v-15l-250 -207l250 -231v-14l-340 204v82z" />
    <glyph glyph-name="logicalnot" unicode="&#xac;" horiz-adv-x="1153" 
d="M145 530v72h756v-301h-70v229h-686z" />
    <glyph glyph-name="registered" unicode="&#xae;" horiz-adv-x="1593" 
d="M817 1370q141 0 265.5 -52t214 -143t141 -221t51.5 -280q0 -198 -88 -358t-242 -249.5t-342 -89.5q-142 0 -266.5 52.5t-213.5 144.5t-140.5 221.5t-51.5 278.5q0 150 51.5 279.5t140.5 221t213.5 143.5t266.5 52zM817 35q166 0 302 83t214 229.5t78 326.5t-78 326.5
t-214 229.5t-302 83t-302.5 -83t-215 -229.5t-78.5 -326.5t78.5 -326.5t215 -229.5t302.5 -83zM528 309v4q19 0 38.5 19t19.5 51v612q0 32 -19.5 51t-38.5 19v4h314q159 0 219 -90q38 -55 35.5 -126.5t-45.5 -123.5q-50 -64 -156 -78q88 -16 119 -133q46 -173 110 -186
q7 -3 18 -3.5t17 1.5l2 -2q-22 -25 -86 -25q-34 1 -60.5 20t-44 54t-26.5 61.5t-18 63.5q-15 70 -49 110q-24 33 -78 33l-131 2v-264q0 -32 19.5 -51t39.5 -19v-4h-199zM727 666h70q84 0 141 41q66 51 70.5 144.5t-58.5 149.5q-51 48 -147 48h-76q-59 0 -59 -64v-258
q0 -61 59 -61z" />
    <glyph glyph-name="macron" unicode="&#xaf;" horiz-adv-x="694" 
d="M92 737h488v-71h-488v71z" />
    <glyph glyph-name="degree" unicode="&#xb0;" horiz-adv-x="460" 
d="M231 1384q66 0 112 -34.5t46 -98.5t-48.5 -100.5t-115.5 -36.5q-64 0 -109.5 35.5t-45.5 97.5q0 63 48.5 100t112.5 37zM145 1262q0 -51 21 -92.5t67 -41.5q78 0 78 123q0 47 -20.5 84t-63.5 37q-42 0 -62 -32.5t-20 -77.5z" />
    <glyph glyph-name="plusminus" unicode="&#xb1;" horiz-adv-x="1044" 
d="M440 530h-243v72h243v266h74v-266h244v-72h-244v-264h-74v264zM197 176l561 2v-72l-561 -2v72z" />
    <glyph glyph-name="acute" unicode="&#xb4;" horiz-adv-x="450" 
d="M422 1284l-326 -213h-20l180 213h166z" />
    <glyph glyph-name="mu" unicode="&#xb5;" horiz-adv-x="1110" 
d="M33 797v4l219 129h12l4 -643q0 -26 3.5 -55t18.5 -74t39.5 -78.5t73 -58.5t113.5 -25q35 0 77 19t82.5 54.5t67.5 97t27 136.5v422q0 26 -1 36t-8 20.5t-20.5 13t-40.5 2.5h-10v4l223 129h13v-791q0 -45 14 -55t76 -10h10v-8l-240 -76h-8v141q-48 -77 -120 -115.5
t-185 -38.5q-104 0 -181.5 34.5t-121.5 94.5q7 -35 51.5 -179.5t44.5 -200.5q0 -57 -29 -89t-65 -32q-8 0 -15 1t-11.5 4t-8 5.5t-6 8.5t-4 9.5t-2.5 13t-1.5 14t-1.5 16.5t-1 18q-4 98 -4 577l-4 453q-1 43 -15.5 57.5t-54.5 14.5h-10z" />
    <glyph glyph-name="paragraph" unicode="&#xb6;" horiz-adv-x="1193" 
d="M96 1266q113 168 412 168h627l-13 -7q-37 0 -74.5 -22.5t-37.5 -61.5v-1253q0 -38 46.5 -61t86.5 -23l12 -6h-754l13 6q40 0 87.5 23t47.5 61v494q-308 0 -436 151q-84 104 -84 273q0 157 67 258zM184 1008q6 -225 133 -324q91 -68 232 -78v807q-171 -12 -256 -88
q-112 -101 -109 -317zM860 1413h-164v-1323q0 -40 23.5 -62t56.5 -22h4q33 0 56.5 22t23.5 62v1323z" />
    <glyph glyph-name="cedilla" unicode="&#xb8;" horiz-adv-x="520" 
d="M57 -383v135q15 -68 60 -116t96 -48q64 0 99.5 43t35.5 107q0 66 -38 122.5t-101 55.5l53 90h27l-41 -69q56 1 105.5 -16t84.5 -58t35 -99q0 -91 -75.5 -140.5t-172.5 -49.5q-46 0 -95.5 11.5t-72.5 31.5z" />
    <glyph glyph-name="guillemotright" unicode="&#xbb;" horiz-adv-x="649" 
d="M510 442l-250 207v15l340 -181v-82l-340 -204v14zM297 442l-250 207v15l340 -181v-82l-340 -204v14z" />
    <glyph glyph-name="onequarter" unicode="&#xbc;" horiz-adv-x="1112" 
d="M588 205l375 461v-402h4q31 0 53 31l-21 -90h-36v-142q0 -28 17 -43.5t34 -15.5v-4h-174v4q17 0 34 15.5t17 43.5v142h-303zM94 0l758 1434h10l-698 -1434h-70zM274 766h-174v4q18 0 35 15.5t17 43.5v431q0 37 -7 42.5t-45 -10.5v4l119 136h4v-603q0 -28 17 -43.5
t34 -15.5v-4zM891 561l-244 -301l244 4v297z" />
    <glyph glyph-name="onehalf" unicode="&#xbd;" horiz-adv-x="1101" 
d="M967 0h-385q7 8 23 25q62 67 100 111t95.5 119t89 141.5t34.5 121.5q3 65 -26.5 106.5t-88.5 41.5q-37 0 -68 -14t-56.5 -43.5t-43 -58.5t-41.5 -75v111q87 90 217 90q75 3 129 -39q53 -43 53 -123q0 -40 -18.5 -85.5t-43 -81.5t-65 -79.5t-67 -68t-67 -60t-48.5 -43.5
q-25 -23 -25 -29.5t35 -7.5l193 4q42 0 65.5 9.5t42.5 40.5h3zM168 0h-72l758 1434h10zM168 1260q0 37 -6.5 42.5t-44.5 -10.5v4l119 136h6v-603q0 -28 16 -43.5t33 -15.5v-4h-172v4q17 0 33 15.5t16 43.5v431z" />
    <glyph glyph-name="threequarters" unicode="&#xbe;" horiz-adv-x="1118" 
d="M604 205l375 461l2 -402h4q29 0 51 31l-18 -90h-37v-142q0 -28 16.5 -43.5t34.5 -15.5v-4h-174v4q17 0 34 15.5t17 43.5v142h-305zM74 928q23 -77 62.5 -119.5t111.5 -42.5q65 0 108 52t43 118q0 74 -53 124.5t-127 43.5q62 24 107 82.5t45 122.5q0 52 -28.5 87.5
t-80.5 35.5q-118 0 -184 -191v111q78 90 192 90q73 0 120.5 -35t47.5 -104q0 -104 -137 -177q73 -6 122.5 -54t49.5 -120q0 -88 -61 -141t-150 -53q-122 0 -188 61v109zM188 0l758 1434h10l-698 -1434h-70zM907 561l-243 -301l245 4z" />
    <glyph glyph-name="questiondown" unicode="&#xbf;" horiz-adv-x="870" 
d="M137 453q31 51 89.5 116t112 122t105.5 127t84.5 159.5t34.5 191.5h10q2 -105 -15 -195t-46 -154t-64.5 -120t-72 -106t-66 -100t-48 -112.5t-17.5 -133.5q2 -114 56 -182t149 -68q59 0 109 25.5t82.5 62.5t58 88.5t39 94.5t22.5 89l59 -157q-102 -221 -373 -224
q-87 0 -166.5 24t-125.5 73q-48 50 -64 118.5t-2.5 135t49.5 125.5zM559 1454q38 0 65 -26.5t27 -63.5q0 -38 -27 -64t-65 -26t-65 26t-27 64q0 37 27 63.5t65 26.5z" />
    <glyph glyph-name="Agrave" unicode="&#xc0;" horiz-adv-x="1413" 
d="M307 0h-293v6q98 16 172 146l543 1282l506 -1284q29 -71 80 -107.5t86 -36.5v-6h-410v6q38 11 58.5 38t19.5 53t-6 46l-135 346h-574l-145 -350q-24 -55 14 -93t84 -40v-6zM365 512h555l-224 571q-18 47 -31 62t-26 3t-31 -56zM805 1522l-326 213h166l180 -213h-20z" />
    <glyph glyph-name="Aacute" unicode="&#xc1;" horiz-adv-x="1413" 
d="M307 0h-293v6q98 16 172 146l543 1282l506 -1284q29 -71 80 -107.5t86 -36.5v-6h-410v6q38 11 58.5 38t19.5 53t-6 46l-135 346h-574l-145 -350q-24 -55 14 -93t84 -40v-6zM365 512h555l-224 571q-18 47 -31 62t-26 3t-31 -56zM573 1522l183 213h166l-328 -213h-21z" />
    <glyph glyph-name="Acircumflex" unicode="&#xc2;" horiz-adv-x="1413" 
d="M307 0h-293v6q98 16 172 146l543 1282l506 -1284q29 -71 80 -107.5t86 -36.5v-6h-410v6q38 11 58.5 38t19.5 53t-6 46l-135 346h-574l-145 -350q-24 -55 14 -93t84 -40v-6zM365 512h555l-224 571q-18 47 -31 62t-26 3t-31 -56zM555 1522h-111q43 18 88.5 57.5t79 82
t56.5 77t30 51.5h74q10 -22 30 -55t51.5 -76t74.5 -81t86 -56h-99q-32 0 -62.5 18t-54 48.5t-37.5 53t-26 46.5q-28 -53 -76.5 -105.5t-103.5 -60.5z" />
    <glyph glyph-name="Atilde" unicode="&#xc3;" horiz-adv-x="1413" 
d="M307 0h-293v6q98 16 172 146l543 1282l506 -1284q29 -71 80 -107.5t86 -36.5v-6h-410v6q38 11 58.5 38t19.5 53t-6 46l-135 346h-574l-145 -350q-24 -55 14 -93t84 -40v-6zM608 1092l-243 -580h555l-224 571q-18 47 -31 62t-26 3t-31 -56zM473 1554l-8 2q79 159 268 68
q27 -13 49 -21t47.5 -12t45 0t38 18t31.5 40l6 -7q-18 -47 -45.5 -76t-59.5 -38t-63 -6t-63 16q-104 46 -147 52q-67 9 -99 -36z" />
    <glyph glyph-name="Adieresis" unicode="&#xc4;" horiz-adv-x="1413" 
d="M307 0h-293v6q98 16 172 146l543 1282l506 -1284q29 -71 80 -107.5t86 -36.5v-6h-410v6q38 11 58.5 38t19.5 53t-6 46l-135 346h-574l-145 -350q-24 -55 14 -93t84 -40v-6zM608 1092l-243 -580h555l-224 571q-18 47 -31 62t-26 3t-31 -56zM889 1688q35 0 59.5 -24.5
t24.5 -59.5t-24.5 -59.5t-59.5 -24.5t-60.5 24.5t-25.5 59.5t25.5 59.5t60.5 24.5zM481 1604q0 35 24.5 59.5t59.5 24.5t60.5 -24.5t25.5 -59.5t-25.5 -59.5t-60.5 -24.5t-59.5 24.5t-24.5 59.5z" />
    <glyph glyph-name="Aring" unicode="&#xc5;" horiz-adv-x="1413" 
d="M307 0h-293v6q98 16 172 146l543 1282l506 -1284q29 -71 80 -107.5t86 -36.5v-6h-410v6q38 11 58.5 38t19.5 53t-6 46l-135 346h-574l-145 -350q-24 -55 14 -93t84 -40v-6zM365 512h555l-224 571q-18 47 -31 62t-26 3t-31 -56zM729 1794q66 0 112 -34.5t46 -98.5
t-48.5 -100.5t-115.5 -36.5q-64 0 -110 35.5t-46 97.5q0 63 49 100t113 37zM643 1671q0 -51 21.5 -92t68.5 -41q42 0 59 37t17 86q0 47 -20.5 84t-63.5 37q-42 0 -62 -32.5t-20 -78.5z" />
    <glyph glyph-name="AE" unicode="&#xc6;" horiz-adv-x="2177" 
d="M258 170q-40 -69 -99.5 -112.5t-109.5 -51.5v-6h293v6q-42 2 -67.5 47.5t4.5 102.5l272 448h586v-467q0 -42 -37.5 -86.5t-69.5 -44.5v-6h991l66 250q-24 -40 -55.5 -76.5t-75 -72t-101 -57t-120.5 -21.5h-318q-59 0 -92 30.5t-33 83.5v1161q0 53 32.5 83t92.5 30h352
q78 0 165 -71.5t137 -145.5l-50 240h-991zM565 629l432 712q51 78 95.5 60t44.5 -103v-669h-572zM1872 883q-8 -59 -31.5 -85.5t-92.5 -41.5t-222 -23q76 -4 128.5 -10t90 -16.5t60 -21.5t36.5 -31.5t20 -40t11 -52.5h4v322h-4z" />
    <glyph glyph-name="Ccedilla" unicode="&#xc7;" horiz-adv-x="1341" 
d="M651 -20q-145 12 -259 74t-186 161.5t-109.5 227.5t-37.5 276q0 151 47 285.5t133 235t215 159.5t283 59q95 0 180 -14t173.5 -55t142.5 -107v-213q-75 166 -198 266.5t-290 100.5q-108 0 -196.5 -38t-148.5 -102t-101 -150.5t-59.5 -180t-18.5 -193.5q0 -252 88 -424
q70 -136 209 -219.5t293 -83.5q128 0 242.5 65t195.5 173l6 -7q-85 -146 -225 -222.5t-311 -76.5q-23 0 -41 3l-25 -43q56 1 106 -16t85 -58t35 -99q0 -91 -75.5 -140.5t-172.5 -49.5q-46 0 -95.5 11.5t-72.5 31.5v135q15 -68 59.5 -116t95.5 -48q63 0 98.5 42.5t35.5 107.5
q0 66 -37.5 122.5t-100.5 55.5z" />
    <glyph glyph-name="Egrave" unicode="&#xc8;" horiz-adv-x="1187" 
d="M147 137v1161q0 42 -37 85.5t-69 43.5v7h991l49 -240q-50 75 -136.5 146t-164.5 71h-352q-60 0 -92.5 -30t-32.5 -83v-1161q0 -53 33 -83.5t92 -30.5h317q63 0 120.5 21.5t101.5 57t75.5 72t55.5 76.5l-66 -250h-991v6q32 0 69 44.5t37 86.5zM748 1522l-328 213h166
l182 -213h-20zM883 883h4v-322h-4q-5 33 -11 52.5t-20 40t-36.5 31.5t-60 21.5t-90 16.5t-128.5 10q153 8 222 23t92.5 41.5t31.5 85.5z" />
    <glyph glyph-name="Eacute" unicode="&#xc9;" horiz-adv-x="1187" 
d="M147 137v1161q0 42 -37 85.5t-69 43.5v7h991l49 -240q-50 75 -136.5 146t-164.5 71h-352q-60 0 -92.5 -30t-32.5 -83v-1161q0 -53 33 -83.5t92 -30.5h317q63 0 120.5 21.5t101.5 57t75.5 72t55.5 76.5l-66 -250h-991v6q32 0 69 44.5t37 86.5zM420 1522l182 213h166
l-328 -213h-20zM537 733q153 8 222 23t92.5 41.5t31.5 85.5h4v-322h-4q-5 33 -11 52.5t-20 40t-36.5 31.5t-60 21.5t-90 16.5t-128.5 10z" />
    <glyph glyph-name="Ecircumflex" unicode="&#xca;" horiz-adv-x="1187" 
d="M147 137v1161q0 42 -37 85.5t-69 43.5v7h991l49 -240q-50 75 -136.5 146t-164.5 71h-352q-60 0 -92.5 -30t-32.5 -83v-1161q0 -53 33 -83.5t92 -30.5h317q63 0 120.5 21.5t101.5 57t75.5 72t55.5 76.5l-66 -250h-991v6q32 0 69 44.5t37 86.5zM420 1522h-111
q43 18 88.5 57.5t79 82t56.5 77t30 51.5h74q10 -22 30 -55t51.5 -76t74.5 -81t86 -56h-99q-32 0 -62.5 18t-54 48.5t-37.5 53t-26 46.5q-28 -53 -76.5 -105.5t-103.5 -60.5zM537 733q153 8 222 23t92.5 41.5t31.5 85.5h4v-322h-4q-5 33 -11 52.5t-20 40t-36.5 31.5t-60 21.5
t-90 16.5t-128.5 10z" />
    <glyph glyph-name="Edieresis" unicode="&#xcb;" horiz-adv-x="1187" 
d="M41 1427v7h991l49 -240q-50 75 -136.5 146t-164.5 71h-352q-60 0 -92.5 -30t-32.5 -83v-1161q0 -53 33 -83.5t92 -30.5h317q63 0 120.5 21.5t101.5 57t75.5 72t55.5 76.5l-66 -250h-991v6q32 0 69 44.5t37 86.5v1161q0 42 -37 85.5t-69 43.5zM348 1604q0 35 24.5 59.5
t59.5 24.5t60.5 -24.5t25.5 -59.5t-25.5 -59.5t-60.5 -24.5t-59.5 24.5t-24.5 59.5zM756 1688q35 0 59.5 -24.5t24.5 -59.5t-24.5 -59.5t-59.5 -24.5t-60.5 24.5t-25.5 59.5t25.5 59.5t60.5 24.5zM537 733q153 8 222 23t92.5 41.5t31.5 85.5h4v-322h-4q-5 33 -11 52.5
t-20 40t-36.5 31.5t-60 21.5t-90 16.5t-128.5 10z" />
    <glyph glyph-name="Igrave" unicode="&#xcc;" horiz-adv-x="583" 
d="M80 1434h375v-7q-37 0 -74 -35.5t-37 -95.5v-1159q0 -60 37 -95.5t74 -35.5v-6h-375v6q37 0 73.5 35.5t36.5 95.5v1159q0 60 -36.5 95.5t-73.5 35.5v7zM57 1735h166l180 -213h-20z" />
    <glyph glyph-name="Iacute" unicode="&#xcd;" horiz-adv-x="583" 
d="M80 1427v7h375v-7q-37 0 -74 -35.5t-37 -95.5v-1159q0 -60 37 -95.5t74 -35.5v-6h-375v6q37 0 73.5 35.5t36.5 95.5v1159q0 60 -36.5 95.5t-73.5 35.5zM160 1522l180 213h166l-326 -213h-20z" />
    <glyph glyph-name="Icircumflex" unicode="&#xce;" horiz-adv-x="583" 
d="M80 1434h375v-7q-37 0 -74 -35.5t-37 -95.5v-1159q0 -60 37 -95.5t74 -35.5v-6h-375v6q37 0 73.5 35.5t36.5 95.5v1159q0 60 -36.5 95.5t-73.5 35.5v7zM80 1522h-113q81 33 158.5 126t97.5 142h74q12 -30 42.5 -78.5t87 -107.5t112.5 -82h-99q-99 0 -180 166
q-28 -53 -76.5 -105.5t-103.5 -60.5z" />
    <glyph glyph-name="Idieresis" unicode="&#xcf;" horiz-adv-x="583" 
d="M80 1434h375v-7q-37 0 -74 -35.5t-37 -95.5v-1159q0 -60 37 -95.5t74 -35.5v-6h-375v6q37 0 73.5 35.5t36.5 95.5v1159q0 60 -36.5 95.5t-73.5 35.5v7zM453 1688q35 0 60.5 -24.5t25.5 -59.5t-25.5 -59.5t-60.5 -24.5t-59.5 24.5t-24.5 59.5t24.5 59.5t59.5 24.5z
M45 1604q0 35 25.5 59.5t60.5 24.5t59.5 -24.5t24.5 -59.5t-24.5 -59.5t-59.5 -24.5t-60.5 24.5t-25.5 59.5z" />
    <glyph glyph-name="Eth" unicode="&#xd0;" horiz-adv-x="1384" 
d="M-63 633v72h206v593q0 42 -36 85.5t-68 43.5v7h266h332q161 0 282 -50t196.5 -144.5t112.5 -225.5t36 -297q-2 -160 -41 -289.5t-116.5 -226t-201.5 -149t-287 -52.5h-579v6q31 0 67.5 44.5t36.5 86.5v496h-206zM430 23h162q111 0 199 42t144 110t93.5 160t53 186
t16.5 194q1 116 -10 208t-43 180.5t-85 149.5t-140.5 102t-205.5 50q-68 6 -184 6q-60 0 -92.5 -30t-32.5 -83v-593h215v-72h-215v-496q0 -53 33 -83.5t92 -30.5z" />
    <glyph glyph-name="Ntilde" unicode="&#xd1;" horiz-adv-x="1359" 
d="M39 0v6q38 0 91.5 40.5t53.5 90.5v1159q0 41 -42 86t-74 45v7h229l780 -1053q37 -51 52.5 -47t15.5 69v893q0 50 -60.5 90.5t-99.5 40.5v7h328v-7q-38 0 -92 -40.5t-54 -90.5v-1296l-899 1221q-15 21 -23.5 31t-16.5 15.5t-11.5 -2t-5.5 -24.5t-2 -49v-1055
q0 -50 59.5 -90.5t98.5 -40.5v-6h-328zM446 1554l-8 2q79 159 269 68q27 -13 49 -21t47.5 -12t45 0t38 18t31.5 40l6 -7q-18 -47 -46 -76t-59.5 -38t-63 -6t-63.5 16q-104 46 -147 52q-67 9 -99 -36z" />
    <glyph glyph-name="Ograve" unicode="&#xd2;" horiz-adv-x="1523" 
d="M98 715q0 158 46.5 294t132.5 236t215.5 156.5t287.5 56.5q122 0 227 -39.5t181 -109.5t130 -164.5t80.5 -204.5t26.5 -229q0 -212 -75.5 -376.5t-227.5 -261t-362 -96.5q-156 0 -282.5 57t-209 157t-126.5 234t-44 290zM250 825q0 -83 11.5 -170t35.5 -182t67 -178
t100.5 -150t141.5 -106t185 -39q105 0 188.5 31.5t138 85.5t91 129t52 157t15.5 175q0 71 -8 146t-26.5 159.5t-47 161.5t-73 148t-99.5 123t-131 83t-164 31q-104 0 -187 -35.5t-136 -93.5t-88.5 -137.5t-50.5 -163.5t-15 -175zM874 1522l-327 213h166l182 -213h-21z" />
    <glyph glyph-name="Oacute" unicode="&#xd3;" horiz-adv-x="1523" 
d="M98 715q0 158 46.5 294t132.5 236t215.5 156.5t287.5 56.5q122 0 227 -39.5t181 -109.5t130 -164.5t80.5 -204.5t26.5 -229q0 -212 -75.5 -376.5t-227.5 -261t-362 -96.5q-156 0 -282.5 57t-209 157t-126.5 234t-44 290zM250 825q0 -83 11.5 -170t35.5 -182t67 -178
t100.5 -150t141.5 -106t185 -39q105 0 188.5 31.5t138 85.5t91 129t52 157t15.5 175q0 71 -8 146t-26.5 159.5t-47 161.5t-73 148t-99.5 123t-131 83t-164 31q-104 0 -187 -35.5t-136 -93.5t-88.5 -137.5t-50.5 -163.5t-15 -175zM629 1522h-21l183 213h165z" />
    <glyph glyph-name="Ocircumflex" unicode="&#xd4;" horiz-adv-x="1523" 
d="M760 -23q-156 0 -282.5 57t-209 157t-126.5 234t-44 290q0 158 46.5 294t132.5 236t215.5 156.5t287.5 56.5q122 0 227 -39.5t181 -109.5t130 -164.5t80.5 -204.5t26.5 -229q0 -212 -75.5 -376.5t-227.5 -261t-362 -96.5zM250 825q0 -83 11.5 -170t35.5 -182t67 -178
t100.5 -150t141.5 -106t185 -39q105 0 188.5 31.5t138 85.5t91 129t52 157t15.5 175q0 71 -8 146t-26.5 159.5t-47 161.5t-73 148t-99.5 123t-131 83t-164 31q-104 0 -187 -35.5t-136 -93.5t-88.5 -137.5t-50.5 -163.5t-15 -175zM608 1522h-110q43 18 88.5 57.5t79 82
t56.5 77t30 51.5h73q10 -22 30 -55t51.5 -76t74.5 -81t86 -56h-98q-32 0 -63 18.5t-54.5 48t-37.5 52.5t-26 47q-28 -53 -76.5 -105.5t-103.5 -60.5z" />
    <glyph glyph-name="Otilde" unicode="&#xd5;" horiz-adv-x="1523" 
d="M98 715q0 158 46.5 294t132.5 236t215.5 156.5t287.5 56.5q122 0 227 -39.5t181 -109.5t130 -164.5t80.5 -204.5t26.5 -229q0 -212 -75.5 -376.5t-227.5 -261t-362 -96.5q-156 0 -282.5 57t-209 157t-126.5 234t-44 290zM250 825q0 -83 11.5 -170t35.5 -182t67 -178
t100.5 -150t141.5 -106t185 -39q105 0 188.5 31.5t138 85.5t91 129t52 157t15.5 175q0 71 -8 146t-26.5 159.5t-47 161.5t-73 148t-99.5 123t-131 83t-164 31q-104 0 -187 -35.5t-136 -93.5t-88.5 -137.5t-50.5 -163.5t-15 -175zM788 1624q34 -16 61.5 -25t56.5 -10.5
t53 13.5t40 47l7 -7q-18 -47 -46 -76t-59.5 -38t-63 -6t-63.5 16q-104 46 -147 52q-67 9 -99 -36l-8 2q78 157 268 68z" />
    <glyph glyph-name="Odieresis" unicode="&#xd6;" horiz-adv-x="1523" 
d="M760 -23q-156 0 -282.5 57t-209 157t-126.5 234t-44 290q0 158 46.5 294t132.5 236t215.5 156.5t287.5 56.5q122 0 227 -39.5t181 -109.5t130 -164.5t80.5 -204.5t26.5 -229q0 -212 -75.5 -376.5t-227.5 -261t-362 -96.5zM727 1430q-104 0 -187 -35.5t-136 -93.5
t-88.5 -137.5t-50.5 -163.5t-15 -175q0 -83 11.5 -170t35.5 -182t67 -178t100.5 -150t141.5 -106t185 -39q105 0 188.5 31.5t138 85.5t91 129t52 157t15.5 175q0 71 -8 146t-26.5 159.5t-47 161.5t-73 148t-99.5 123t-131 83t-164 31zM944 1520q-35 0 -60.5 24.5t-25.5 59.5
t25.5 59.5t60.5 24.5t59.5 -24.5t24.5 -59.5t-24.5 -59.5t-59.5 -24.5zM537 1604q0 35 24.5 59.5t59.5 24.5t60.5 -24.5t25.5 -59.5t-25.5 -59.5t-60.5 -24.5t-59.5 24.5t-24.5 59.5z" />
    <glyph glyph-name="multiply" unicode="&#xd7;" horiz-adv-x="684" 
d="M553 844l51 -53l-203 -224l195 -207l-51 -53l-193 207l-188 -207l-51 53l188 207l-201 217l52 54l198 -215z" />
    <glyph glyph-name="Oslash" unicode="&#xd8;" horiz-adv-x="1556" 
d="M98 715q0 158 46.5 294t132.5 236t215.5 156.5t287.5 56.5q189 0 336 -94l51 94h17l-56 -104q143 -96 220 -267.5t77 -375.5q0 -212 -75.5 -376.5t-227.5 -261t-362 -96.5q-182 0 -322 76l-41 -76h-37l50 93q-151 93 -231.5 262t-80.5 383zM457 154l608 1116
q-137 160 -338 160q-104 0 -187 -35.5t-136 -93.5t-88.5 -137.5t-50.5 -163.5t-15 -175q0 -176 50.5 -362t156.5 -309zM791 0q105 0 188.5 31.5t138 85.5t91 129t52 157t15.5 175q0 109 -18 224t-65 241t-116 214l-598 -1126q128 -131 312 -131z" />
    <glyph glyph-name="Ugrave" unicode="&#xd9;" horiz-adv-x="1349" 
d="M41 1436h373v-9q-37 0 -73 -35t-36 -96v-759q0 -191 42.5 -306.5t123 -164t209.5 -48.5q201 0 313.5 131.5t112.5 393.5v753q0 50 -59.5 90.5t-98.5 40.5v7h328v-7q-38 0 -93 -40.5t-55 -90.5v-764q0 -270 -122 -412.5t-336 -142.5q-96 0 -169.5 13t-142 50t-112.5 98
t-70 161.5t-26 237.5v759q0 61 -36 96t-73 35v9zM502 1735h166l180 -213h-21z" />
    <glyph glyph-name="Uacute" unicode="&#xda;" horiz-adv-x="1349" 
d="M150 1296q0 61 -36 96t-73 35v9h373v-9q-37 0 -73 -35t-36 -96v-759q0 -191 42.5 -306.5t123 -164t209.5 -48.5q201 0 313.5 131.5t112.5 393.5v753q0 50 -59.5 90.5t-98.5 40.5v7h328v-7q-38 0 -93 -40.5t-55 -90.5v-764q0 -270 -122 -412.5t-336 -142.5
q-96 0 -169.5 13t-142 50t-112.5 98t-70 161.5t-26 237.5v759zM563 1522h-20l180 213h166z" />
    <glyph glyph-name="Ucircumflex" unicode="&#xdb;" horiz-adv-x="1349" 
d="M150 1296q0 61 -36 96t-73 35v9h373v-9q-37 0 -73 -35t-36 -96v-759q0 -191 42.5 -306.5t123 -164t209.5 -48.5q201 0 313.5 131.5t112.5 393.5v753q0 50 -59.5 90.5t-98.5 40.5v7h328v-7q-38 0 -93 -40.5t-55 -90.5v-764q0 -270 -122 -412.5t-336 -142.5
q-96 0 -169.5 13t-142 50t-112.5 98t-70 161.5t-26 237.5v759zM502 1522h-111q43 18 88.5 57.5t79 82t56.5 77t30 51.5h74q12 -30 42.5 -78.5t87 -107.5t112.5 -82h-99q-99 0 -180 166q-28 -53 -76.5 -105.5t-103.5 -60.5z" />
    <glyph glyph-name="Udieresis" unicode="&#xdc;" horiz-adv-x="1349" 
d="M41 1436h373v-9q-37 0 -73 -35t-36 -96v-759q0 -191 42.5 -306.5t123 -164t209.5 -48.5q201 0 313.5 131.5t112.5 393.5v753q0 50 -59.5 90.5t-98.5 40.5v7h328v-7q-38 0 -93 -40.5t-55 -90.5v-764q0 -270 -122 -412.5t-336 -142.5q-96 0 -169.5 13t-142 50t-112.5 98
t-70 161.5t-26 237.5v759q0 61 -36 96t-73 35v9zM752 1604q0 35 24.5 59.5t59.5 24.5t60.5 -24.5t25.5 -59.5t-25.5 -59.5t-60.5 -24.5t-59.5 24.5t-24.5 59.5zM428 1604q0 35 25.5 59.5t60.5 24.5t59.5 -24.5t24.5 -59.5t-24.5 -59.5t-59.5 -24.5t-60.5 24.5t-25.5 59.5z
" />
    <glyph glyph-name="Yacute" unicode="&#xdd;" horiz-adv-x="1384" 
d="M35 1427v7h409v-7q-38 -11 -57.5 -38.5t-17.5 -53.5t8 -45l297 -534q17 -31 26 -46.5t21 -31t17 -21t14.5 -5.5t14.5 5t16 20t18.5 30t23.5 45l273 514q23 57 -11.5 108t-76.5 53v7h293v-7q-46 -8 -95 -53.5t-90 -118.5l-282 -538q-39 -76 -54.5 -141t-15.5 -166v-273
q0 -60 37 -95.5t74 -35.5v-6h-375v6q37 0 73.5 35.5t36.5 95.5v273q0 148 -75 292l-330 582q-39 68 -89.5 105.5t-82.5 37.5zM580 1522l182 213h166l-328 -213h-20z" />
    <glyph glyph-name="Thorn" unicode="&#xde;" horiz-adv-x="1216" 
d="M428 0h-375v6q37 0 74 35.5t37 95.5v1159q0 60 -37 95.5t-74 35.5v7h375v-7q-37 0 -74 -35.5t-37 -95.5v-145h326q300 0 412 -170q47 -70 62.5 -165.5t-5 -190t-74.5 -158.5q-133 -160 -442 -156l-279 2v-176q0 -60 37 -95.5t74 -35.5v-6zM317 1014v-563q0 -119 111 -119
h133q156 0 264 80q81 62 115 185.5t10 250t-100 194.5q-98 88 -279 88h-143q-111 0 -111 -116z" />
    <glyph glyph-name="germandbls" unicode="&#xdf;" horiz-adv-x="1097" 
d="M276 152q-22 -79 -96 -130.5t-168 -29.5v6q38 4 63 23.5t37.5 54t16.5 71.5t4 91v794q0 105 40 188.5t106.5 133t149 74t171.5 20.5q142 -5 231.5 -88.5t86.5 -224.5q-3 -120 -67.5 -211t-174.5 -146q156 -15 247 -123t89 -262q-3 -182 -121 -297.5t-309 -115.5
q-90 0 -187 56t-119 116zM287 1090v-838q0 -59 25 -102.5t65.5 -64.5t80 -30.5t79.5 -9.5q150 0 229.5 96t79.5 252q0 166 -98 259.5t-256 76.5v10q116 40 202 155t86 249t-64 210.5t-163 76.5q-107 -2 -186.5 -91t-79.5 -249z" />
    <glyph glyph-name="agrave" unicode="&#xe0;" horiz-adv-x="980" 
d="M158 383q15 12 30 23t31.5 21t29 17.5t31.5 17t28 14.5t30.5 14t28 12t30 12.5t27.5 11.5q140 57 192.5 107.5t51.5 144.5q-2 76 -57 121t-162 31q-95 -13 -187.5 -96.5t-167.5 -210.5v168q58 75 156.5 115.5t200.5 43.5q356 10 356 -325v-463q0 -50 15.5 -79t64.5 -28
q30 0 53 23v-10q-20 -34 -61 -56t-93 -22q-35 0 -61.5 14t-40 36t-20 41t-7.5 36q-68 -74 -147 -108.5t-215 -31.5q-112 3 -172 54q-61 52 -64 137q-1 60 26 119t73 96zM391 6q86 -3 174 54.5t88 125.5v418q-67 -24 -118 -46t-114 -59t-103.5 -77t-68.5 -96.5t-28 -120.5
q0 -94 49.5 -145.5t120.5 -53.5zM582 1071l-326 213h166l180 -213h-20z" />
    <glyph glyph-name="aacute" unicode="&#xe1;" horiz-adv-x="980" 
d="M158 383q15 12 30 23t31.5 21t29 17.5t31.5 17t28 14.5t30.5 14t28 12t30 12.5t27.5 11.5q140 57 192.5 107.5t51.5 144.5q-2 76 -57 121t-162 31q-95 -13 -187.5 -96.5t-167.5 -210.5v168q58 75 156.5 115.5t200.5 43.5q356 10 356 -325v-463q0 -50 15.5 -79t64.5 -28
q30 0 53 23v-10q-20 -34 -61 -56t-93 -22q-35 0 -61.5 14t-40 36t-20 41t-7.5 36q-68 -74 -147 -108.5t-215 -31.5q-112 3 -172 54q-61 52 -64 137q-1 60 26 119t73 96zM391 6q86 -3 174 54.5t88 125.5v418q-67 -24 -118 -46t-114 -59t-103.5 -77t-68.5 -96.5t-28 -120.5
q0 -94 49.5 -145.5t120.5 -53.5zM317 1071l181 213h166l-326 -213h-21z" />
    <glyph glyph-name="acircumflex" unicode="&#xe2;" horiz-adv-x="980" 
d="M158 383q15 12 30 23t31.5 21t29 17.5t31.5 17t28 14.5t30.5 14t28 12t30 12.5t27.5 11.5q140 57 192.5 107.5t51.5 144.5q-2 76 -57 121t-162 31q-95 -13 -187.5 -96.5t-167.5 -210.5v168q58 75 156.5 115.5t200.5 43.5q356 10 356 -325v-463q0 -50 15.5 -79t64.5 -28
q30 0 53 23v-10q-20 -34 -61 -56t-93 -22q-35 0 -61.5 14t-40 36t-20 41t-7.5 36q-68 -74 -147 -108.5t-215 -31.5q-112 3 -172 54q-61 52 -64 137q-1 60 26 119t73 96zM221 205q0 -94 49.5 -145.5t120.5 -53.5q86 -3 174 54.5t88 125.5v418q-67 -24 -118 -46t-114 -59
t-103.5 -77t-68.5 -96.5t-28 -120.5zM420 1341h74q8 -20 28.5 -54.5t51.5 -76.5t74.5 -80.5t86.5 -56.5h-98q-99 0 -180 166q-28 -52 -77 -105t-104 -61h-110q43 18 88.5 57.5t79 82t56.5 77t30 51.5z" />
    <glyph glyph-name="atilde" unicode="&#xe3;" horiz-adv-x="980" 
d="M158 383q15 12 30 23t31.5 21t29 17.5t31.5 17t28 14.5t30.5 14t28 12t30 12.5t27.5 11.5q140 57 192.5 107.5t51.5 144.5q-2 76 -57 121t-162 31q-95 -13 -187.5 -96.5t-167.5 -210.5v168q58 75 156.5 115.5t200.5 43.5q356 10 356 -325v-463q0 -50 15.5 -79t64.5 -28
q30 0 53 23v-10q-20 -34 -61 -56t-93 -22q-35 0 -61.5 14t-40 36t-20 41t-7.5 36q-68 -74 -147 -108.5t-215 -31.5q-112 3 -172 54q-61 52 -64 137q-1 60 26 119t73 96zM221 205q0 -94 49.5 -145.5t120.5 -53.5q86 -3 174 54.5t88 125.5v418q-67 -24 -118 -46t-114 -59
t-103.5 -77t-68.5 -96.5t-28 -120.5zM215 1108l-8 2q79 159 268 68q48 -23 82.5 -32t71 3t57.5 53l6 -6q-18 -47 -45.5 -76t-59.5 -38t-63 -6t-63 16q-104 46 -147 52q-67 8 -99 -36z" />
    <glyph glyph-name="adieresis" unicode="&#xe4;" horiz-adv-x="980" 
d="M158 383q15 12 30 23t31.5 21t29 17.5t31.5 17t28 14.5t30.5 14t28 12t30 12.5t27.5 11.5q140 57 192.5 107.5t51.5 144.5q-2 76 -57 121t-162 31q-95 -13 -187.5 -96.5t-167.5 -210.5v168q58 75 156.5 115.5t200.5 43.5q356 10 356 -325v-463q0 -50 15.5 -79t64.5 -28
q30 0 53 23v-10q-20 -34 -61 -56t-93 -22q-35 0 -61.5 14t-40 36t-20 41t-7.5 36q-68 -74 -147 -108.5t-215 -31.5q-112 3 -172 54q-61 52 -64 137q-1 60 26 119t73 96zM221 205q0 -94 49.5 -145.5t120.5 -53.5q86 -3 174 54.5t88 125.5v418q-67 -24 -118 -46t-114 -59
t-103.5 -77t-68.5 -96.5t-28 -120.5zM526 1153q0 35 24.5 59.5t59.5 24.5t60.5 -24.5t25.5 -59.5t-25.5 -59.5t-60.5 -24.5t-59.5 24.5t-24.5 59.5zM289 1237q35 0 59.5 -24.5t24.5 -59.5t-24.5 -59.5t-59.5 -24.5t-60.5 24.5t-25.5 59.5t25.5 59.5t60.5 24.5z" />
    <glyph glyph-name="aring" unicode="&#xe5;" horiz-adv-x="980" 
d="M158 383q15 12 30 23t31.5 21t29 17.5t31.5 17t28 14.5t30.5 14t28 12t30 12.5t27.5 11.5q140 57 192.5 107.5t51.5 144.5q-2 76 -57 121t-162 31q-95 -13 -187.5 -96.5t-167.5 -210.5v168q58 75 156.5 115.5t200.5 43.5q356 10 356 -325v-463q0 -50 15.5 -79t64.5 -28
q30 0 53 23v-10q-20 -34 -61 -56t-93 -22q-35 0 -61.5 14t-40 36t-20 41t-7.5 36q-68 -74 -147 -108.5t-215 -31.5q-112 3 -172 54q-61 52 -64 137q-1 60 26 119t73 96zM221 205q0 -94 49.5 -145.5t120.5 -53.5q86 -3 174 54.5t88 125.5v418q-67 -24 -118 -46t-114 -59
t-103.5 -77t-68.5 -96.5t-28 -120.5zM453 1343q66 0 111.5 -34.5t45.5 -98.5q0 -65 -48 -101t-116 -36q-63 0 -109 35.5t-46 97.5q0 63 49 100t113 37zM367 1219q0 -51 21.5 -92.5t68.5 -41.5q42 0 58.5 37.5t16.5 87.5q0 29 -6.5 54.5t-26 46t-50.5 20.5q-42 0 -62 -33
t-20 -79z" />
    <glyph glyph-name="ae" unicode="&#xe6;" horiz-adv-x="1597" 
d="M68 172q-2 59 24.5 118t73.5 95q43 34 96 64.5t78.5 42t89.5 38.5q73 29 115 51t74.5 51t44 64t10.5 84q-2 76 -57 122t-162 32q-93 -13 -185 -97t-170 -210v166q59 77 157 117t200 42q248 6 323 -149q64 70 156.5 108.5t196.5 38.5q69 0 127 -15.5t100 -43t74 -65
t47.5 -82t21.5 -94.5t-4 -101l-680 -109q12 -124 62 -219q53 -96 138 -143t183 -47q161 0 289 157l10 -8q-55 -88 -153 -145.5t-230 -57.5q-126 0 -223.5 53t-155.5 144q-37 -40 -72 -69.5t-88.5 -61t-124 -47.5t-153.5 -14q-110 0 -170 51q-60 48 -63 139zM907 817
q-52 -60 -74 -154.5t-16 -199.5l371 69q39 8 100 37q47 24 70.5 63.5t21.5 84.5q-1 64 -27.5 110.5t-68 69t-93.5 29t-103.5 -5t-99.5 -38t-81 -65.5zM659 608q-67 -25 -117.5 -46.5t-113.5 -59t-103.5 -77t-69 -96.5t-28.5 -122q1 -93 50.5 -144t119.5 -53q56 -2 117 23
t103 68.5t42 88.5v418z" />
    <glyph glyph-name="ccedilla" unicode="&#xe7;" horiz-adv-x="991" 
d="M74 465q0 129 51 231q58 119 171.5 186.5t252.5 67.5q249 0 350 -116v-195q-22 45 -41 78.5t-50 75.5t-62.5 69t-75.5 46t-92 20q-68 2 -138.5 -29.5t-115.5 -85.5q-57 -68 -78.5 -179t-6 -222t59.5 -191q53 -96 137.5 -143t181.5 -47q164 0 289 157l13 -8
q-57 -88 -155 -145.5t-230 -57.5h-33l-25 -40q56 1 105.5 -16t84.5 -58t35 -99q0 -91 -75 -140.5t-172 -49.5q-46 0 -94.5 11.5t-71.5 31.5v135q16 -68 59.5 -116t95.5 -48q62 0 98 43t36 107q0 66 -38 122.5t-102 55.5l39 64q-182 19 -291 143q-112 128 -112 342z" />
    <glyph glyph-name="egrave" unicode="&#xe8;" horiz-adv-x="1009" 
d="M70 465q0 129 51 231q58 119 171.5 186.5t252.5 67.5q69 0 127 -15.5t100 -43t74 -65t47.5 -82t21.5 -94.5t-4 -101l-680 -109q12 -124 62 -219q53 -96 138 -143t183 -47q161 0 289 157l10 -8q-55 -88 -153 -145.5t-230 -57.5q-104 0 -195 37t-153 109q-112 128 -112 342
zM229 463l371 69q39 8 100 37q48 24 71.5 63.5t21.5 84.5q-1 64 -28 110.5t-68 69t-93.5 29t-104 -5t-99.5 -38t-81 -65.5q-52 -60 -74 -154.5t-16 -199.5zM657 1071l-325 213h166l180 -213h-21z" />
    <glyph glyph-name="eacute" unicode="&#xe9;" horiz-adv-x="1009" 
d="M70 465q0 129 51 231q58 119 171.5 186.5t252.5 67.5q69 0 127 -15.5t100 -43t74 -65t47.5 -82t21.5 -94.5t-4 -101l-680 -109q12 -124 62 -219q53 -96 138 -143t183 -47q161 0 289 157l10 -8q-55 -88 -153 -145.5t-230 -57.5q-104 0 -195 37t-153 109q-112 128 -112 342
zM229 463l371 69q39 8 100 37q48 24 71.5 63.5t21.5 84.5q-1 64 -28 110.5t-68 69t-93.5 29t-104 -5t-99.5 -38t-81 -65.5q-52 -60 -74 -154.5t-16 -199.5zM332 1071l180 213h166l-326 -213h-20z" />
    <glyph glyph-name="ecircumflex" unicode="&#xea;" horiz-adv-x="1009" 
d="M121 696q58 119 171.5 186.5t252.5 67.5q69 0 127 -15.5t100 -43t74 -65t47.5 -82t21.5 -94.5t-4 -101l-680 -109q12 -124 62 -219q53 -96 138 -143t183 -47q161 0 289 157l10 -8q-55 -88 -153 -145.5t-230 -57.5q-104 0 -195 37t-153 109q-112 128 -112 342
q0 129 51 231zM229 463l371 69q39 8 100 37q48 24 71.5 63.5t21.5 84.5q-1 64 -28 110.5t-68 69t-93.5 29t-104 -5t-99.5 -38t-81 -65.5q-52 -60 -74 -154.5t-16 -199.5zM475 1339h74q12 -30 42.5 -78.5t87 -107.5t112.5 -82h-99q-99 0 -180 166q-28 -53 -76.5 -105.5
t-103.5 -60.5h-111q43 18 88.5 57.5t79 82t56.5 77t30 51.5z" />
    <glyph glyph-name="edieresis" unicode="&#xeb;" horiz-adv-x="1009" 
d="M70 465q0 129 51 231q58 119 171.5 186.5t252.5 67.5q69 0 127 -15.5t100 -43t74 -65t47.5 -82t21.5 -94.5t-4 -101l-680 -109q12 -124 62 -219q53 -96 138 -143t183 -47q161 0 289 157l10 -8q-55 -88 -153 -145.5t-230 -57.5q-104 0 -195 37t-153 109q-112 128 -112 342
zM229 463l371 69q39 8 100 37q48 24 71.5 63.5t21.5 84.5q-1 64 -28 110.5t-68 69t-93.5 29t-104 -5t-99.5 -38t-81 -65.5q-52 -60 -74 -154.5t-16 -199.5zM582 1157q0 35 24.5 59.5t59.5 24.5t60.5 -24.5t25.5 -59.5t-25.5 -59.5t-60.5 -24.5t-59.5 24.5t-24.5 59.5z
M258 1157q0 35 25.5 59.5t60.5 24.5t59.5 -24.5t24.5 -59.5t-24.5 -59.5t-59.5 -24.5t-60.5 24.5t-25.5 59.5z" />
    <glyph glyph-name="igrave" unicode="&#xec;" horiz-adv-x="428" 
d="M29 0v6q38 0 65 28t27 97v594q0 26 -1 36t-8 20.5t-20.5 13t-40.5 2.5h-10v4l221 129h12l2 -799q0 -68 30.5 -96.5t64.5 -28.5v-6h-342zM-20 1284h165l181 -213h-21z" />
    <glyph glyph-name="iacute" unicode="&#xed;" horiz-adv-x="428" 
d="M371 0h-342v6q38 0 65 28t27 97v594q0 26 -1 36t-8 20.5t-20.5 13t-40.5 2.5h-10v4l221 129h12l2 -799q0 -68 30.5 -96.5t64.5 -28.5v-6zM41 1071l180 213h166l-326 -213h-20z" />
    <glyph glyph-name="icircumflex" unicode="&#xee;" horiz-adv-x="428" 
d="M371 0h-342v6q38 0 65 28t27 97v594q0 26 -1 36t-8 20.5t-20.5 13t-40.5 2.5h-10v4l221 129h12l2 -799q0 -68 30.5 -96.5t64.5 -28.5v-6zM8 1071h-112q81 33 158.5 126t97.5 142h73q12 -30 42.5 -78.5t87 -107.5t112.5 -82h-98q-100 0 -181 166q-28 -53 -76.5 -105.5
t-103.5 -60.5z" />
    <glyph glyph-name="idieresis" unicode="&#xef;" horiz-adv-x="428" 
d="M29 0v6q38 0 65 28t27 97v594q0 26 -1 36t-8 20.5t-20.5 13t-40.5 2.5h-10v4l221 129h12l2 -799q0 -68 30.5 -96.5t64.5 -28.5v-6h-342zM334 1241q35 0 60.5 -25.5t25.5 -60.5q0 -34 -25.5 -59t-60.5 -25t-59.5 25t-24.5 59q0 35 24.5 60.5t59.5 25.5zM-74 1155
q0 35 25.5 60.5t60.5 25.5t59.5 -25.5t24.5 -60.5q0 -34 -24.5 -59t-59.5 -25t-60.5 25t-25.5 59z" />
    <glyph glyph-name="eth" unicode="&#xf0;" horiz-adv-x="1116" 
d="M86 442q0 232 126.5 370t356.5 138q159 0 260 -98q-13 90 -54 187.5t-97 172.5l-342 -188l-4 23l334 184q-124 160 -334 203v6q242 -3 411 -166l289 160l4 -25l-276 -152q79 -83 133.5 -207.5t77 -248t22.5 -246.5q0 -99 -14.5 -182.5t-49.5 -157.5t-88.5 -126t-135 -82
t-185.5 -30q-216 0 -325 123t-109 342zM549 6q282 0 282 481q0 441 -253 441q-75 0 -133.5 -28t-94.5 -73t-59.5 -106.5t-33 -124t-9.5 -131.5q0 -65 7.5 -124t28 -122t53 -108.5t87 -75t125.5 -29.5z" />
    <glyph glyph-name="ntilde" unicode="&#xf1;" horiz-adv-x="1112" 
d="M39 0v6q38 0 65 28t27 97v594q0 46 -11 59t-59 13h-10v4l205 129h12v-148q56 84 133.5 124.5t190.5 43.5q166 4 255.5 -73t92.5 -207l6 -539q1 -68 31 -96.5t65 -28.5v-6h-344v6q38 0 66.5 28t28.5 97l-7 528q0 29 -2 52.5t-14 66.5t-33.5 72.5t-66.5 52.5t-107 23
q-115 0 -196.5 -93.5t-81.5 -209.5l2 -492q0 -68 30 -96.5t64 -28.5v-6h-342zM582 1174q48 -23 82.5 -32t71 3t57.5 53l6 -6q-18 -47 -46 -76t-59.5 -38t-63 -6.5t-63.5 15.5q-102 45 -141 52q-70 11 -104 -35l-9 2q79 159 269 68z" />
    <glyph glyph-name="ograve" unicode="&#xf2;" 
d="M66 461q0 215 126.5 353t339.5 138q223 0 347.5 -133.5t124.5 -357.5q0 -219 -126 -351.5t-343 -132.5t-343 132.5t-126 351.5zM221 535q0 -65 10 -133t34.5 -141t60.5 -129.5t95 -93t132 -36.5q80 0 139 30.5t92.5 84t49.5 118t16 140.5q0 66 -9.5 135.5t-34 145
t-61.5 134t-97 96.5t-134 38q-63 0 -114 -22.5t-84 -60t-55 -88.5t-31 -105t-9 -113zM690 1071l-325 213h165l181 -213h-21z" />
    <glyph glyph-name="oacute" unicode="&#xf3;" 
d="M66 461q0 215 126.5 353t339.5 138q223 0 347.5 -133.5t124.5 -357.5q0 -219 -126 -351.5t-343 -132.5t-343 132.5t-126 351.5zM221 535q0 -65 10 -133t34.5 -141t60.5 -129.5t95 -93t132 -36.5q80 0 139 30.5t92.5 84t49.5 118t16 140.5q0 66 -9.5 135.5t-34 145
t-61.5 134t-97 96.5t-134 38q-63 0 -114 -22.5t-84 -60t-55 -88.5t-31 -105t-9 -113zM385 1071h-20l180 213h166z" />
    <glyph glyph-name="ocircumflex" unicode="&#xf4;" 
d="M535 -23q-217 0 -343 132.5t-126 351.5q0 215 126.5 353t339.5 138q223 0 347.5 -133.5t124.5 -357.5q0 -219 -126 -351.5t-343 -132.5zM514 924q-63 0 -114 -22.5t-84 -60t-55 -88.5t-31 -105t-9 -113q0 -65 10 -133t34.5 -141t60.5 -129.5t95 -93t132 -36.5
q80 0 139 30.5t92.5 84t49.5 118t16 140.5q0 66 -9.5 135.5t-34 145t-61.5 134t-97 96.5t-134 38zM365 1071h-111q43 18 88.5 57.5t79 82t56.5 77t30 51.5h74q8 -20 28.5 -54.5t51.5 -76.5t74.5 -80.5t86.5 -56.5h-98q-99 0 -180 166q-28 -53 -76.5 -105.5t-103.5 -60.5z
" />
    <glyph glyph-name="otilde" unicode="&#xf5;" 
d="M535 -23q-217 0 -343 132.5t-126 351.5q0 215 126.5 353t339.5 138q223 0 347.5 -133.5t124.5 -357.5q0 -219 -126 -351.5t-343 -132.5zM221 535q0 -65 10 -133t34.5 -141t60.5 -129.5t95 -93t132 -36.5q80 0 139 30.5t92.5 84t49.5 118t16 140.5q0 66 -9.5 135.5
t-34 145t-61.5 134t-97 96.5t-134 38q-63 0 -114 -22.5t-84 -60t-55 -88.5t-31 -105t-9 -113zM295 1147q78 158 268 67q27 -13 49 -21t47.5 -12t45 0t38 18t31.5 40l6 -6q-18 -47 -45.5 -76t-59.5 -38t-63 -6.5t-63 15.5q-103 46 -144 52q-69 10 -102 -35z" />
    <glyph glyph-name="odieresis" unicode="&#xf6;" 
d="M66 461q0 215 126.5 353t339.5 138q223 0 347.5 -133.5t124.5 -357.5q0 -219 -126 -351.5t-343 -132.5t-343 132.5t-126 351.5zM514 924q-63 0 -114 -22.5t-84 -60t-55 -88.5t-31 -105t-9 -113q0 -65 10 -133t34.5 -141t60.5 -129.5t95 -93t132 -36.5q80 0 139 30.5
t92.5 84t49.5 118t16 140.5q0 66 -9.5 135.5t-34 145t-61.5 134t-97 96.5t-134 38zM698 1071q-35 0 -59.5 24.5t-24.5 59.5q0 34 24.5 59t59.5 25t60.5 -25t25.5 -59q0 -35 -25.5 -59.5t-60.5 -24.5zM291 1155q0 34 25.5 59t60.5 25t59.5 -25t24.5 -59q0 -35 -24.5 -59.5
t-59.5 -24.5t-60.5 24.5t-25.5 59.5z" />
    <glyph glyph-name="divide" unicode="&#xf7;" horiz-adv-x="782" 
d="M700 530h-614v72h614v-72zM393 930q38 0 65 -27t27 -65q0 -37 -27 -63.5t-65 -26.5t-65 26.5t-27 63.5q0 38 27 65t65 27zM301 285q0 37 27 63.5t65 26.5t65 -26.5t27 -63.5t-27 -63.5t-65 -26.5t-65 26.5t-27 63.5z" />
    <glyph glyph-name="oslash" unicode="&#xf8;" 
d="M66 461q0 215 126.5 353t339.5 138q94 0 177 -26l266 508h10l-262 -514q135 -49 208 -169.5t73 -289.5q0 -219 -126 -351.5t-343 -132.5q-148 0 -259 66l-32 -66h-29l41 78q-92 61 -141 166t-49 240zM324 135q85 -133 229 -133q80 0 139 30.5t92.5 84t49.5 118t16 140.5
q0 81 -14 164.5t-51.5 173.5t-94.5 143zM514 924q-63 0 -114 -22.5t-84 -60t-55 -88.5t-31 -105t-9 -113q0 -92 22 -194t66 -183l369 708q-67 58 -164 58z" />
    <glyph glyph-name="ugrave" unicode="&#xf9;" horiz-adv-x="1083" 
d="M39 797h-10v4l219 129h12l4 -643q0 -26 3.5 -55t18.5 -74t39.5 -78.5t73 -58.5t113.5 -25q35 0 77 19t82.5 54.5t67.5 97t27 136.5l2 422q0 46 -11 59t-59 13h-10v4l221 129h13v-791q0 -45 14 -55t76 -10h10v-8l-240 -76h-6v141q-50 -77 -122 -115.5t-185 -38.5
q-166 0 -259 83t-95 212l-6 453q0 42 -15 57t-55 15zM633 1071l-326 213h166l180 -213h-20z" />
    <glyph glyph-name="uacute" unicode="&#xfa;" horiz-adv-x="1083" 
d="M39 797h-10v4l219 129h12l4 -643q0 -26 3.5 -55t18.5 -74t39.5 -78.5t73 -58.5t113.5 -25q35 0 77 19t82.5 54.5t67.5 97t27 136.5l2 422q0 46 -11 59t-59 13h-10v4l221 129h13v-791q0 -45 14 -55t76 -10h10v-8l-240 -76h-6v141q-50 -77 -122 -115.5t-185 -38.5
q-166 0 -259 83t-95 212l-6 453q0 42 -15 57t-55 15zM430 1071h-20l180 213h166z" />
    <glyph glyph-name="ucircumflex" unicode="&#xfb;" horiz-adv-x="1083" 
d="M39 797h-10v4l219 129h12l4 -643q0 -26 3.5 -55t18.5 -74t39.5 -78.5t73 -58.5t113.5 -25q35 0 77 19t82.5 54.5t67.5 97t27 136.5l2 422q0 46 -11 59t-59 13h-10v4l221 129h13v-791q0 -45 14 -55t76 -10h10v-8l-240 -76h-6v141q-50 -77 -122 -115.5t-185 -38.5
q-166 0 -259 83t-95 212l-6 453q0 42 -15 57t-55 15zM348 1071h-110q43 18 88.5 57.5t79 82t56.5 77t30 51.5h73q12 -30 42.5 -78.5t87 -107.5t112.5 -82h-98q-100 0 -181 166q-28 -53 -76.5 -105.5t-103.5 -60.5z" />
    <glyph glyph-name="udieresis" unicode="&#xfc;" horiz-adv-x="1083" 
d="M29 797v4l219 129h12l4 -643q0 -26 3.5 -55t18.5 -74t39.5 -78.5t73 -58.5t113.5 -25q35 0 77 19t82.5 54.5t67.5 97t27 136.5l2 422q0 46 -11 59t-59 13h-10v4l221 129h13v-791q0 -45 14 -55t76 -10h10v-8l-240 -76h-6v141q-50 -77 -122 -115.5t-185 -38.5
q-166 0 -259 83t-95 212l-6 453q0 42 -15 57t-55 15h-10zM598 1155q0 34 24.5 59t59.5 25t60.5 -25t25.5 -59q0 -35 -25.5 -59.5t-60.5 -24.5t-59.5 24.5t-24.5 59.5zM360 1071q-35 0 -60.5 24.5t-25.5 59.5q0 34 25.5 59t60.5 25t59.5 -25t24.5 -59q0 -35 -24.5 -59.5
t-59.5 -24.5z" />
    <glyph glyph-name="yacute" unicode="&#xfd;" horiz-adv-x="1120" 
d="M20 930h377v-6q-34 -7 -51 -27.5t-15.5 -42.5t7.5 -41l252 -532q31 -64 43.5 -64t38.5 62l229 512q13 42 -25 86.5t-77 46.5v6h286v-6q-44 -7 -88.5 -47.5t-76.5 -98.5l-322 -710l-178 -394q-12 -26 -26 -50t-38.5 -54t-53.5 -51.5t-70.5 -36t-88.5 -14.5l-61 190
q48 -55 117.5 -59.5t136 43t106.5 133.5l78 170q18 35 17.5 64t-21.5 73l-356 741q-22 42 -66 71.5t-74 29.5v6zM428 1071l180 213h166l-325 -213h-21z" />
    <glyph glyph-name="thorn" unicode="&#xfe;" horiz-adv-x="1089" 
d="M369 -535h-375v7q37 0 72.5 35.5t35.5 95.5l-2 1587q0 26 -1 35.5t-7 21t-20 14t-39 1.5h-13v4l228 168h6l2 -680q42 89 124 140t185 56q216 9 326 -118t110 -347q0 -232 -126.5 -370t-358.5 -138q-151 0 -258 99v-473q0 -60 37 -95.5t74 -35.5v-7zM537 922
q-64 0 -118.5 -31t-89 -81t-54 -111.5t-19.5 -123.5v-446q35 -62 100.5 -95.5t139.5 -33.5q75 0 134.5 27.5t97.5 72.5t63.5 106.5t36 125t10.5 131.5q0 62 -7 119t-27 121t-52 111t-87.5 77.5t-127.5 30.5z" />
    <glyph glyph-name="ydieresis" unicode="&#xff;" horiz-adv-x="1120" 
d="M20 924v6h377v-6q-34 -7 -51 -27.5t-15.5 -42.5t7.5 -41l252 -532q31 -64 43.5 -64t38.5 62l229 512q13 42 -25 86.5t-77 46.5v6h286v-6q-44 -7 -88.5 -47.5t-76.5 -98.5l-322 -710l-178 -394q-12 -26 -26 -50t-38.5 -54t-53.5 -51.5t-70.5 -36t-88.5 -14.5l-61 190
q48 -55 117.5 -59.5t136 43t106.5 133.5l78 170q18 35 17.5 64t-21.5 73l-356 741q-22 42 -66 71.5t-74 29.5zM721 1239q35 0 60.5 -25t25.5 -59q0 -35 -25.5 -59.5t-60.5 -24.5t-59.5 24.5t-24.5 59.5q0 34 24.5 59t59.5 25zM313 1155q0 34 25.5 59t60.5 25t59.5 -25
t24.5 -59q0 -35 -24.5 -59.5t-59.5 -24.5t-60.5 24.5t-25.5 59.5z" />
    <glyph glyph-name="Dcroat" unicode="&#x110;" horiz-adv-x="1384" 
d="M-63 633v72h206v593q0 42 -36 85.5t-68 43.5v7h266h332q161 0 282 -50t196.5 -144.5t112.5 -225.5t36 -297q-2 -160 -41 -289.5t-116.5 -226t-201.5 -149t-287 -52.5h-579v6q31 0 67.5 44.5t36.5 86.5v496h-206zM430 23h162q111 0 199 42t144 110t93.5 160t53 186
t16.5 194q1 116 -10 208t-43 180.5t-85 149.5t-140.5 102t-205.5 50q-68 6 -184 6q-60 0 -92.5 -30t-32.5 -83v-593h215v-72h-215v-496q0 -53 33 -83.5t92 -30.5z" />
    <glyph glyph-name="dcroat" unicode="&#x111;" horiz-adv-x="1114" 
d="M57 442q0 232 127 370t357 138q161 0 262 -98v242l-271 -93v23l271 92v74q0 54 -9 64.5t-61 7.5h-10v4l219 168h14v-267l125 43v-20l-125 -43v-1008q0 -44 14 -54.5t77 -10.5h10v-8l-232 -76h-22v184q-44 -90 -126 -141t-185 -56q-216 -9 -325.5 118t-109.5 347zM520 6
q65 0 120 31t89.5 81t54 111t19.5 123v39v408q-37 62 -102 95.5t-138 33.5q-75 0 -134.5 -27.5t-97.5 -72.5t-63.5 -106.5t-36 -125t-10.5 -131.5q0 -43 3 -83.5t12 -87.5t23 -87t37.5 -78t54 -64.5t74 -42.5t95.5 -16z" />
    <glyph glyph-name="Lslash" unicode="&#x141;" horiz-adv-x="1202" 
d="M197 584l-131 -45v22l131 45v690q0 60 -37 95.5t-74 35.5v7h375v-7q-37 0 -73 -35.5t-36 -95.5v-639l262 91v-21l-262 -90v-500q0 -53 33 -83.5t92 -30.5h318q63 0 120.5 21.5t101 57t75 72t55.5 76.5l-66 -250h-995v6q37 0 74 35.5t37 95.5v447z" />
    <glyph glyph-name="lslash" unicode="&#x142;" horiz-adv-x="501" 
d="M14 545l154 51v594q0 45 -11 59t-59 13h-10v4l221 168h13v-787l161 55v-20l-161 -55v-496q0 -68 31 -96.5t65 -28.5v-6h-342v6q38 0 65 28t27 97v442l-154 -51v23z" />
    <glyph glyph-name="Scaron" unicode="&#x160;" horiz-adv-x="1187" 
d="M104 94v303q42 -178 167 -287.5t302 -109.5q52 0 101 9.5t94 31t78 53t52.5 78.5t19.5 104q0 88 -45 157.5t-116.5 116t-158.5 87l-174 81t-158.5 87.5t-116.5 117t-45 159q0 97 40 171.5t107.5 118t148.5 65.5t171 22q106 0 228 -21.5t192 -68.5v-283
q-41 142 -158 245.5t-266 103.5q-63 0 -121.5 -15.5t-108 -46.5t-79 -83t-29.5 -118q0 -62 29 -114.5t77.5 -91t111.5 -73t133 -65.5t140 -63t133 -71t111.5 -84t77.5 -107.5t29 -136.5q0 -87 -29.5 -155.5t-78.5 -111.5t-117 -71t-138.5 -39t-150.5 -11q-113 0 -248 28.5
t-205 88.5zM561 1534q-7 17 -30 51.5t-56.5 77t-79 82t-88.5 57.5h111q55 -8 103.5 -60.5t76.5 -105.5q81 166 180 166h99q-43 -18 -86 -56t-74.5 -81t-51.5 -76t-30 -55h-74z" />
    <glyph glyph-name="scaron" unicode="&#x161;" horiz-adv-x="876" 
d="M639 164q0 45 -24 82.5t-63.5 62.5t-90 50.5t-103 45.5t-102.5 48t-89.5 58t-63 75t-23.5 100q1 68 32 121t82 83t110.5 45t123.5 15q66 0 154.5 -16.5t140.5 -50.5v-197q-3 4 -11 28.5t-18 49t-32.5 55.5t-51 54.5t-77.5 40t-109 16.5q-81 0 -146.5 -42.5t-68.5 -119.5
q-2 -51 28 -92t80 -69.5t111 -54t122.5 -53.5t112.5 -61t83 -84t32 -114q0 -74 -30.5 -127.5t-82.5 -81.5t-110.5 -41t-126.5 -13t-167 18t-163 56l-2 195l10.5 -28t19 -39t30.5 -47.5t43 -46t58 -43t76 -30t95 -14.5q99 -3 155 40t56 126zM410 1071q-16 46 -95 140.5
t-159 127.5h110q55 -8 103.5 -60.5t76.5 -104.5q12 24 26 46.5t37.5 52.5t54.5 48t63 18h98q-43 -18 -86 -56t-74.5 -81t-51.5 -76t-30 -55h-73z" />
    <glyph glyph-name="Ydieresis" unicode="&#x178;" horiz-adv-x="1384" 
d="M35 1434h409v-7q-38 -11 -57.5 -38.5t-17.5 -53.5t8 -45l297 -534q17 -31 26 -46.5t21 -31t17 -21t14.5 -5.5t14.5 5t16 20t18.5 30t23.5 45l273 514q23 57 -11.5 108t-76.5 53v7h293v-7q-46 -8 -95 -53.5t-90 -118.5l-282 -538q-39 -76 -54.5 -141t-15.5 -166v-273
q0 -60 37 -95.5t74 -35.5v-6h-375v6q37 0 73.5 35.5t36.5 95.5v273q0 148 -75 292l-330 582q-39 68 -89.5 105.5t-82.5 37.5v7zM854 1698q35 0 59.5 -24.5t24.5 -59.5t-24.5 -59.5t-59.5 -24.5t-60.5 24.5t-25.5 59.5t25.5 59.5t60.5 24.5zM446 1614q0 35 24.5 59.5
t59.5 24.5t60.5 -24.5t25.5 -59.5t-25.5 -59.5t-60.5 -24.5t-59.5 24.5t-24.5 59.5z" />
    <glyph glyph-name="Zcaron" unicode="&#x17d;" horiz-adv-x="1212" 
d="M1059 0h-993l792 1298q47 70 35 91.5t-113 21.5h-383q-77 0 -164 -71.5t-137 -145.5l49 240h977l-792 -1299q-47 -71 -35 -91.5t113 -20.5h399q77 0 164 71.5t137 145.5zM338 1798h111q55 -8 103.5 -60.5t76.5 -105.5q12 24 26 46.5t37.5 53t54 48.5t62.5 18h98
q-43 -18 -86 -56t-74 -81t-51 -76t-30 -55h-74q-7 17 -30 51.5t-56.5 77t-79 82t-88.5 57.5z" />
    <glyph glyph-name="zcaron" unicode="&#x17e;" horiz-adv-x="882" 
d="M289 909q-53 0 -121 -58.5t-113 -125.5l33 205h719l-502 -828q-38 -61 -40 -68q-2 -10 12 -13q8 -1 61 -1h231q56 0 142.5 57.5t128.5 117.5l-52 -195h-731l504 827q37 61 38 68q2 10 -12 13q-8 1 -61 1h-237zM176 1380h111q55 -8 103.5 -60.5t76.5 -105.5
q81 166 180 166h98q-43 -18 -86.5 -56.5t-74.5 -80.5t-51.5 -76.5t-28.5 -54.5h-74q-7 17 -30 51.5t-56.5 77t-79 82t-88.5 57.5z" />
    <glyph glyph-name="circumflex" unicode="&#x2c6;" horiz-adv-x="804" 
d="M119 1071q43 18 88.5 57.5t79 82t56.5 77t30 51.5h73q10 -22 30 -55t51.5 -76t74.5 -81t86 -56h-98q-32 0 -62.5 18t-54 48.5t-37.5 53t-26 46.5q-28 -52 -77 -105t-104 -61h-110z" />
    <glyph glyph-name="caron" unicode="&#x2c7;" horiz-adv-x="669" 
d="M57 1339h111q55 -8 103.5 -60.5t76.5 -104.5q81 165 180 165h99q-43 -18 -86 -56t-74.5 -81t-51.5 -76t-30 -55h-74q-7 17 -30 51.5t-56.5 77t-79 82t-88.5 57.5z" />
    <glyph glyph-name="breve" unicode="&#x2d8;" horiz-adv-x="382" 
d="M193 1118q-57 -2 -98 43t-40 125h4q3 -43 46.5 -71.5t89.5 -28.5q44 0 83.5 25.5t43.5 74.5h4q-3 -75 -39.5 -121.5t-93.5 -46.5z" />
    <glyph glyph-name="dotaccent" unicode="&#x2d9;" horiz-adv-x="450" 
 />
    <glyph glyph-name="ring" unicode="&#x2da;" horiz-adv-x="440" 
d="M231 1384q66 0 112 -34.5t46 -98.5t-48.5 -100.5t-115.5 -36.5q-64 0 -109.5 35.5t-45.5 97.5q0 63 48.5 100t112.5 37zM145 1262q0 -51 21 -92.5t67 -41.5q78 0 78 123q0 47 -20.5 84t-63.5 37q-42 0 -62 -32.5t-20 -77.5z" />
    <glyph glyph-name="ogonek" unicode="&#x2db;" horiz-adv-x="520" 
d="M240 -39h30q-54 -37 -84 -97t-28 -126q0 -65 34 -107.5t99 -42.5q56 0 98 41t53 99q5 23 21 12q19 -13 19 -43q0 -4 -1 -8q-6 -48 -59 -81.5t-127 -33.5q-118 0 -182 52t-64 128q0 66 50.5 123t140.5 84z" />
    <glyph glyph-name="tilde" unicode="&#x2dc;" horiz-adv-x="569" 
d="M57 1145l-8 2q78 158 268 67q27 -13 49 -21t47.5 -12t45 0t38 18t31.5 40l7 -6q-18 -47 -46 -76t-59.5 -38t-63 -6.5t-63.5 15.5q-103 46 -144 52q-69 11 -102 -35z" />
    <glyph glyph-name="hungarumlaut" unicode="&#x2dd;" horiz-adv-x="694" 
d="M115 1079h-21l187 213h133zM324 1079h-21l186 213h132z" />
    <glyph glyph-name="endash" unicode="&#x2013;" horiz-adv-x="870" 
d="M145 602h584v-72h-584v72z" />
    <glyph glyph-name="emdash" unicode="&#x2014;" horiz-adv-x="1028" 
d="M145 602h732v-72h-732v72z" />
    <glyph glyph-name="quoteleft" unicode="&#x2018;" horiz-adv-x="344" 
d="M66 1266q0 46 34 106q44 70 76 94h10q-23 -26 -37 -58t-14 -56q8 2 23 2q38 0 65 -26t27 -64q0 -37 -27 -63.5t-65 -26.5t-65 27t-27 65z" />
    <glyph glyph-name="quoteright" unicode="&#x2019;" horiz-adv-x="315" 
d="M178 1466q38 0 65 -26t27 -64q0 -48 -34 -108q-44 -70 -76 -94h-10q22 25 36.5 58t14.5 56q-8 -2 -23 -2q-38 0 -65 26.5t-27 63.5q0 38 27 64t65 26z" />
    <glyph glyph-name="quotedblleft" unicode="&#x201c;" horiz-adv-x="550" 
d="M59 1266q0 45 35 106q44 70 76 94h10q-23 -26 -37 -58t-14 -56q8 2 23 2q38 0 65 -26t27 -64q0 -37 -27 -63.5t-65 -26.5t-65.5 27t-27.5 65zM317 1372q44 70 76 94h10q-23 -26 -37 -58t-14 -56q6 2 23 2q37 0 63.5 -26t26.5 -64q0 -37 -26.5 -63.5t-63.5 -26.5
q-38 0 -65 27t-27 65q0 46 34 106z" />
    <glyph glyph-name="quotedblright" unicode="&#x201d;" horiz-adv-x="532" 
d="M172 1466q38 0 65 -26t27 -64q0 -47 -35 -108q-45 -71 -75 -94h-11q23 26 37.5 59t14.5 55q-8 -2 -23 -2q-38 0 -65 26.5t-27 63.5q0 38 27 64t65 26zM395 1466q37 0 63.5 -26t26.5 -64q0 -56 -34 -108q-17 -30 -39.5 -57t-36.5 -37h-10q22 25 36.5 58t14.5 56
q-6 -2 -21 -2q-38 0 -65 26.5t-27 63.5q0 38 27 64t65 26z" />
    <glyph glyph-name="quotedblbase" unicode="&#x201e;" horiz-adv-x="716" 
 />
    <glyph glyph-name="bullet" unicode="&#x2022;" horiz-adv-x="536" 
 />
    <glyph glyph-name="perthousand" unicode="&#x2030;" horiz-adv-x="1964" 
d="M422 1446q149 4 227 -100q65 -86 50 -199q-15 -116 -107 -181q-74 -53 -182 -53q-105 0 -177 54t-89 131.5t0 155.5t92 134t186 58zM975 524q151 3 230 -102q64 -86 49 -198q-16 -115 -107 -179q-75 -53 -182 -53q-76 0 -136 29t-91 75t-45.5 102t0 112.5t46.5 103.5
t94 77.5t142 32.5zM1626 524q151 3 230 -102q64 -86 49 -198q-16 -115 -107 -179q-75 -53 -182 -53q-76 0 -136 29t-91 75t-45.5 102t0 112.5t46.5 103.5t94 77.5t142 32.5zM276 1212q0 -277 150 -282q35 -1 61 20t39.5 56t19.5 70.5t7 74.5q1 51 -4.5 95.5t-19.5 88
t-43.5 70t-71.5 27.5q-39 1 -67 -20t-42.5 -56.5t-21 -70.5t-7.5 -73zM1632 6q35 -1 60.5 20t38.5 56.5t19 71t7 75.5q2 50 -3.5 95t-19.5 87.5t-43 69t-71 27.5q-39 1 -67 -19.5t-42.5 -55t-21 -70t-6.5 -72.5q-1 -52 4.5 -97t20.5 -89.5t46.5 -71t77.5 -27.5zM981 6
q35 -1 60.5 20t38.5 56.5t19 71t7 75.5q2 50 -3.5 95t-19.5 87.5t-43 69t-71 27.5q-51 2 -83.5 -36t-43 -83.5t-11.5 -97.5q-1 -41 2 -77t13 -75t26 -67t44 -46.5t65 -19.5zM102 0l1190 1434h11l-1113 -1434h-88z" />
    <glyph glyph-name="guilsinglleft" unicode="&#x2039;" horiz-adv-x="475" 
d="M84 483l340 181v-15l-250 -207l250 -231v-14l-340 204v82z" />
    <glyph glyph-name="guilsinglright" unicode="&#x203a;" horiz-adv-x="475" 
d="M84 664l340 -181v-82l-340 -204v14l250 231l-250 207v15z" />
    <glyph glyph-name="fraction" unicode="&#x2044;" horiz-adv-x="776" 
d="M100 0h-86l760 1434h10z" />
    <glyph glyph-name="Euro" unicode="&#x20ac;" horiz-adv-x="1337" 
d="M53 459v71h117q-14 83 -14 189v37h-103v71h109q14 133 63 248t126.5 200.5t188 134t240.5 48.5q139 0 261.5 -40.5t193.5 -135.5v-213q-68 166 -181.5 266.5t-267.5 100.5q-94 0 -171 -34.5t-129 -92t-89.5 -136.5t-56 -165t-23.5 -181h396v-71h-396q0 -101 23 -226h373
v-71h-357q20 -65 41 -111q67 -138 188 -220.5t261 -82.5q119 0 224.5 65t178.5 173l6 -7q-77 -146 -206 -222.5t-287 -76.5q-229 0 -376 130t-202 352h-131z" />
    <glyph glyph-name="trademark" unicode="&#x2122;" horiz-adv-x="880" 
d="M494 1071h-82v2q9 0 23 10.5t14 22.5v293q0 10 -10.5 21.5t-18.5 11.5v2h67l119 -240q11 -22 16.5 -22t14.5 22l104 240h62v-2q-9 0 -16 -8.5t-7 -24.5v-293q0 -14 9.5 -23.5t19.5 -9.5v-2h-96v2q9 0 18.5 9.5t9.5 23.5v272q0 22 -3.5 23.5t-12.5 -21.5l-119 -274
l-137 274q-9 19 -11.5 19.5t-2.5 -19.5v-274q0 -12 15 -22.5t24 -10.5v-2zM72 1372l12 62h289l12 -62q-11 18 -33.5 36.5t-42.5 18.5h-30q-31 0 -31 -28v-293q0 -14 8.5 -23.5t17.5 -9.5v-2h-94v2q9 0 19 9.5t10 23.5v293q0 28 -33 28h-29q-21 0 -42.5 -18t-32.5 -37z" />
    <glyph glyph-name="minus" unicode="&#x2212;" horiz-adv-x="815" 
d="M106 602h586v-72h-586v72z" />
    <glyph glyph-name="g.1" unicode="&#xe029;" horiz-adv-x="1052" 
d="M131 16q-43 11 -49 28t20 54l115 162q-129 107 -129 299q0 177 112.5 285t297.5 108q110 0 196 -39l17 23q123 177 213 182q64 3 84 -50q15 -43 -8 -78q-16 -23 -42 -23q-37 38 -115.5 14.5t-127.5 -76.5q93 -46 143.5 -135t50.5 -211q0 -180 -111.5 -283.5
t-299.5 -103.5q-160 0 -265 76q-30 -46 -30 -62q0 -28 93 -53.5t242.5 -50.5t176.5 -31q59 -14 106 -35t88.5 -53t64 -79t21.5 -105q-2 -105 -68.5 -183.5t-169.5 -116.5t-225 -38q-85 0 -174.5 16t-175 57.5t-112.5 100.5v244q43 -178 171.5 -287t317.5 -109q57 0 108 11.5
t97.5 36.5t74 72.5t27.5 111.5q0 84 -68.5 137.5t-236.5 93.5q-30 7 -197.5 40.5t-232.5 49.5zM301 350q73 -160 213 -160q64 0 111 24.5t73.5 67.5t39 94.5t12.5 112.5q0 87 -22 183t-69 162q-210 -275 -358 -484zM481 930q-63 0 -110 -27t-73 -73.5t-38 -99t-12 -112.5
q0 -139 45 -251l354 481q-69 82 -166 82z" />
    <glyph glyph-name="E.1" unicode="&#xe02d;" horiz-adv-x="1187" 
d="M147 1298q0 42 -37 85.5t-69 43.5v7h991l49 -240q-50 75 -136.5 146t-164.5 71h-352q-60 0 -92.5 -30t-32.5 -83v-440q0 -53 32.5 -83t92.5 -30h236q65 0 106.5 8.5t64.5 27.5t33 42t15 60h4v-322h-4q-6 42 -16 67.5t-32.5 49.5t-64.5 34.5t-106 10.5h-361v-586
q0 -53 33 -83.5t92 -30.5h317q63 0 120.5 21.5t101.5 57t75.5 72t55.5 76.5l-66 -250h-991v6q32 0 69 44.5t37 86.5v1161z" />
    </font>
</defs>
</svg>
